<?xml version="1.0" encoding="UTF-8" standalone="no"?><svg xmlns="http://www.w3.org/2000/svg" xmlns:xlink="http://www.w3.org/1999/xlink" contentScriptType="application/ecmascript" contentStyleType="text/css" height="134px" preserveAspectRatio="none" style="width:589px;height:134px;" version="1.1" viewBox="0 0 589 134" width="589px" zoomAndPan="magnify"><defs><filter height="300%" id="fwp44c8" width="300%" x="-1" y="-1"><feGaussianBlur result="blurOut" stdDeviation="2.0"/><feColorMatrix in="blurOut" result="blurOut2" type="matrix" values="0 0 0 0 0 0 0 0 0 0 0 0 0 0 0 0 0 0 .4 0"/><feOffset dx="4.0" dy="4.0" in="blurOut2" result="blurOut3"/><feBlend in="SourceGraphic" in2="blurOut3" mode="normal"/></filter></defs><g><text fill="#000000" font-family="sans-serif" font-size="18" lengthAdjust="spacingAndGlyphs" textLength="112" x="247.5" y="18.6855">Charge states</text><!--entity Creation--><rect fill="#F8F8F8" filter="url(#fwp44c8)" height="37.6094" style="stroke: #383838; stroke-width: 1.5;" width="74" x="6" y="87.6406"/><rect fill="#F8F8F8" height="5" style="stroke: #383838; stroke-width: 1.5;" width="10" x="1" y="92.6406"/><rect fill="#F8F8F8" height="5" style="stroke: #383838; stroke-width: 1.5;" width="10" x="1" y="115.25"/><text fill="#000000" font-family="sans-serif" font-size="14" lengthAdjust="spacingAndGlyphs" textLength="54" x="16" y="112.1738">Creation</text><!--entity Pending--><ellipse cx="141" cy="97.6406" fill="#F8F8F8" filter="url(#fwp44c8)" rx="8" ry="8" style="stroke: #383838; stroke-width: 2.0;"/><text fill="#000000" font-family="sans-serif" font-size="14" lengthAdjust="spacingAndGlyphs" textLength="52" x="115" y="121.1738">Pending</text><!--entity Due--><ellipse cx="215" cy="97.6406" fill="#F8F8F8" filter="url(#fwp44c8)" rx="8" ry="8" style="stroke: #383838; stroke-width: 2.0;"/><text fill="#000000" font-family="sans-serif" font-size="14" lengthAdjust="spacingAndGlyphs" textLength="26" x="202" y="121.1738">Due</text><!--entity Cancelled--><ellipse cx="557" cy="97.6406" fill="#F8F8F8" filter="url(#fwp44c8)" rx="8" ry="8" style="stroke: #383838; stroke-width: 2.0;"/><text fill="#000000" font-family="sans-serif" font-size="14" lengthAdjust="spacingAndGlyphs" textLength="63" x="525.5" y="121.1738">Cancelled</text><!--entity Charged--><ellipse cx="365" cy="97.6406" fill="#F8F8F8" filter="url(#fwp44c8)" rx="8" ry="8" style="stroke: #383838; stroke-width: 2.0;"/><text fill="#000000" font-family="sans-serif" font-size="14" lengthAdjust="spacingAndGlyphs" textLength="55" x="337.5" y="121.1738">Charged</text><!--entity Failed--><ellipse cx="283" cy="97.6406" fill="#F8F8F8" filter="url(#fwp44c8)" rx="8" ry="8" style="stroke: #383838; stroke-width: 2.0;"/><text fill="#000000" font-family="sans-serif" font-size="14" lengthAdjust="spacingAndGlyphs" textLength="39" x="263.5" y="121.1738">Failed</text><!--entity Refunded--><ellipse cx="459" cy="97.6406" fill="#F8F8F8" filter="url(#fwp44c8)" rx="8" ry="8" style="stroke: #383838; stroke-width: 2.0;"/><text fill="#000000" font-family="sans-serif" font-size="14" lengthAdjust="spacingAndGlyphs" textLength="62" x="428" y="121.1738">Refunded</text><path d="M80.1328,106.6406 C89.9863,106.6406 99.8399,106.6406 109.693,106.6406 " fill="none" style="stroke: #383838; stroke-width: 1.0;"/><polygon fill="#383838" points="114.846,106.6406,105.846,102.6406,109.846,106.6406,105.846,110.6406,114.846,106.6406" style="stroke: #383838; stroke-width: 1.0;"/><path d="M167.016,106.6406 C176.912,106.6406 186.808,106.6406 196.704,106.6406 " fill="none" style="stroke: #383838; stroke-width: 1.0;"/><polygon fill="#383838" points="201.879,106.6406,192.879,102.6406,196.879,106.6406,192.879,110.6406,201.879,106.6406" style="stroke: #383838; stroke-width: 1.0;"/><path d="M157.318,88.474 C168.713,77.2149 184.974,63.7688 202.5,57.6406 C262.913,36.5161 429.699,37.6595 490.5,57.6406 C507.147,63.1113 523.052,74.5224 535.131,84.957 " fill="none" style="stroke: #383838; stroke-width: 1.0;"/><polygon fill="#383838" points="539.077,88.4483,534.987,79.4889,535.3323,85.1352,529.6859,85.4805,539.077,88.4483" style="stroke: #383838; stroke-width: 1.0;"/><path d="M227.076,88.5662 C235.728,77.346 248.477,63.9086 263.5,57.6406 C279.497,50.9664 286.116,51.9836 302.5,57.6406 C318.425,63.1389 333.386,74.5513 344.676,84.9796 " fill="none" style="stroke: #383838; stroke-width: 1.0;"/><polygon fill="#383838" points="348.36,88.4685,344.5764,79.3754,344.7298,85.0302,339.0751,85.1837,348.36,88.4685" style="stroke: #383838; stroke-width: 1.0;"/><path d="M228.016,106.6406 C238.014,106.6406 248.013,106.6406 258.011,106.6406 " fill="none" style="stroke: #383838; stroke-width: 1.0;"/><polygon fill="#383838" points="263.24,106.6406,254.24,102.6406,258.24,106.6406,254.24,110.6406,263.24,106.6406" style="stroke: #383838; stroke-width: 1.0;"/><path d="M227.076,88.5662 C235.728,77.346 248.477,63.9086 263.5,57.6406 C356.61,18.7936 394.654,26.1426 490.5,57.6406 C507.147,63.1113 523.052,74.5224 535.131,84.957 " fill="none" style="stroke: #383838; stroke-width: 1.0;"/><polygon fill="#383838" points="539.077,88.4483,534.987,79.4889,535.3323,85.1352,529.6859,85.4805,539.077,88.4483" style="stroke: #383838; stroke-width: 1.0;"/><path d="M392.539,106.6406 C402.561,106.6406 412.583,106.6406 422.605,106.6406 " fill="none" style="stroke: #383838; stroke-width: 1.0;"/><polygon fill="#383838" points="427.846,106.6406,418.846,102.6406,422.846,106.6406,418.846,110.6406,427.846,106.6406" style="stroke: #383838; stroke-width: 1.0;"/></g></svg>
