<svg width="1395" height="548" viewBox="0 0 1395 548" fill="none" xmlns="http://www.w3.org/2000/svg">
<rect width="1395" height="548" fill="white"/>
<path d="M116 265L131 273.66L131 256.34L116 265ZM273 265L258 256.34L258 273.66L273 265ZM129.5 266.5L259.5 266.5L259.5 263.5L129.5 263.5L129.5 266.5Z" fill="#FF5B24"/>
<path d="M1157 131L1162 133.887V128.113L1157 131ZM1267 131L1262 128.113V133.887L1267 131ZM1164.5 131.5H1169.5V130.5H1164.5V131.5ZM1174.5 131.5H1179.5V130.5H1174.5V131.5ZM1184.5 131.5H1189.5V130.5H1184.5V131.5ZM1194.5 131.5H1199.5V130.5H1194.5V131.5ZM1204.5 131.5H1209.5V130.5H1204.5V131.5ZM1214.5 131.5H1219.5V130.5H1214.5V131.5ZM1224.5 131.5H1229.5V130.5H1224.5V131.5ZM1234.5 131.5H1239.5V130.5H1234.5V131.5ZM1244.5 131.5H1249.5V130.5H1244.5V131.5ZM1254.5 131.5H1259.5V130.5H1254.5V131.5ZM1157 131L1167 136.774V125.226L1157 131ZM1267 131L1257 125.226V136.774L1267 131ZM1164.5 132H1169.5V130H1164.5V132ZM1174.5 132H1179.5V130H1174.5V132ZM1184.5 132H1189.5V130H1184.5V132ZM1194.5 132H1199.5V130H1194.5V132ZM1204.5 132H1209.5V130H1204.5V132ZM1214.5 132H1219.5V130H1214.5V132ZM1224.5 132H1229.5V130H1224.5V132ZM1234.5 132H1239.5V130H1234.5V132ZM1244.5 132H1249.5V130H1244.5V132ZM1254.5 132H1259.5V130H1254.5V132Z" fill="#FF5B24"/>
<path d="M56.66 303.266V303.5C56.57 305.372 55.004 306.668 52.736 306.668C50.702 306.668 48.65 305.318 48.65 302.132C48.65 299.054 50.522 297.524 52.934 297.524C54.752 297.524 56.192 298.298 56.552 300.512L58.118 300.242C57.668 296.966 54.932 295.958 52.988 295.958C49.514 295.958 46.958 298.478 46.958 302.132C46.958 305.642 49.586 308.234 52.52 308.234C54.482 308.234 56.084 307.082 56.768 305.606L57.11 308H58.28V301.808H53.258V303.266H56.66ZM64.5847 300.008C66.0967 300.008 67.2487 300.764 67.3567 302.492H61.7587C62.0287 300.836 63.0727 300.008 64.5847 300.008ZM68.7967 303.698V303.158C68.7967 300.422 67.0867 298.676 64.6207 298.676C62.1367 298.676 60.1747 300.512 60.1747 303.428C60.1747 306.416 62.2087 308.234 64.7647 308.234C66.4027 308.234 68.3647 307.316 68.7067 305.246L67.3387 304.94C67.0687 306.128 66.4027 306.902 64.7467 306.902C62.7847 306.902 61.7767 305.588 61.6867 303.698H68.7967ZM71.4182 296.714V298.928H69.6362V300.188H71.4182V305.894C71.4182 307.316 72.1922 308.234 73.8302 308.234C74.2802 308.234 74.8562 308.108 75.2702 307.982L74.9822 306.722C74.6762 306.794 74.4602 306.848 74.0282 306.848C73.2362 306.848 72.9122 306.506 72.9122 305.84V300.188H75.2882V298.928H72.9122V296.426L71.4182 296.714ZM85.4402 296.192L81.2822 308H82.9022L83.8022 305.372H88.9682L89.8502 308H91.4882L87.3302 296.192H85.4402ZM84.2702 303.914L86.3762 297.488L88.4822 303.914H84.2702ZM101.072 302.456C100.802 300.044 98.8938 298.676 96.8058 298.676C94.2858 298.676 92.3778 300.512 92.3778 303.446C92.3778 306.254 94.2858 308.234 97.0038 308.234C98.6778 308.234 100.64 307.28 101.054 304.508L99.7038 304.238C99.4878 305.984 98.5338 306.902 97.0038 306.902C94.8798 306.902 93.8898 305.318 93.8898 303.446C93.8898 301.196 95.1498 300.008 96.7158 300.008C98.1378 300.008 99.3798 300.782 99.5778 302.708L101.072 302.456ZM111.003 302.456C110.733 300.044 108.825 298.676 106.737 298.676C104.217 298.676 102.309 300.512 102.309 303.446C102.309 306.254 104.217 308.234 106.935 308.234C108.609 308.234 110.571 307.28 110.985 304.508L109.635 304.238C109.419 305.984 108.465 306.902 106.935 306.902C104.811 306.902 103.821 305.318 103.821 303.446C103.821 301.196 105.081 300.008 106.647 300.008C108.069 300.008 109.311 300.782 109.509 302.708L111.003 302.456ZM116.651 300.008C118.163 300.008 119.315 300.764 119.423 302.492H113.825C114.095 300.836 115.139 300.008 116.651 300.008ZM120.863 303.698V303.158C120.863 300.422 119.153 298.676 116.687 298.676C114.203 298.676 112.241 300.512 112.241 303.428C112.241 306.416 114.275 308.234 116.831 308.234C118.469 308.234 120.431 307.316 120.773 305.246L119.405 304.94C119.135 306.128 118.469 306.902 116.813 306.902C114.851 306.902 113.843 305.588 113.753 303.698H120.863ZM122.603 301.358C122.603 302.618 123.305 303.464 124.781 303.824L126.419 304.238C127.661 304.526 127.967 304.886 127.967 305.57C127.967 306.398 127.175 306.956 125.951 306.956C124.565 306.956 123.683 306.2 123.467 304.922L122.135 305.21C122.459 307.352 124.331 308.234 125.951 308.234C127.661 308.234 129.425 307.334 129.425 305.318C129.425 304.094 128.687 303.32 127.175 302.978L125.303 302.528C124.367 302.33 124.061 301.808 124.061 301.268C124.061 300.494 124.727 299.954 125.771 299.954C126.941 299.954 127.805 300.404 127.967 301.826L129.317 301.538C128.831 299.432 127.499 298.676 125.771 298.676C124.331 298.676 122.603 299.504 122.603 301.358ZM131.093 301.358C131.093 302.618 131.795 303.464 133.271 303.824L134.909 304.238C136.151 304.526 136.457 304.886 136.457 305.57C136.457 306.398 135.665 306.956 134.441 306.956C133.055 306.956 132.173 306.2 131.957 304.922L130.625 305.21C130.949 307.352 132.821 308.234 134.441 308.234C136.151 308.234 137.915 307.334 137.915 305.318C137.915 304.094 137.177 303.32 135.665 302.978L133.793 302.528C132.857 302.33 132.551 301.808 132.551 301.268C132.551 300.494 133.217 299.954 134.261 299.954C135.431 299.954 136.295 300.404 136.457 301.826L137.807 301.538C137.321 299.432 135.989 298.676 134.261 298.676C132.821 298.676 131.093 299.504 131.093 301.358ZM143.823 297.632H147.405V308H148.989V297.632H152.553V296.192H143.823V297.632ZM156.587 298.676C154.193 298.676 152.249 300.476 152.249 303.446C152.249 306.416 154.193 308.234 156.587 308.234C158.963 308.234 160.925 306.416 160.925 303.446C160.925 300.476 158.963 298.676 156.587 298.676ZM156.587 300.008C158.117 300.008 159.413 301.142 159.413 303.446C159.413 305.768 158.117 306.902 156.587 306.902C155.057 306.902 153.761 305.768 153.761 303.446C153.761 301.142 155.057 300.008 156.587 300.008ZM163.005 308H164.499V305.768L166.191 303.842L169.161 308H170.817L167.073 302.834L170.529 298.928H168.873L164.499 304.058V295.796H163.005V308ZM175.608 300.008C177.12 300.008 178.272 300.764 178.38 302.492H172.782C173.052 300.836 174.096 300.008 175.608 300.008ZM179.82 303.698V303.158C179.82 300.422 178.11 298.676 175.644 298.676C173.16 298.676 171.198 300.512 171.198 303.428C171.198 306.416 173.232 308.234 175.788 308.234C177.426 308.234 179.388 307.316 179.73 305.246L178.362 304.94C178.092 306.128 177.426 306.902 175.77 306.902C173.808 306.902 172.8 305.588 172.71 303.698H179.82ZM185.934 300.062C187.086 300.062 187.986 300.674 187.986 302.348V308H189.48V301.916C189.48 299.486 188.004 298.676 186.384 298.676C185.322 298.676 184.008 299.162 183.396 300.332V298.928H181.902V308H183.396V302.762C183.396 300.908 184.458 300.062 185.934 300.062Z" fill="#161225"/>
<path d="M284 265L299 273.66L299 256.34L284 265ZM552 265L537 256.34L537 273.66L552 265ZM297.5 266.5L538.5 266.5L538.5 263.5L297.5 263.5L297.5 266.5Z" fill="#FF5B24"/>
<path d="M564 265L579 273.66L579 256.34L564 265ZM829 265L814 256.34L814 273.66L829 265ZM577.5 266.5L815.5 266.5L815.5 263.5L577.5 263.5L577.5 266.5Z" fill="#FF5B24"/>
<path d="M843 265L858 273.66L858 256.34L843 265ZM1159 265L1144 256.34L1144 273.66L1159 265ZM856.5 266.5L1145.5 266.5L1145.5 263.5L856.5 263.5L856.5 266.5Z" fill="#FF5B24"/>
<circle cx="118" cy="265" r="13.5" fill="white" stroke="#FF5B24" stroke-width="7"/>
<circle cx="1176" cy="265" r="13.5" fill="white" stroke="#FF5B24" stroke-width="7"/>
<circle cx="1286" cy="131" r="13.5" fill="white" stroke="#FF5B24" stroke-width="7"/>
<line x1="1177" y1="130" x2="1177" y2="248" stroke="#FF5B24" stroke-width="2" stroke-dasharray="5 5"/>
<circle cx="290" cy="265" r="13.5" fill="white" stroke="#FF5B24" stroke-width="7"/>
<path d="M242.243 300.404C241.703 297.506 239.435 295.958 236.951 295.958C233.639 295.958 230.903 298.388 230.903 302.006C230.903 305.894 233.603 308.234 237.023 308.234C239.363 308.234 241.991 306.704 242.333 303.464L240.713 303.176C240.533 305.84 238.733 306.668 237.023 306.668C234.539 306.668 232.595 305.21 232.595 302.006C232.595 299.126 234.539 297.524 236.897 297.524C238.481 297.524 240.209 298.244 240.623 300.692L242.243 300.404ZM248.484 300.296C248.97 300.296 249.276 300.368 249.564 300.458L249.744 298.82C249.528 298.73 249.24 298.676 248.916 298.676C248.088 298.676 246.648 299.144 245.946 300.98V298.928H244.452V308H245.946V304.004C245.946 301.178 247.188 300.296 248.484 300.296ZM254.823 300.008C256.335 300.008 257.487 300.764 257.595 302.492H251.997C252.267 300.836 253.311 300.008 254.823 300.008ZM259.035 303.698V303.158C259.035 300.422 257.325 298.676 254.859 298.676C252.375 298.676 250.413 300.512 250.413 303.428C250.413 306.416 252.447 308.234 255.003 308.234C256.641 308.234 258.603 307.316 258.945 305.246L257.577 304.94C257.307 306.128 256.641 306.902 254.985 306.902C253.023 306.902 252.015 305.588 251.925 303.698H259.035ZM264.482 308.234C266.174 308.234 267.164 307.136 267.596 305.966V308H269.09V298.928H267.596V300.818C266.966 299.306 265.958 298.676 264.428 298.676C262.556 298.676 260.432 300.224 260.432 303.446C260.432 306.704 262.574 308.234 264.482 308.234ZM264.734 300.008C266.246 300.008 267.596 301.124 267.596 303.482C267.596 305.912 266.264 306.902 264.734 306.902C263.366 306.902 261.944 305.858 261.944 303.482C261.944 301.088 263.366 300.008 264.734 300.008ZM272.397 296.714V298.928H270.615V300.188H272.397V305.894C272.397 307.316 273.171 308.234 274.809 308.234C275.259 308.234 275.835 308.108 276.249 307.982L275.961 306.722C275.655 306.794 275.439 306.848 275.007 306.848C274.215 306.848 273.891 306.506 273.891 305.84V300.188H276.267V298.928H273.891V296.426L272.397 296.714ZM281.981 300.008C283.493 300.008 284.645 300.764 284.753 302.492H279.155C279.425 300.836 280.469 300.008 281.981 300.008ZM286.193 303.698V303.158C286.193 300.422 284.483 298.676 282.017 298.676C279.533 298.676 277.571 300.512 277.571 303.428C277.571 306.416 279.605 308.234 282.161 308.234C283.799 308.234 285.761 307.316 286.103 305.246L284.735 304.94C284.465 306.128 283.799 306.902 282.143 306.902C280.181 306.902 279.173 305.588 279.083 303.698H286.193ZM301.136 302.456C300.866 300.044 298.958 298.676 296.87 298.676C294.35 298.676 292.442 300.512 292.442 303.446C292.442 306.254 294.35 308.234 297.068 308.234C298.742 308.234 300.704 307.28 301.118 304.508L299.768 304.238C299.552 305.984 298.598 306.902 297.068 306.902C294.944 306.902 293.954 305.318 293.954 303.446C293.954 301.196 295.214 300.008 296.78 300.008C298.202 300.008 299.444 300.782 299.642 302.708L301.136 302.456ZM303.058 295.796V308H304.552V302.762C304.552 300.908 305.632 300.062 307.108 300.062C308.242 300.062 309.142 300.674 309.142 302.402V308H310.636V301.916C310.636 299.486 309.196 298.676 307.54 298.676C306.514 298.676 305.164 299.162 304.552 300.332V295.796H303.058ZM316.742 308.234C318.434 308.234 319.424 307.136 319.856 305.966V308H321.35V298.928H319.856V300.818C319.226 299.306 318.218 298.676 316.688 298.676C314.816 298.676 312.692 300.224 312.692 303.446C312.692 306.704 314.834 308.234 316.742 308.234ZM316.994 300.008C318.506 300.008 319.856 301.124 319.856 303.482C319.856 305.912 318.524 306.902 316.994 306.902C315.626 306.902 314.204 305.858 314.204 303.482C314.204 301.088 315.626 300.008 316.994 300.008ZM328.148 300.296C328.634 300.296 328.94 300.368 329.228 300.458L329.408 298.82C329.192 298.73 328.904 298.676 328.58 298.676C327.752 298.676 326.312 299.144 325.61 300.98V298.928H324.116V308H325.61V304.004C325.61 301.178 326.852 300.296 328.148 300.296ZM334.019 307.568C335.657 307.568 336.521 306.56 336.971 305.534V306.938C336.971 309.008 336.179 309.908 334.253 309.908C332.975 309.908 331.805 309.458 331.571 308L330.095 308.198C330.545 310.484 332.507 311.276 334.145 311.276C336.881 311.276 338.483 309.764 338.483 306.92V298.928H336.971V300.62C336.377 299.342 335.405 298.676 334.127 298.676C332.039 298.676 330.077 300.062 330.077 302.942C330.077 306.11 332.111 307.568 334.019 307.568ZM334.271 300.008C335.765 300.008 336.971 301.106 336.971 303.068C336.971 305.228 335.747 306.236 334.217 306.236C332.777 306.236 331.589 305.192 331.589 302.978C331.589 300.998 332.867 300.008 334.271 300.008ZM344.981 300.008C346.493 300.008 347.645 300.764 347.753 302.492H342.155C342.425 300.836 343.469 300.008 344.981 300.008ZM349.193 303.698V303.158C349.193 300.422 347.483 298.676 345.017 298.676C342.533 298.676 340.571 300.512 340.571 303.428C340.571 306.416 342.605 308.234 345.161 308.234C346.799 308.234 348.761 307.316 349.103 305.246L347.735 304.94C347.465 306.128 346.799 306.902 345.143 306.902C343.181 306.902 342.173 305.588 342.083 303.698H349.193Z" fill="#161225"/>
<circle cx="569" cy="265" r="13.5" fill="white" stroke="#FF5B24" stroke-width="7"/>
<path d="M523.253 299.846L524.729 300.134C524.729 298.244 525.935 297.416 527.231 297.416C528.851 297.416 529.427 298.298 529.427 299.288C529.427 300.458 528.743 301.646 527.195 303.194L523.541 306.812V308H531.173V306.542H525.575L528.437 303.842C530.327 302.024 531.029 300.548 531.029 299.18C531.029 297.2 529.571 295.958 527.375 295.958C525.557 295.958 523.379 296.912 523.253 299.846ZM546.323 295.796H544.829V300.62C544.217 299.342 543.209 298.676 541.931 298.676C539.771 298.676 537.647 300.206 537.647 303.374C537.647 306.686 539.807 308.234 541.679 308.234C543.443 308.234 544.361 307.334 544.829 306.308V308H546.323V295.796ZM542.021 300.008C543.515 300.008 544.829 301.196 544.829 303.482C544.829 305.858 543.515 306.902 542.003 306.902C540.617 306.902 539.159 305.768 539.159 303.41C539.159 301.106 540.635 300.008 542.021 300.008ZM552.455 308.234C554.147 308.234 555.137 307.136 555.569 305.966V308H557.063V298.928H555.569V300.818C554.939 299.306 553.931 298.676 552.401 298.676C550.529 298.676 548.405 300.224 548.405 303.446C548.405 306.704 550.547 308.234 552.455 308.234ZM552.707 300.008C554.219 300.008 555.569 301.124 555.569 303.482C555.569 305.912 554.237 306.902 552.707 306.902C551.339 306.902 549.917 305.858 549.917 303.482C549.917 301.088 551.339 300.008 552.707 300.008ZM560.513 311.096C562.061 311.096 562.979 310.34 563.591 308.702L567.263 298.928H565.589L563.051 306.56L560.351 298.928H558.659L561.989 307.262C562.529 308.612 561.989 309.8 560.621 309.8C559.991 309.8 559.541 309.62 559.289 309.494L559.037 310.772C559.379 310.934 559.937 311.096 560.513 311.096ZM568.575 301.358C568.575 302.618 569.277 303.464 570.753 303.824L572.391 304.238C573.633 304.526 573.939 304.886 573.939 305.57C573.939 306.398 573.147 306.956 571.923 306.956C570.537 306.956 569.655 306.2 569.439 304.922L568.107 305.21C568.431 307.352 570.303 308.234 571.923 308.234C573.633 308.234 575.397 307.334 575.397 305.318C575.397 304.094 574.659 303.32 573.147 302.978L571.275 302.528C570.339 302.33 570.033 301.808 570.033 301.268C570.033 300.494 570.699 299.954 571.743 299.954C572.913 299.954 573.777 300.404 573.939 301.826L575.289 301.538C574.803 299.432 573.471 298.676 571.743 298.676C570.303 298.676 568.575 299.504 568.575 301.358ZM589.891 308V298.928H588.397V304.256C588.397 306.074 587.209 306.848 585.769 306.848C584.347 306.848 583.735 306.29 583.735 304.85V298.928H582.241V305.282C582.241 307.37 583.663 308.234 585.229 308.234C586.417 308.234 587.677 307.712 588.397 306.452V308H589.891ZM596.697 300.062C597.849 300.062 598.749 300.674 598.749 302.348V308H600.243V301.916C600.243 299.486 598.767 298.676 597.147 298.676C596.085 298.676 594.771 299.162 594.159 300.332V298.928H592.665V308H594.159V302.762C594.159 300.908 595.221 300.062 596.697 300.062ZM603.524 296.714V298.928H601.742V300.188H603.524V305.894C603.524 307.316 604.298 308.234 605.936 308.234C606.386 308.234 606.962 308.108 607.376 307.982L607.088 306.722C606.782 306.794 606.566 306.848 606.134 306.848C605.342 306.848 605.018 306.506 605.018 305.84V300.188H607.394V298.928H605.018V296.426L603.524 296.714ZM609.382 298.928V308H610.894V298.928H609.382ZM610.138 295.13C609.562 295.13 609.13 295.562 609.13 296.138C609.13 296.714 609.562 297.128 610.138 297.128C610.696 297.128 611.128 296.714 611.128 296.138C611.128 295.562 610.696 295.13 610.138 295.13ZM613.671 295.796V308H615.165V295.796H613.671ZM541.902 317.796H540.408V322.62C539.796 321.342 538.788 320.676 537.51 320.676C535.35 320.676 533.226 322.206 533.226 325.374C533.226 328.686 535.386 330.234 537.258 330.234C539.022 330.234 539.94 329.334 540.408 328.308V330H541.902V317.796ZM537.6 322.008C539.094 322.008 540.408 323.196 540.408 325.482C540.408 327.858 539.094 328.902 537.582 328.902C536.196 328.902 534.738 327.768 534.738 325.41C534.738 323.106 536.214 322.008 537.6 322.008ZM552.3 330V320.928H550.806V326.256C550.806 328.074 549.618 328.848 548.178 328.848C546.756 328.848 546.144 328.29 546.144 326.85V320.928H544.65V327.282C544.65 329.37 546.072 330.234 547.638 330.234C548.826 330.234 550.086 329.712 550.806 328.452V330H552.3ZM558.8 322.008C560.312 322.008 561.464 322.764 561.572 324.492H555.974C556.244 322.836 557.288 322.008 558.8 322.008ZM563.012 325.698V325.158C563.012 322.422 561.302 320.676 558.836 320.676C556.352 320.676 554.39 322.512 554.39 325.428C554.39 328.416 556.424 330.234 558.98 330.234C560.618 330.234 562.58 329.316 562.922 327.246L561.554 326.94C561.284 328.128 560.618 328.902 558.962 328.902C557 328.902 555.992 327.588 555.902 325.698H563.012ZM577.938 317.796H576.444V322.62C575.832 321.342 574.824 320.676 573.546 320.676C571.386 320.676 569.262 322.206 569.262 325.374C569.262 328.686 571.422 330.234 573.294 330.234C575.058 330.234 575.976 329.334 576.444 328.308V330H577.938V317.796ZM573.636 322.008C575.13 322.008 576.444 323.196 576.444 325.482C576.444 327.858 575.13 328.902 573.618 328.902C572.232 328.902 570.774 327.768 570.774 325.41C570.774 323.106 572.25 322.008 573.636 322.008ZM584.069 330.234C585.761 330.234 586.751 329.136 587.183 327.966V330H588.677V320.928H587.183V322.818C586.553 321.306 585.545 320.676 584.015 320.676C582.143 320.676 580.019 322.224 580.019 325.446C580.019 328.704 582.161 330.234 584.069 330.234ZM584.321 322.008C585.833 322.008 587.183 323.124 587.183 325.482C587.183 327.912 585.851 328.902 584.321 328.902C582.953 328.902 581.531 327.858 581.531 325.482C581.531 323.088 582.953 322.008 584.321 322.008ZM591.984 318.714V320.928H590.202V322.188H591.984V327.894C591.984 329.316 592.758 330.234 594.396 330.234C594.846 330.234 595.422 330.108 595.836 329.982L595.548 328.722C595.242 328.794 595.026 328.848 594.594 328.848C593.802 328.848 593.478 328.506 593.478 327.84V322.188H595.854V320.928H593.478V318.426L591.984 318.714ZM601.568 322.008C603.08 322.008 604.232 322.764 604.34 324.492H598.742C599.012 322.836 600.056 322.008 601.568 322.008ZM605.78 325.698V325.158C605.78 322.422 604.07 320.676 601.604 320.676C599.12 320.676 597.158 322.512 597.158 325.428C597.158 328.416 599.192 330.234 601.748 330.234C603.386 330.234 605.348 329.316 605.69 327.246L604.322 326.94C604.052 328.128 603.386 328.902 601.73 328.902C599.768 328.902 598.76 327.588 598.67 325.698H605.78Z" fill="#161225"/>
<circle cx="846" cy="265" r="13.5" fill="white" stroke="#FF5B24" stroke-width="7"/>
<path d="M808.005 296.192V308H812.217C815.169 308 817.851 306.092 817.851 302.096C817.851 298.1 815.169 296.192 812.217 296.192H808.005ZM812.217 297.65C814.269 297.65 816.177 299.09 816.177 302.096C816.177 305.12 814.269 306.542 812.217 306.542H809.589V297.65H812.217ZM827.657 308V298.928H826.163V304.256C826.163 306.074 824.975 306.848 823.535 306.848C822.113 306.848 821.501 306.29 821.501 304.85V298.928H820.007V305.282C820.007 307.37 821.429 308.234 822.995 308.234C824.183 308.234 825.443 307.712 826.163 306.452V308H827.657ZM834.157 300.008C835.669 300.008 836.821 300.764 836.929 302.492H831.331C831.601 300.836 832.645 300.008 834.157 300.008ZM838.369 303.698V303.158C838.369 300.422 836.659 298.676 834.193 298.676C831.709 298.676 829.747 300.512 829.747 303.428C829.747 306.416 831.781 308.234 834.337 308.234C835.975 308.234 837.937 307.316 838.279 305.246L836.911 304.94C836.641 306.128 835.975 306.902 834.319 306.902C832.357 306.902 831.349 305.588 831.259 303.698H838.369ZM853.294 295.796H851.8V300.62C851.188 299.342 850.18 298.676 848.902 298.676C846.742 298.676 844.618 300.206 844.618 303.374C844.618 306.686 846.778 308.234 848.65 308.234C850.414 308.234 851.332 307.334 851.8 306.308V308H853.294V295.796ZM848.992 300.008C850.486 300.008 851.8 301.196 851.8 303.482C851.8 305.858 850.486 306.902 848.974 306.902C847.588 306.902 846.13 305.768 846.13 303.41C846.13 301.106 847.606 300.008 848.992 300.008ZM859.426 308.234C861.118 308.234 862.108 307.136 862.54 305.966V308H864.034V298.928H862.54V300.818C861.91 299.306 860.902 298.676 859.372 298.676C857.5 298.676 855.376 300.224 855.376 303.446C855.376 306.704 857.518 308.234 859.426 308.234ZM859.678 300.008C861.19 300.008 862.54 301.124 862.54 303.482C862.54 305.912 861.208 306.902 859.678 306.902C858.31 306.902 856.888 305.858 856.888 303.482C856.888 301.088 858.31 300.008 859.678 300.008ZM867.34 296.714V298.928H865.558V300.188H867.34V305.894C867.34 307.316 868.114 308.234 869.752 308.234C870.202 308.234 870.778 308.108 871.192 307.982L870.904 306.722C870.598 306.794 870.382 306.848 869.95 306.848C869.158 306.848 868.834 306.506 868.834 305.84V300.188H871.21V298.928H868.834V296.426L867.34 296.714ZM876.925 300.008C878.437 300.008 879.589 300.764 879.697 302.492H874.099C874.369 300.836 875.413 300.008 876.925 300.008ZM881.137 303.698V303.158C881.137 300.422 879.427 298.676 876.961 298.676C874.477 298.676 872.515 300.512 872.515 303.428C872.515 306.416 874.549 308.234 877.104 308.234C878.743 308.234 880.705 307.316 881.047 305.246L879.679 304.94C879.409 306.128 878.743 306.902 877.087 306.902C875.125 306.902 874.117 305.588 874.027 303.698H881.137ZM884.19 298.892C883.56 298.892 883.074 299.396 883.074 300.008C883.074 300.62 883.56 301.106 884.19 301.106C884.802 301.106 885.288 300.62 885.288 300.008C885.288 299.396 884.802 298.892 884.19 298.892ZM884.19 305.894C883.56 305.894 883.074 306.398 883.074 307.01C883.074 307.622 883.56 308.108 884.19 308.108C884.802 308.108 885.288 307.622 885.288 307.01C885.288 306.398 884.802 305.894 884.19 305.894ZM774.187 322.404C773.647 319.506 771.379 317.958 768.895 317.958C765.583 317.958 762.847 320.388 762.847 324.006C762.847 327.894 765.547 330.234 768.967 330.234C771.307 330.234 773.935 328.704 774.277 325.464L772.657 325.176C772.477 327.84 770.677 328.668 768.967 328.668C766.483 328.668 764.539 327.21 764.539 324.006C764.539 321.126 766.483 319.524 768.841 319.524C770.425 319.524 772.153 320.244 772.567 322.692L774.187 322.404ZM776.396 317.796V330H777.89V324.762C777.89 322.908 778.97 322.062 780.446 322.062C781.58 322.062 782.48 322.674 782.48 324.402V330H783.974V323.916C783.974 321.486 782.534 320.676 780.878 320.676C779.852 320.676 778.502 321.162 777.89 322.332V317.796H776.396ZM790.08 330.234C791.772 330.234 792.762 329.136 793.194 327.966V330H794.688V320.928H793.194V322.818C792.564 321.306 791.556 320.676 790.026 320.676C788.154 320.676 786.03 322.224 786.03 325.446C786.03 328.704 788.172 330.234 790.08 330.234ZM790.332 322.008C791.844 322.008 793.194 323.124 793.194 325.482C793.194 327.912 791.862 328.902 790.332 328.902C788.964 328.902 787.542 327.858 787.542 325.482C787.542 323.088 788.964 322.008 790.332 322.008ZM801.486 322.296C801.972 322.296 802.278 322.368 802.566 322.458L802.746 320.82C802.53 320.73 802.242 320.676 801.918 320.676C801.09 320.676 799.65 321.144 798.948 322.98V320.928H797.454V330H798.948V326.004C798.948 323.178 800.19 322.296 801.486 322.296ZM807.357 329.568C808.995 329.568 809.859 328.56 810.309 327.534V328.938C810.309 331.008 809.517 331.908 807.591 331.908C806.313 331.908 805.143 331.458 804.909 330L803.433 330.198C803.883 332.484 805.845 333.276 807.483 333.276C810.219 333.276 811.821 331.764 811.821 328.92V320.928H810.309V322.62C809.715 321.342 808.743 320.676 807.465 320.676C805.377 320.676 803.415 322.062 803.415 324.942C803.415 328.11 805.449 329.568 807.357 329.568ZM807.609 322.008C809.103 322.008 810.309 323.106 810.309 325.068C810.309 327.228 809.085 328.236 807.555 328.236C806.115 328.236 804.927 327.192 804.927 324.978C804.927 322.998 806.205 322.008 807.609 322.008ZM818.319 322.008C819.831 322.008 820.983 322.764 821.091 324.492H815.493C815.763 322.836 816.807 322.008 818.319 322.008ZM822.531 325.698V325.158C822.531 322.422 820.821 320.676 818.355 320.676C815.871 320.676 813.909 322.512 813.909 325.428C813.909 328.416 815.943 330.234 818.499 330.234C820.137 330.234 822.099 329.316 822.441 327.246L821.073 326.94C820.803 328.128 820.137 328.902 818.481 328.902C816.519 328.902 815.511 327.588 815.421 325.698H822.531ZM829.464 320.928V330H830.976V320.928H829.464ZM830.22 317.13C829.644 317.13 829.212 317.562 829.212 318.138C829.212 318.714 829.644 319.128 830.22 319.128C830.778 319.128 831.21 318.714 831.21 318.138C831.21 317.562 830.778 317.13 830.22 317.13ZM833.411 323.358C833.411 324.618 834.113 325.464 835.589 325.824L837.227 326.238C838.469 326.526 838.775 326.886 838.775 327.57C838.775 328.398 837.983 328.956 836.759 328.956C835.373 328.956 834.491 328.2 834.275 326.922L832.943 327.21C833.267 329.352 835.139 330.234 836.759 330.234C838.469 330.234 840.233 329.334 840.233 327.318C840.233 326.094 839.495 325.32 837.983 324.978L836.111 324.528C835.175 324.33 834.869 323.808 834.869 323.268C834.869 322.494 835.535 321.954 836.579 321.954C837.749 321.954 838.613 322.404 838.775 323.826L840.125 323.538C839.639 321.432 838.307 320.676 836.579 320.676C835.139 320.676 833.411 321.504 833.411 323.358ZM851.793 320.676C850.137 320.676 849.111 321.756 848.589 322.692V320.928H847.095V333.15H848.589V328.236C849.291 329.496 850.389 330.234 851.613 330.234C853.755 330.234 855.843 328.632 855.843 325.32C855.843 322.152 853.665 320.676 851.793 320.676ZM851.451 322.008C852.837 322.008 854.331 323.106 854.331 325.356C854.331 327.768 852.855 328.902 851.433 328.902C849.939 328.902 848.589 327.678 848.589 325.428C848.589 323.088 849.939 322.008 851.451 322.008ZM861.938 322.296C862.424 322.296 862.73 322.368 863.018 322.458L863.198 320.82C862.982 320.73 862.694 320.676 862.37 320.676C861.542 320.676 860.102 321.144 859.4 322.98V320.928H857.906V330H859.4V326.004C859.4 323.178 860.642 322.296 861.938 322.296ZM868.204 320.676C865.81 320.676 863.866 322.476 863.866 325.446C863.866 328.416 865.81 330.234 868.204 330.234C870.58 330.234 872.542 328.416 872.542 325.446C872.542 322.476 870.58 320.676 868.204 320.676ZM868.204 322.008C869.734 322.008 871.03 323.142 871.03 325.446C871.03 327.768 869.734 328.902 868.204 328.902C866.674 328.902 865.378 327.768 865.378 325.446C865.378 323.142 866.674 322.008 868.204 322.008ZM882.632 324.456C882.362 322.044 880.454 320.676 878.366 320.676C875.846 320.676 873.938 322.512 873.938 325.446C873.938 328.254 875.846 330.234 878.564 330.234C880.238 330.234 882.2 329.28 882.614 326.508L881.264 326.238C881.048 327.984 880.094 328.902 878.564 328.902C876.44 328.902 875.45 327.318 875.45 325.446C875.45 323.196 876.71 322.008 878.276 322.008C879.698 322.008 880.94 322.782 881.138 324.708L882.632 324.456ZM888.28 322.008C889.792 322.008 890.944 322.764 891.052 324.492H885.454C885.724 322.836 886.768 322.008 888.28 322.008ZM892.492 325.698V325.158C892.492 322.422 890.782 320.676 888.316 320.676C885.832 320.676 883.87 322.512 883.87 325.428C883.87 328.416 885.904 330.234 888.46 330.234C890.098 330.234 892.06 329.316 892.402 327.246L891.034 326.94C890.764 328.128 890.098 328.902 888.442 328.902C886.48 328.902 885.472 327.588 885.382 325.698H892.492ZM894.232 323.358C894.232 324.618 894.934 325.464 896.41 325.824L898.048 326.238C899.29 326.526 899.596 326.886 899.596 327.57C899.596 328.398 898.804 328.956 897.58 328.956C896.194 328.956 895.312 328.2 895.096 326.922L893.764 327.21C894.088 329.352 895.96 330.234 897.58 330.234C899.29 330.234 901.054 329.334 901.054 327.318C901.054 326.094 900.316 325.32 898.804 324.978L896.932 324.528C895.996 324.33 895.69 323.808 895.69 323.268C895.69 322.494 896.356 321.954 897.4 321.954C898.57 321.954 899.434 322.404 899.596 323.826L900.946 323.538C900.46 321.432 899.128 320.676 897.4 320.676C895.96 320.676 894.232 321.504 894.232 323.358ZM902.722 323.358C902.722 324.618 903.424 325.464 904.9 325.824L906.538 326.238C907.78 326.526 908.086 326.886 908.086 327.57C908.086 328.398 907.294 328.956 906.07 328.956C904.684 328.956 903.802 328.2 903.586 326.922L902.254 327.21C902.578 329.352 904.45 330.234 906.07 330.234C907.78 330.234 909.544 329.334 909.544 327.318C909.544 326.094 908.806 325.32 907.294 324.978L905.422 324.528C904.486 324.33 904.18 323.808 904.18 323.268C904.18 322.494 904.846 321.954 905.89 321.954C907.06 321.954 907.924 322.404 908.086 323.826L909.436 323.538C908.95 321.432 907.618 320.676 905.89 320.676C904.45 320.676 902.722 321.504 902.722 323.358ZM915.28 322.008C916.792 322.008 917.944 322.764 918.052 324.492H912.454C912.724 322.836 913.768 322.008 915.28 322.008ZM919.492 325.698V325.158C919.492 322.422 917.782 320.676 915.316 320.676C912.832 320.676 910.87 322.512 910.87 325.428C910.87 328.416 912.904 330.234 915.46 330.234C917.098 330.234 919.06 329.316 919.402 327.246L918.034 326.94C917.764 328.128 917.098 328.902 915.442 328.902C913.48 328.902 912.472 327.588 912.382 325.698H919.492ZM929.566 317.796H928.072V322.62C927.46 321.342 926.452 320.676 925.174 320.676C923.014 320.676 920.89 322.206 920.89 325.374C920.89 328.686 923.05 330.234 924.922 330.234C926.686 330.234 927.604 329.334 928.072 328.308V330H929.566V317.796ZM925.264 322.008C926.758 322.008 928.072 323.196 928.072 325.482C928.072 327.858 926.758 328.902 925.246 328.902C923.86 328.902 922.402 327.768 922.402 325.41C922.402 323.106 923.878 322.008 925.264 322.008Z" fill="#161225"/>
<path d="M1036 398L1041 400.887L1041 395.113L1036 398ZM1159 398L1154 395.113L1154 400.887L1159 398ZM1043.69 398.5L1048.81 398.5L1048.81 397.5L1043.69 397.5L1043.69 398.5ZM1053.94 398.5L1059.06 398.5L1059.06 397.5L1053.94 397.5L1053.94 398.5ZM1064.19 398.5L1069.31 398.5L1069.31 397.5L1064.19 397.5L1064.19 398.5ZM1074.44 398.5L1079.56 398.5L1079.56 397.5L1074.44 397.5L1074.44 398.5ZM1084.69 398.5L1089.81 398.5L1089.81 397.5L1084.69 397.5L1084.69 398.5ZM1094.94 398.5L1100.06 398.5L1100.06 397.5L1094.94 397.5L1094.94 398.5ZM1105.19 398.5L1110.31 398.5L1110.31 397.5L1105.19 397.5L1105.19 398.5ZM1115.44 398.5L1120.56 398.5L1120.56 397.5L1115.44 397.5L1115.44 398.5ZM1125.69 398.5L1130.81 398.5L1130.81 397.5L1125.69 397.5L1125.69 398.5ZM1135.94 398.5L1141.06 398.5L1141.06 397.5L1135.94 397.5L1135.94 398.5ZM1146.19 398.5L1151.31 398.5L1151.31 397.5L1146.19 397.5L1146.19 398.5ZM1036 398L1046 403.774L1046 392.226L1036 398ZM1159 398L1149 392.226L1149 403.773L1159 398ZM1043.69 399L1048.81 399L1048.81 397L1043.69 397L1043.69 399ZM1053.94 399L1059.06 399L1059.06 397L1053.94 397L1053.94 399ZM1064.19 399L1069.31 399L1069.31 397L1064.19 397L1064.19 399ZM1074.44 399L1079.56 399L1079.56 397L1074.44 397L1074.44 399ZM1084.69 399L1089.81 399L1089.81 397L1084.69 397L1084.69 399ZM1094.94 399L1100.06 399L1100.06 397L1094.94 397L1094.94 399ZM1105.19 399L1110.31 399L1110.31 397L1105.19 397L1105.19 399ZM1115.44 399L1120.56 399L1120.56 397L1115.44 397L1115.44 399ZM1125.69 399L1130.81 399L1130.81 397L1125.69 397L1125.69 399ZM1135.94 399L1141.06 399L1141.06 397L1135.94 397L1135.94 399ZM1146.19 399L1151.31 399L1151.31 397L1146.19 397L1146.19 399Z" fill="#FF5B24"/>
<circle cx="1178" cy="398" r="13.5" fill="white" stroke="#FF5B24" stroke-width="7"/>
<line x1="1065" y1="264" x2="1065" y2="399" stroke="#FF5B24" stroke-width="2" stroke-dasharray="5 5"/>
<rect x="1028" y="382" width="33" height="35" fill="white"/>
<path d="M846 187L843.113 192L848.887 192L846 187ZM846 247L848.887 242L843.113 242L846 247ZM845.5 194.5L845.5 199.5L846.5 199.5L846.5 194.5L845.5 194.5ZM845.5 204.5L845.5 209.5L846.5 209.5L846.5 204.5L845.5 204.5ZM845.5 214.5L845.5 219.5L846.5 219.5L846.5 214.5L845.5 214.5ZM845.5 224.5L845.5 229.5L846.5 229.5L846.5 224.5L845.5 224.5ZM845.5 234.5L845.5 239.5L846.5 239.5L846.5 234.5L845.5 234.5ZM846 187L840.226 197L851.774 197L846 187ZM846 247L851.774 237L840.226 237L846 247ZM845 194.5L845 199.5L847 199.5L847 194.5L845 194.5ZM845 204.5L845 209.5L847 209.5L847 204.5L845 204.5ZM845 214.5L845 219.5L847 219.5L847 214.5L845 214.5ZM845 224.5L845 229.5L847 229.5L847 224.5L845 224.5ZM845 234.5L845 239.5L847 239.5L847 234.5L845 234.5Z" fill="#FF5B24"/>
<line x1="912" y1="205" x2="912" y2="265" stroke="#FF5B24" stroke-width="2" stroke-dasharray="5 5"/>
<line x1="912" y1="206" x2="846" y2="206" stroke="#FF5B24" stroke-width="2" stroke-dasharray="5 5"/>
<rect x="833" y="170" width="33" height="35" fill="white"/>
<rect x="1140" y="114" width="36" height="35" fill="white"/>
<path d="M333 235C333 232.239 335.239 230 338 230H429C431.761 230 434 232.239 434 235V252C434 254.761 431.761 257 429 257H338C335.239 257 333 254.761 333 252V235Z" fill="#F6F6F9"/>
<path d="M352.213 241.136H354.085C355.269 241.136 355.941 241.84 355.941 243.136C355.941 244.368 355.269 245.072 354.053 245.072H352.213V241.136ZM350.373 239.504V250H352.213V246.704H354.245C356.485 246.704 357.909 245.136 357.909 243.104C357.909 240.752 356.565 239.504 354.229 239.504H350.373ZM359.764 239.504V250H366.564V248.352H361.604V245.52H365.876V243.872H361.604V241.152H366.436V239.504H359.764ZM375.938 239.504V247.552L370.754 239.504H368.498V250H370.338V241.744L375.506 250H377.762V239.504H375.938ZM380.139 239.504V250H383.963C386.811 250 389.195 248.304 389.195 244.752C389.195 241.2 386.811 239.504 383.963 239.504H380.139ZM383.963 241.152C385.739 241.152 387.227 242.32 387.227 244.752C387.227 247.2 385.739 248.352 383.963 248.352H381.979V241.152H383.963ZM391.076 239.504V250H392.916V239.504H391.076ZM402.86 239.504V247.552L397.676 239.504H395.42V250H397.26V241.744L402.428 250H404.684V239.504H402.86ZM414.805 246.048V246.16C414.628 247.488 413.557 248.416 411.893 248.416C410.165 248.416 408.421 247.376 408.421 244.784C408.421 242.32 409.877 241.088 411.797 241.088C413.269 241.088 414.517 241.648 414.757 243.392L416.597 243.104C416.197 240.192 413.669 239.296 411.909 239.296C408.773 239.296 406.453 241.536 406.453 244.784C406.453 247.904 408.741 250.208 411.397 250.208C413.093 250.208 414.293 249.152 414.852 248.032H414.869L415.189 250H416.741V244.4H412.053V246.048H414.805Z" fill="#161225"/>
<path d="M704 235C704 232.239 706.239 230 709 230H762C764.761 230 767 232.239 767 235V252C767 254.761 764.761 257 762 257H709C706.239 257 704 254.761 704 252V235Z" fill="#F6F6F9"/>
<path d="M721.725 239.504V250H725.549C728.397 250 730.781 248.304 730.781 244.752C730.781 241.2 728.397 239.504 725.549 239.504H721.725ZM725.549 241.152C727.325 241.152 728.813 242.32 728.813 244.752C728.813 247.2 727.325 248.352 725.549 248.352H723.565V241.152H725.549ZM738.902 239.504V246.24C738.902 247.904 737.926 248.416 736.598 248.416C735.27 248.416 734.31 247.904 734.31 246.24V239.504H732.47V246.32C732.47 248.976 734.326 250.208 736.598 250.208C738.87 250.208 740.726 248.976 740.726 246.32V239.504H738.902ZM743.037 239.504V250H749.837V248.352H744.877V245.52H749.149V243.872H744.877V241.152H749.709V239.504H743.037Z" fill="#161225"/>
<path d="M1136 430C1136 427.239 1138.24 425 1141 425H1214C1216.76 425 1219 427.239 1219 430V447C1219 449.761 1216.76 452 1214 452H1141C1138.24 452 1136 449.761 1136 447V430Z" fill="#F6F6F9"/>
<path d="M1153.68 434.504V445H1155.52V440.792H1160.01V439.144H1155.52V436.152H1160.57V434.504H1153.68ZM1164.32 434.504L1160.67 445H1162.56L1163.23 442.92H1167.54L1168.21 445H1170.1L1166.45 434.504H1164.32ZM1163.76 441.256L1165.38 436.024L1167.01 441.256H1163.76ZM1171.66 434.504V445H1173.5V434.504H1171.66ZM1176.01 434.504V445H1182.49V443.368H1177.85V434.504H1176.01ZM1184.15 434.504V445H1190.95V443.352H1185.99V440.52H1190.26V438.872H1185.99V436.152H1190.82V434.504H1184.15ZM1192.88 434.504V445H1196.7C1199.55 445 1201.94 443.304 1201.94 439.752C1201.94 436.2 1199.55 434.504 1196.7 434.504H1192.88ZM1196.7 436.152C1198.48 436.152 1199.97 437.32 1199.97 439.752C1199.97 442.2 1198.48 443.352 1196.7 443.352H1194.72V436.152H1196.7Z" fill="#161225"/>
<path d="M1122 295C1122 292.239 1124.24 290 1127 290H1224C1226.76 290 1229 292.239 1229 295V312C1229 314.761 1226.76 317 1224 317H1127C1124.24 317 1122 314.761 1122 312V295Z" fill="#F6F6F9"/>
<path d="M1149.43 303.248C1149.01 300.672 1146.8 299.296 1144.6 299.296C1141.6 299.296 1139.12 301.456 1139.12 304.672C1139.12 308.128 1141.64 310.208 1144.64 310.208C1146.68 310.208 1149.2 308.848 1149.51 305.968L1147.62 305.68C1147.48 307.776 1146.04 308.416 1144.64 308.416C1142.66 308.416 1141.09 307.28 1141.09 304.672C1141.09 302.32 1142.66 301.088 1144.53 301.088C1145.81 301.088 1147.24 301.616 1147.54 303.536L1149.43 303.248ZM1151.39 299.504V310H1153.23V305.504H1158.44V310H1160.28V299.504H1158.44V303.872H1153.23V299.504H1151.39ZM1165.5 299.504L1161.85 310H1163.74L1164.41 307.92H1168.72L1169.39 310H1171.28L1167.63 299.504H1165.5ZM1164.94 306.256L1166.56 301.024L1168.19 306.256H1164.94ZM1172.84 299.504V310H1174.68V306H1176.01C1177.16 306 1177.8 306.448 1177.98 307.408L1178.27 309.04C1178.36 309.552 1178.59 309.824 1178.86 310H1181.07C1180.67 309.76 1180.36 309.344 1180.23 308.848L1179.8 307.152C1179.56 306.176 1179.07 305.696 1178.38 305.424C1179.34 304.848 1180.09 303.888 1180.09 302.672C1180.09 300.72 1178.78 299.504 1176.49 299.504H1172.84ZM1176.44 301.136C1177.42 301.136 1178.14 301.712 1178.14 302.768C1178.14 303.68 1177.5 304.352 1176.46 304.352H1174.68V301.136H1176.44ZM1189.77 306.048V306.16C1189.6 307.488 1188.53 308.416 1186.86 308.416C1185.13 308.416 1183.39 307.376 1183.39 304.784C1183.39 302.32 1184.85 301.088 1186.77 301.088C1188.24 301.088 1189.49 301.648 1189.73 303.392L1191.57 303.104C1191.17 300.192 1188.64 299.296 1186.88 299.296C1183.74 299.296 1181.42 301.536 1181.42 304.784C1181.42 307.904 1183.71 310.208 1186.37 310.208C1188.06 310.208 1189.26 309.152 1189.82 308.032H1189.84L1190.16 310H1191.71V304.4H1187.02V306.048H1189.77ZM1194.09 299.504V310H1200.89V308.352H1195.93V305.52H1200.2V303.872H1195.93V301.152H1200.76V299.504H1194.09ZM1202.83 299.504V310H1206.65C1209.5 310 1211.88 308.304 1211.88 304.752C1211.88 301.2 1209.5 299.504 1206.65 299.504H1202.83ZM1206.65 301.152C1208.43 301.152 1209.91 302.32 1209.91 304.752C1209.91 307.2 1208.43 308.352 1206.65 308.352H1204.67V301.152H1206.65Z" fill="#161225"/>
<path d="M1230 161C1230 158.239 1232.24 156 1235 156H1337C1339.76 156 1342 158.239 1342 161V178C1342 180.761 1339.76 183 1337 183H1235C1232.24 183 1230 180.761 1230 178V161Z" fill="#F6F6F9"/>
<path d="M1247.62 165.504V176H1249.46V172H1250.78C1251.94 172 1252.58 172.448 1252.75 173.408L1253.04 175.04C1253.14 175.552 1253.36 175.824 1253.63 176H1255.84C1255.44 175.76 1255.14 175.344 1255.01 174.848L1254.58 173.152C1254.34 172.176 1253.84 171.696 1253.15 171.424C1254.11 170.848 1254.86 169.888 1254.86 168.672C1254.86 166.72 1253.55 165.504 1251.26 165.504H1247.62ZM1251.22 167.136C1252.19 167.136 1252.91 167.712 1252.91 168.768C1252.91 169.68 1252.27 170.352 1251.23 170.352H1249.46V167.136H1251.22ZM1256.96 165.504V176H1263.76V174.352H1258.8V171.52H1263.07V169.872H1258.8V167.152H1263.63V165.504H1256.96ZM1265.69 165.504V176H1267.53V171.792H1272.03V170.144H1267.53V167.152H1272.59V165.504H1265.69ZM1280.5 165.504V172.24C1280.5 173.904 1279.52 174.416 1278.19 174.416C1276.86 174.416 1275.9 173.904 1275.9 172.24V165.504H1274.06V172.32C1274.06 174.976 1275.92 176.208 1278.19 176.208C1280.46 176.208 1282.32 174.976 1282.32 172.32V165.504H1280.5ZM1292.07 165.504V173.552L1286.89 165.504H1284.63V176H1286.47V167.744L1291.64 176H1293.89V165.504H1292.07ZM1296.27 165.504V176H1300.1C1302.94 176 1305.33 174.304 1305.33 170.752C1305.33 167.2 1302.94 165.504 1300.1 165.504H1296.27ZM1300.1 167.152C1301.87 167.152 1303.36 168.32 1303.36 170.752C1303.36 173.2 1301.87 174.352 1300.1 174.352H1298.11V167.152H1300.1ZM1307.21 165.504V176H1314.01V174.352H1309.05V171.52H1313.32V169.872H1309.05V167.152H1313.88V165.504H1307.21ZM1315.94 165.504V176H1319.77C1322.62 176 1325 174.304 1325 170.752C1325 167.2 1322.62 165.504 1319.77 165.504H1315.94ZM1319.77 167.152C1321.54 167.152 1323.03 168.32 1323.03 170.752C1323.03 173.2 1321.54 174.352 1319.77 174.352H1317.78V167.152H1319.77Z" fill="#161225"/>
<path d="M487.599 224.404C487.059 221.506 484.791 219.958 482.307 219.958C478.995 219.958 476.259 222.388 476.259 226.006C476.259 229.894 478.959 232.234 482.379 232.234C484.719 232.234 487.347 230.704 487.689 227.464L486.069 227.176C485.889 229.84 484.089 230.668 482.379 230.668C479.895 230.668 477.951 229.21 477.951 226.006C477.951 223.126 479.895 221.524 482.253 221.524C483.837 221.524 485.565 222.244 485.979 224.692L487.599 224.404ZM489.808 219.796V232H491.302V226.762C491.302 224.908 492.382 224.062 493.858 224.062C494.992 224.062 495.892 224.674 495.892 226.402V232H497.386V225.916C497.386 223.486 495.946 222.676 494.29 222.676C493.264 222.676 491.914 223.162 491.302 224.332V219.796H489.808ZM503.492 232.234C505.184 232.234 506.174 231.136 506.606 229.966V232H508.1V222.928H506.606V224.818C505.976 223.306 504.968 222.676 503.438 222.676C501.566 222.676 499.442 224.224 499.442 227.446C499.442 230.704 501.584 232.234 503.492 232.234ZM503.744 224.008C505.256 224.008 506.606 225.124 506.606 227.482C506.606 229.912 505.274 230.902 503.744 230.902C502.376 230.902 500.954 229.858 500.954 227.482C500.954 225.088 502.376 224.008 503.744 224.008ZM514.898 224.296C515.384 224.296 515.69 224.368 515.978 224.458L516.158 222.82C515.942 222.73 515.654 222.676 515.33 222.676C514.502 222.676 513.062 223.144 512.36 224.98V222.928H510.866V232H512.36V228.004C512.36 225.178 513.602 224.296 514.898 224.296ZM520.769 231.568C522.407 231.568 523.271 230.56 523.721 229.534V230.938C523.721 233.008 522.929 233.908 521.003 233.908C519.725 233.908 518.555 233.458 518.321 232L516.845 232.198C517.295 234.484 519.257 235.276 520.895 235.276C523.631 235.276 525.233 233.764 525.233 230.92V222.928H523.721V224.62C523.127 223.342 522.155 222.676 520.877 222.676C518.789 222.676 516.827 224.062 516.827 226.942C516.827 230.11 518.861 231.568 520.769 231.568ZM521.021 224.008C522.515 224.008 523.721 225.106 523.721 227.068C523.721 229.228 522.497 230.236 520.967 230.236C519.527 230.236 518.339 229.192 518.339 226.978C518.339 224.998 519.617 224.008 521.021 224.008ZM531.731 224.008C533.243 224.008 534.395 224.764 534.503 226.492H528.905C529.175 224.836 530.219 224.008 531.731 224.008ZM535.943 227.698V227.158C535.943 224.422 534.233 222.676 531.767 222.676C529.283 222.676 527.321 224.512 527.321 227.428C527.321 230.416 529.355 232.234 531.911 232.234C533.549 232.234 535.511 231.316 535.853 229.246L534.485 228.94C534.215 230.128 533.549 230.902 531.893 230.902C529.931 230.902 528.923 229.588 528.833 227.698H535.943ZM541.742 222.928L545.36 232H546.728L550.346 222.928H548.672L546.044 230.164L543.434 222.928H541.742ZM551.964 222.928V232H553.476V222.928H551.964ZM552.72 219.13C552.144 219.13 551.712 219.562 551.712 220.138C551.712 220.714 552.144 221.128 552.72 221.128C553.278 221.128 553.71 220.714 553.71 220.138C553.71 219.562 553.278 219.13 552.72 219.13ZM555.911 225.358C555.911 226.618 556.613 227.464 558.089 227.824L559.727 228.238C560.969 228.526 561.275 228.886 561.275 229.57C561.275 230.398 560.483 230.956 559.259 230.956C557.873 230.956 556.991 230.2 556.775 228.922L555.443 229.21C555.767 231.352 557.639 232.234 559.259 232.234C560.969 232.234 562.733 231.334 562.733 229.318C562.733 228.094 561.995 227.32 560.483 226.978L558.611 226.528C557.675 226.33 557.369 225.808 557.369 225.268C557.369 224.494 558.035 223.954 559.079 223.954C560.249 223.954 561.113 224.404 561.275 225.826L562.625 225.538C562.139 223.432 560.807 222.676 559.079 222.676C557.639 222.676 555.911 223.504 555.911 225.358ZM564.743 222.928V232H566.255V222.928H564.743ZM565.499 219.13C564.923 219.13 564.491 219.562 564.491 220.138C564.491 220.714 564.923 221.128 565.499 221.128C566.057 221.128 566.489 220.714 566.489 220.138C566.489 219.562 566.057 219.13 565.499 219.13ZM569.032 219.796V232H570.526V230.362C571.138 231.478 572.2 232.234 573.478 232.234C575.638 232.234 577.708 230.632 577.708 227.32C577.708 224.152 575.53 222.676 573.658 222.676C572.002 222.676 571.012 223.792 570.526 224.656V219.796H569.032ZM573.37 224.008C574.738 224.008 576.196 225.106 576.196 227.356C576.196 229.768 574.756 230.902 573.352 230.902C571.876 230.902 570.526 229.678 570.526 227.428C570.526 225.088 571.876 224.008 573.37 224.008ZM579.773 219.796V232H581.267V219.796H579.773ZM587.77 224.008C589.282 224.008 590.434 224.764 590.542 226.492H584.944C585.214 224.836 586.258 224.008 587.77 224.008ZM591.982 227.698V227.158C591.982 224.422 590.272 222.676 587.806 222.676C585.322 222.676 583.36 224.512 583.36 227.428C583.36 230.416 585.394 232.234 587.95 232.234C589.588 232.234 591.55 231.316 591.892 229.246L590.524 228.94C590.254 230.128 589.588 230.902 587.932 230.902C585.97 230.902 584.962 229.588 584.872 227.698H591.982ZM598.915 222.928V232H600.427V222.928H598.915ZM599.671 219.13C599.095 219.13 598.663 219.562 598.663 220.138C598.663 220.714 599.095 221.128 599.671 221.128C600.229 221.128 600.661 220.714 600.661 220.138C600.661 219.562 600.229 219.13 599.671 219.13ZM607.236 224.062C608.388 224.062 609.288 224.674 609.288 226.348V232H610.782V225.916C610.782 223.486 609.306 222.676 607.686 222.676C606.624 222.676 605.31 223.162 604.698 224.332V222.928H603.204V232H604.698V226.762C604.698 224.908 605.76 224.062 607.236 224.062ZM623.252 232L627.662 220.192H625.988L622.514 230.074L619.004 220.192H617.276L621.686 232H623.252ZM629.519 222.928V232H631.031V222.928H629.519ZM630.275 219.13C629.699 219.13 629.267 219.562 629.267 220.138C629.267 220.714 629.699 221.128 630.275 221.128C630.833 221.128 631.265 220.714 631.265 220.138C631.265 219.562 630.833 219.13 630.275 219.13ZM638.506 222.676C636.85 222.676 635.824 223.756 635.302 224.692V222.928H633.808V235.15H635.302V230.236C636.004 231.496 637.102 232.234 638.326 232.234C640.468 232.234 642.556 230.632 642.556 227.32C642.556 224.152 640.378 222.676 638.506 222.676ZM638.164 224.008C639.55 224.008 641.044 225.106 641.044 227.356C641.044 229.768 639.568 230.902 638.146 230.902C636.652 230.902 635.302 229.678 635.302 227.428C635.302 225.088 636.652 224.008 638.164 224.008ZM649.316 222.676C647.66 222.676 646.634 223.756 646.112 224.692V222.928H644.618V235.15H646.112V230.236C646.814 231.496 647.912 232.234 649.136 232.234C651.278 232.234 653.366 230.632 653.366 227.32C653.366 224.152 651.188 222.676 649.316 222.676ZM648.974 224.008C650.36 224.008 651.854 225.106 651.854 227.356C651.854 229.768 650.378 230.902 648.956 230.902C647.462 230.902 646.112 229.678 646.112 227.428C646.112 225.088 647.462 224.008 648.974 224.008ZM655.087 225.358C655.087 226.618 655.789 227.464 657.265 227.824L658.903 228.238C660.145 228.526 660.451 228.886 660.451 229.57C660.451 230.398 659.659 230.956 658.435 230.956C657.049 230.956 656.167 230.2 655.951 228.922L654.619 229.21C654.943 231.352 656.815 232.234 658.435 232.234C660.145 232.234 661.909 231.334 661.909 229.318C661.909 228.094 661.171 227.32 659.659 226.978L657.787 226.528C656.851 226.33 656.545 225.808 656.545 225.268C656.545 224.494 657.211 223.954 658.255 223.954C659.425 223.954 660.289 224.404 660.451 225.826L661.801 225.538C661.315 223.432 659.983 222.676 658.255 222.676C656.815 222.676 655.087 223.504 655.087 225.358Z" fill="#161225"/>
<rect x="550" y="129" width="34" height="72" fill="#DBD8E8"/>
<path fill-rule="evenodd" clip-rule="evenodd" d="M553.429 124H580.571C583.57 124 586 127.175 586 131.091V194.909C586 198.825 583.57 202 580.571 202H553.429C550.43 202 548 198.825 548 194.909V131.091C548 127.175 550.43 124 553.429 124ZM552 131C551.448 131 551 131.448 551 132V194C551 194.552 551.448 195 552 195H582C582.552 195 583 194.552 583 194V132C583 131.448 582.552 131 582 131H552ZM562.5 197C561.672 197 561 197.672 561 198.5C561 199.328 561.672 200 562.5 200H571.5C572.328 200 573 199.328 573 198.5C573 197.672 572.328 197 571.5 197H562.5Z" fill="#49367E"/>
<path fill-rule="evenodd" clip-rule="evenodd" d="M553.429 124H580.571C583.57 124 586 127.175 586 131.091V194.909C586 198.825 583.57 202 580.571 202H553.429C550.43 202 548 198.825 548 194.909V131.091C548 127.175 550.43 124 553.429 124ZM552 131C551.448 131 551 131.448 551 132V194C551 194.552 551.448 195 552 195H582C582.552 195 583 194.552 583 194V132C583 131.448 582.552 131 582 131H552ZM562.5 197C561.672 197 561 197.672 561 198.5C561 199.328 561.672 200 562.5 200H571.5C572.328 200 573 199.328 573 198.5C573 197.672 572.328 197 571.5 197H562.5Z" fill="#541B86"/>
<path d="M839.215 182.816V192H840.447V188.36H841.791C842.813 188.36 843.429 188.598 843.681 189.718L843.961 191.062C844.087 191.594 844.283 191.832 844.521 192H846.005C845.655 191.776 845.375 191.426 845.263 191.006L844.787 189.256C844.619 188.584 844.255 188.136 843.639 187.898C844.465 187.436 845.151 186.61 845.151 185.518C845.151 183.894 844.101 182.816 842.281 182.816H839.215ZM842.211 183.936C843.107 183.936 843.849 184.426 843.849 185.546C843.849 186.638 843.177 187.24 842.225 187.24H840.447V183.936H842.211ZM849.767 185.784C850.943 185.784 851.839 186.372 851.923 187.716H847.569C847.779 186.428 848.591 185.784 849.767 185.784ZM853.043 188.654V188.234C853.043 186.106 851.713 184.748 849.795 184.748C847.863 184.748 846.337 186.176 846.337 188.444C846.337 190.768 847.919 192.182 849.907 192.182C851.181 192.182 852.707 191.468 852.973 189.858L851.909 189.62C851.699 190.544 851.181 191.146 849.893 191.146C848.367 191.146 847.583 190.124 847.513 188.654H853.043ZM855.082 183.222V184.944H853.696V185.924H855.082V190.362C855.082 191.468 855.684 192.182 856.958 192.182C857.308 192.182 857.756 192.084 858.078 191.986L857.854 191.006C857.616 191.062 857.448 191.104 857.112 191.104C856.496 191.104 856.244 190.838 856.244 190.32V185.924H858.092V184.944H856.244V182.998L855.082 183.222ZM862.775 186.008C863.153 186.008 863.391 186.064 863.615 186.134L863.755 184.86C863.587 184.79 863.363 184.748 863.111 184.748C862.467 184.748 861.347 185.112 860.801 186.54V184.944H859.639V192H860.801V188.892C860.801 186.694 861.767 186.008 862.775 186.008ZM865.516 194.408C866.72 194.408 867.434 193.82 867.91 192.546L870.766 184.944H869.464L867.49 190.88L865.39 184.944H864.074L866.664 191.426C867.084 192.476 866.664 193.4 865.6 193.4C865.11 193.4 864.76 193.26 864.564 193.162L864.368 194.156C864.634 194.282 865.068 194.408 865.516 194.408ZM882.056 187.688C881.846 185.812 880.362 184.748 878.738 184.748C876.778 184.748 875.294 186.176 875.294 188.458C875.294 190.642 876.778 192.182 878.892 192.182C880.194 192.182 881.72 191.44 882.042 189.284L880.992 189.074C880.824 190.432 880.082 191.146 878.892 191.146C877.24 191.146 876.47 189.914 876.47 188.458C876.47 186.708 877.45 185.784 878.668 185.784C879.774 185.784 880.74 186.386 880.894 187.884L882.056 187.688ZM883.551 182.508V192H884.713V187.926C884.713 186.484 885.553 185.826 886.701 185.826C887.583 185.826 888.283 186.302 888.283 187.646V192H889.445V187.268C889.445 185.378 888.325 184.748 887.037 184.748C886.239 184.748 885.189 185.126 884.713 186.036V182.508H883.551ZM894.194 192.182C895.51 192.182 896.28 191.328 896.616 190.418V192H897.778V184.944H896.616V186.414C896.126 185.238 895.342 184.748 894.152 184.748C892.696 184.748 891.044 185.952 891.044 188.458C891.044 190.992 892.71 192.182 894.194 192.182ZM894.39 185.784C895.566 185.784 896.616 186.652 896.616 188.486C896.616 190.376 895.58 191.146 894.39 191.146C893.326 191.146 892.22 190.334 892.22 188.486C892.22 186.624 893.326 185.784 894.39 185.784ZM903.066 186.008C903.444 186.008 903.682 186.064 903.906 186.134L904.046 184.86C903.878 184.79 903.654 184.748 903.402 184.748C902.758 184.748 901.638 185.112 901.092 186.54V184.944H899.93V192H901.092V188.892C901.092 186.694 902.058 186.008 903.066 186.008ZM907.632 191.664C908.906 191.664 909.578 190.88 909.928 190.082V191.174C909.928 192.784 909.312 193.484 907.814 193.484C906.82 193.484 905.91 193.134 905.728 192L904.58 192.154C904.93 193.932 906.456 194.548 907.73 194.548C909.858 194.548 911.104 193.372 911.104 191.16V184.944H909.928V186.26C909.466 185.266 908.71 184.748 907.716 184.748C906.092 184.748 904.566 185.826 904.566 188.066C904.566 190.53 906.148 191.664 907.632 191.664ZM907.828 185.784C908.99 185.784 909.928 186.638 909.928 188.164C909.928 189.844 908.976 190.628 907.786 190.628C906.666 190.628 905.742 189.816 905.742 188.094C905.742 186.554 906.736 185.784 907.828 185.784ZM916.158 185.784C917.334 185.784 918.23 186.372 918.314 187.716H913.96C914.17 186.428 914.982 185.784 916.158 185.784ZM919.434 188.654V188.234C919.434 186.106 918.104 184.748 916.186 184.748C914.254 184.748 912.728 186.176 912.728 188.444C912.728 190.768 914.31 192.182 916.298 192.182C917.572 192.182 919.098 191.468 919.364 189.858L918.3 189.62C918.09 190.544 917.572 191.146 916.284 191.146C914.758 191.146 913.974 190.124 913.904 188.654H919.434Z" fill="#161225"/>
<circle cx="911.5" cy="264.5" r="5.5" fill="#FF5B24"/>
</svg>
