<svg width="407" height="617" viewBox="0 0 407 617" fill="none" xmlns="http://www.w3.org/2000/svg">
<rect y="0.17627" width="406.381" height="616" rx="1" fill="#FFF4EC"/>
<g filter="url(#filter0_di)">
<rect x="75" y="48.1763" width="256.381" height="520" rx="30.1624" fill="white"/>
</g>
<g clip-path="url(#clip0)">
<rect x="90.0815" y="63.2574" width="226.218" height="489.838" fill="#938FA8"/>
<g clip-path="url(#clip1)">
<rect x="90.0815" y="63.2574" width="226.218" height="489.838" fill="white"/>
<g filter="url(#filter1_dd)">
<rect x="90.0815" y="119.963" width="226.218" height="44.6404" fill="white"/>
</g>
<path fill-rule="evenodd" clip-rule="evenodd" d="M103.552 133.234C102.776 133.234 102.146 133.864 102.146 134.64V147.308C102.146 148.084 102.776 148.714 103.552 148.714H108.125L109.385 149.968C109.517 150.101 109.696 150.176 109.883 150.176C110.07 150.176 110.249 150.101 110.381 149.968L111.642 148.708H116.214C116.991 148.708 117.62 148.078 117.62 147.302V134.634C117.616 133.86 116.988 133.234 116.214 133.234H103.552ZM106.768 137.457H113.005C113.32 137.456 113.583 137.698 113.609 138.012L114.109 144.044C114.123 144.213 114.065 144.379 113.951 144.503C113.836 144.626 113.675 144.697 113.506 144.696H106.267C106.098 144.697 105.937 144.626 105.822 144.503C105.708 144.379 105.65 144.213 105.664 144.044L106.164 138.012C106.19 137.698 106.452 137.456 106.768 137.457ZM107.473 139.267C107.473 138.934 107.743 138.663 108.076 138.663C108.41 138.663 108.68 138.934 108.68 139.267V139.87C108.68 140.536 109.22 141.076 109.886 141.076C110.553 141.076 111.093 140.536 111.093 139.87V139.267C111.093 138.934 111.363 138.663 111.696 138.663C112.029 138.663 112.299 138.934 112.299 139.267V139.87C112.299 141.203 111.219 142.283 109.886 142.283C108.554 142.283 107.473 141.203 107.473 139.87V139.267Z" fill="#6770E0"/>
<path d="M129.536 144.047H126.214L125.519 146.044H123.969L127.209 137.467H128.547L131.793 146.044H130.237L129.536 144.047ZM126.632 142.845H129.118L127.875 139.287L126.632 142.845ZM134.585 144.23L135.934 139.67H137.413L135.204 146.044H133.961L131.734 139.67H133.218L134.585 144.23ZM139.834 146.044H138.403V139.67H139.834V146.044ZM138.314 138.015C138.314 137.795 138.383 137.612 138.52 137.467C138.662 137.321 138.862 137.249 139.121 137.249C139.38 137.249 139.581 137.321 139.722 137.467C139.863 137.612 139.934 137.795 139.934 138.015C139.934 138.231 139.863 138.411 139.722 138.556C139.581 138.698 139.38 138.769 139.121 138.769C138.862 138.769 138.662 138.698 138.52 138.556C138.383 138.411 138.314 138.231 138.314 138.015ZM144.971 144.312C144.971 144.057 144.865 143.862 144.653 143.729C144.445 143.595 144.097 143.478 143.61 143.375C143.123 143.273 142.717 143.144 142.391 142.987C141.676 142.641 141.319 142.14 141.319 141.484C141.319 140.935 141.55 140.475 142.014 140.106C142.477 139.737 143.066 139.552 143.781 139.552C144.543 139.552 145.158 139.741 145.625 140.118C146.096 140.495 146.332 140.984 146.332 141.585H144.9C144.9 141.31 144.798 141.082 144.594 140.901C144.39 140.717 144.119 140.624 143.781 140.624C143.467 140.624 143.21 140.697 143.009 140.842C142.813 140.988 142.715 141.182 142.715 141.425C142.715 141.645 142.807 141.816 142.992 141.938C143.176 142.06 143.549 142.183 144.111 142.309C144.673 142.431 145.112 142.578 145.431 142.751C145.753 142.92 145.99 143.124 146.143 143.364C146.301 143.603 146.379 143.894 146.379 144.236C146.379 144.809 146.141 145.274 145.666 145.632C145.191 145.985 144.569 146.162 143.799 146.162C143.276 146.162 142.811 146.068 142.403 145.879C141.994 145.691 141.676 145.431 141.448 145.101C141.22 144.772 141.107 144.416 141.107 144.035H142.497C142.516 144.373 142.644 144.634 142.88 144.819C143.115 144.999 143.428 145.09 143.816 145.09C144.193 145.09 144.48 145.019 144.677 144.878C144.873 144.732 144.971 144.544 144.971 144.312ZM150.438 146.162C149.531 146.162 148.794 145.877 148.229 145.308C147.667 144.734 147.386 143.972 147.386 143.022V142.845C147.386 142.209 147.508 141.641 147.752 141.143C147.999 140.64 148.345 140.249 148.789 139.97C149.232 139.692 149.727 139.552 150.273 139.552C151.141 139.552 151.811 139.829 152.282 140.383C152.757 140.936 152.995 141.72 152.995 142.733V143.311H148.83C148.873 143.837 149.048 144.253 149.354 144.56C149.664 144.866 150.053 145.019 150.52 145.019C151.176 145.019 151.71 144.754 152.123 144.224L152.895 144.96C152.639 145.341 152.298 145.638 151.87 145.85C151.445 146.058 150.968 146.162 150.438 146.162ZM150.267 140.701C149.874 140.701 149.556 140.838 149.313 141.113C149.073 141.388 148.92 141.771 148.853 142.262H151.581V142.156C151.549 141.677 151.422 141.315 151.198 141.072C150.974 140.825 150.664 140.701 150.267 140.701ZM155.44 139.67L155.481 140.406C155.952 139.837 156.571 139.552 157.336 139.552C158.664 139.552 159.339 140.312 159.363 141.832V146.044H157.931V141.914C157.931 141.51 157.843 141.211 157.666 141.019C157.494 140.823 157.209 140.724 156.812 140.724C156.235 140.724 155.805 140.986 155.522 141.508V146.044H154.09V139.67H155.44ZM168.771 144.047H165.449L164.753 146.044H163.204L166.444 137.467H167.781L171.027 146.044H169.472L168.771 144.047ZM165.867 142.845H168.353L167.11 139.287L165.867 142.845ZM176.488 143.835C176.488 143.458 176.355 143.167 176.088 142.963C175.825 142.759 175.348 142.553 174.656 142.344C173.965 142.136 173.415 141.905 173.007 141.649C172.225 141.158 171.834 140.518 171.834 139.729C171.834 139.038 172.115 138.468 172.677 138.02C173.242 137.573 173.975 137.349 174.874 137.349C175.471 137.349 176.003 137.459 176.471 137.679C176.938 137.899 177.305 138.213 177.572 138.621C177.839 139.026 177.973 139.475 177.973 139.97H176.488C176.488 139.523 176.347 139.173 176.064 138.922C175.785 138.666 175.385 138.539 174.862 138.539C174.375 138.539 173.997 138.643 173.726 138.851C173.458 139.059 173.325 139.35 173.325 139.723C173.325 140.037 173.47 140.3 173.761 140.512C174.051 140.72 174.531 140.925 175.198 141.125C175.866 141.321 176.402 141.547 176.807 141.802C177.211 142.054 177.508 142.344 177.696 142.674C177.885 143 177.979 143.383 177.979 143.823C177.979 144.538 177.704 145.107 177.154 145.532C176.608 145.952 175.866 146.162 174.927 146.162C174.307 146.162 173.735 146.048 173.213 145.82C172.695 145.588 172.29 145.27 171.999 144.866C171.713 144.461 171.569 143.99 171.569 143.452H173.06C173.06 143.939 173.221 144.316 173.543 144.583C173.865 144.85 174.326 144.984 174.927 144.984C175.446 144.984 175.835 144.88 176.094 144.671C176.357 144.459 176.488 144.181 176.488 143.835Z" fill="black"/>
<path d="M108.964 225.274L111.332 220.396H113.311L109.862 226.9V230.689H108.066V226.9L104.609 220.396H106.596L108.964 225.274ZM113.474 226.794C113.474 226.044 113.622 225.37 113.919 224.772C114.216 224.169 114.633 223.707 115.171 223.386C115.708 223.061 116.325 222.899 117.023 222.899C118.055 222.899 118.891 223.231 119.532 223.895C120.178 224.56 120.527 225.441 120.579 226.539L120.586 226.942C120.586 227.696 120.44 228.37 120.147 228.964C119.86 229.558 119.445 230.017 118.903 230.343C118.366 230.668 117.744 230.83 117.037 230.83C115.958 230.83 115.093 230.472 114.442 229.756C113.797 229.035 113.474 228.076 113.474 226.879V226.794ZM115.192 226.942C115.192 227.729 115.354 228.347 115.68 228.794C116.005 229.237 116.457 229.459 117.037 229.459C117.617 229.459 118.067 229.233 118.387 228.78C118.712 228.328 118.875 227.666 118.875 226.794C118.875 226.021 118.708 225.408 118.373 224.956C118.043 224.503 117.593 224.277 117.023 224.277C116.462 224.277 116.017 224.501 115.687 224.949C115.357 225.392 115.192 226.056 115.192 226.942ZM126.672 229.94C126.168 230.533 125.452 230.83 124.523 230.83C123.694 230.83 123.065 230.588 122.636 230.102C122.212 229.617 122 228.915 122 227.996V223.04H123.717V227.974C123.717 228.945 124.12 229.431 124.926 229.431C125.76 229.431 126.324 229.131 126.616 228.533V223.04H128.334V230.689H126.715L126.672 229.94ZM134.088 224.609C133.862 224.572 133.629 224.553 133.388 224.553C132.601 224.553 132.071 224.854 131.798 225.458V230.689H130.08V223.04H131.72L131.762 223.895C132.177 223.231 132.752 222.899 133.487 222.899C133.732 222.899 133.935 222.932 134.095 222.998L134.088 224.609ZM143.066 228.611C143.066 228.304 142.939 228.071 142.684 227.911C142.435 227.75 142.018 227.609 141.433 227.487C140.849 227.364 140.361 227.209 139.97 227.02C139.112 226.605 138.683 226.004 138.683 225.217C138.683 224.558 138.961 224.006 139.517 223.563C140.073 223.12 140.78 222.899 141.638 222.899C142.552 222.899 143.29 223.125 143.851 223.577C144.416 224.03 144.699 224.616 144.699 225.337H142.981C142.981 225.008 142.859 224.734 142.614 224.517C142.369 224.296 142.043 224.185 141.638 224.185C141.261 224.185 140.952 224.272 140.712 224.447C140.476 224.621 140.359 224.854 140.359 225.147C140.359 225.411 140.469 225.616 140.691 225.762C140.912 225.908 141.36 226.056 142.034 226.207C142.708 226.353 143.236 226.53 143.618 226.737C144.004 226.94 144.289 227.185 144.473 227.472C144.661 227.76 144.756 228.109 144.756 228.519C144.756 229.207 144.471 229.765 143.9 230.194C143.33 230.618 142.583 230.83 141.659 230.83C141.033 230.83 140.474 230.717 139.984 230.491C139.494 230.265 139.112 229.954 138.839 229.558C138.565 229.162 138.429 228.735 138.429 228.278H140.097C140.121 228.684 140.274 228.997 140.557 229.219C140.839 229.435 141.214 229.544 141.681 229.544C142.133 229.544 142.477 229.459 142.713 229.289C142.948 229.115 143.066 228.889 143.066 228.611ZM150.892 229.94C150.388 230.533 149.671 230.83 148.743 230.83C147.913 230.83 147.284 230.588 146.855 230.102C146.431 229.617 146.219 228.915 146.219 227.996V223.04H147.937V227.974C147.937 228.945 148.34 229.431 149.146 229.431C149.98 229.431 150.543 229.131 150.835 228.533V223.04H152.553V230.689H150.934L150.892 229.94ZM161.015 226.942C161.015 228.13 160.749 229.075 160.216 229.777C159.688 230.479 158.96 230.83 158.032 230.83C157.136 230.83 156.439 230.508 155.939 229.862L155.855 230.689H154.299V219.83H156.017V223.775C156.512 223.191 157.179 222.899 158.018 222.899C158.951 222.899 159.684 223.245 160.216 223.938C160.749 224.631 161.015 225.599 161.015 226.843V226.942ZM159.297 226.794C159.297 225.964 159.151 225.342 158.859 224.927C158.567 224.513 158.143 224.305 157.587 224.305C156.842 224.305 156.319 224.631 156.017 225.281V228.434C156.323 229.098 156.851 229.431 157.601 229.431C158.138 229.431 158.553 229.23 158.845 228.83C159.137 228.429 159.288 227.824 159.297 227.013V226.794ZM166.748 228.611C166.748 228.304 166.621 228.071 166.367 227.911C166.117 227.75 165.7 227.609 165.115 227.487C164.531 227.364 164.043 227.209 163.652 227.02C162.794 226.605 162.365 226.004 162.365 225.217C162.365 224.558 162.643 224.006 163.2 223.563C163.756 223.12 164.463 222.899 165.32 222.899C166.235 222.899 166.972 223.125 167.533 223.577C168.099 224.03 168.381 224.616 168.381 225.337H166.664C166.664 225.008 166.541 224.734 166.296 224.517C166.051 224.296 165.726 224.185 165.32 224.185C164.943 224.185 164.635 224.272 164.394 224.447C164.159 224.621 164.041 224.854 164.041 225.147C164.041 225.411 164.152 225.616 164.373 225.762C164.595 225.908 165.042 226.056 165.716 226.207C166.39 226.353 166.918 226.53 167.3 226.737C167.686 226.94 167.971 227.185 168.155 227.472C168.344 227.76 168.438 228.109 168.438 228.519C168.438 229.207 168.153 229.765 167.583 230.194C167.012 230.618 166.265 230.83 165.342 230.83C164.715 230.83 164.156 230.717 163.666 230.491C163.176 230.265 162.794 229.954 162.521 229.558C162.248 229.162 162.111 228.735 162.111 228.278H163.779C163.803 228.684 163.956 228.997 164.239 229.219C164.522 229.435 164.896 229.544 165.363 229.544C165.815 229.544 166.159 229.459 166.395 229.289C166.631 229.115 166.748 228.889 166.748 228.611ZM173.082 229.459C173.511 229.459 173.867 229.334 174.15 229.084C174.433 228.834 174.583 228.526 174.602 228.158H176.221C176.202 228.634 176.054 229.08 175.776 229.494C175.498 229.904 175.121 230.229 174.645 230.47C174.169 230.71 173.655 230.83 173.104 230.83C172.034 230.83 171.186 230.484 170.559 229.791C169.932 229.098 169.618 228.142 169.618 226.921V226.744C169.618 225.58 169.93 224.649 170.552 223.952C171.174 223.25 172.022 222.899 173.097 222.899C174.006 222.899 174.746 223.165 175.316 223.697C175.891 224.225 176.193 224.92 176.221 225.783H174.602C174.583 225.345 174.433 224.984 174.15 224.701C173.872 224.418 173.516 224.277 173.082 224.277C172.526 224.277 172.097 224.48 171.796 224.885C171.494 225.286 171.341 225.896 171.336 226.716V226.992C171.336 227.821 171.485 228.441 171.782 228.851C172.083 229.256 172.517 229.459 173.082 229.459ZM181.523 224.609C181.297 224.572 181.064 224.553 180.823 224.553C180.036 224.553 179.506 224.854 179.233 225.458V230.689H177.515V223.04H179.155L179.197 223.895C179.612 223.231 180.187 222.899 180.922 222.899C181.167 222.899 181.37 222.932 181.53 222.998L181.523 224.609ZM184.436 230.689H182.718V223.04H184.436V230.689ZM182.612 221.053C182.612 220.79 182.694 220.57 182.859 220.396C183.029 220.222 183.269 220.134 183.58 220.134C183.891 220.134 184.132 220.222 184.301 220.396C184.471 220.57 184.556 220.79 184.556 221.053C184.556 221.313 184.471 221.529 184.301 221.704C184.132 221.874 183.891 221.958 183.58 221.958C183.269 221.958 183.029 221.874 182.859 221.704C182.694 221.529 182.612 221.313 182.612 221.053ZM193.011 226.942C193.011 228.125 192.742 229.07 192.205 229.777C191.668 230.479 190.947 230.83 190.042 230.83C189.203 230.83 188.531 230.555 188.027 230.003V233.63H186.309V223.04H187.893L187.963 223.818C188.468 223.205 189.153 222.899 190.021 222.899C190.954 222.899 191.684 223.247 192.212 223.945C192.745 224.638 193.011 225.601 193.011 226.836V226.942ZM191.3 226.794C191.3 226.03 191.147 225.425 190.841 224.977C190.539 224.529 190.105 224.305 189.54 224.305C188.838 224.305 188.333 224.595 188.027 225.175V228.568C188.338 229.162 188.847 229.459 189.554 229.459C190.101 229.459 190.527 229.24 190.833 228.801C191.145 228.358 191.3 227.689 191.3 226.794ZM196.623 221.181V223.04H197.974V224.312H196.623V228.582C196.623 228.875 196.68 229.087 196.793 229.219C196.911 229.346 197.118 229.409 197.415 229.409C197.613 229.409 197.813 229.386 198.016 229.339V230.668C197.625 230.776 197.248 230.83 196.885 230.83C195.565 230.83 194.905 230.102 194.905 228.646V224.312H193.647V223.04H194.905V221.181H196.623ZM201.119 230.689H199.402V223.04H201.119V230.689ZM199.295 221.053C199.295 220.79 199.378 220.57 199.543 220.396C199.713 220.222 199.953 220.134 200.264 220.134C200.575 220.134 200.815 220.222 200.985 220.396C201.155 220.57 201.24 220.79 201.24 221.053C201.24 221.313 201.155 221.529 200.985 221.704C200.815 221.874 200.575 221.958 200.264 221.958C199.953 221.958 199.713 221.874 199.543 221.704C199.378 221.529 199.295 221.313 199.295 221.053ZM202.675 226.794C202.675 226.044 202.823 225.37 203.12 224.772C203.417 224.169 203.834 223.707 204.371 223.386C204.908 223.061 205.526 222.899 206.223 222.899C207.256 222.899 208.092 223.231 208.733 223.895C209.379 224.56 209.727 225.441 209.779 226.539L209.786 226.942C209.786 227.696 209.64 228.37 209.348 228.964C209.061 229.558 208.646 230.017 208.104 230.343C207.567 230.668 206.944 230.83 206.238 230.83C205.158 230.83 204.293 230.472 203.643 229.756C202.997 229.035 202.675 228.076 202.675 226.879V226.794ZM204.392 226.942C204.392 227.729 204.555 228.347 204.88 228.794C205.205 229.237 205.658 229.459 206.238 229.459C206.817 229.459 207.267 229.233 207.588 228.78C207.913 228.328 208.076 227.666 208.076 226.794C208.076 226.021 207.908 225.408 207.574 224.956C207.244 224.503 206.794 224.277 206.223 224.277C205.663 224.277 205.217 224.501 204.887 224.949C204.557 225.392 204.392 226.056 204.392 226.942ZM212.833 223.04L212.883 223.924C213.448 223.24 214.191 222.899 215.11 222.899C216.702 222.899 217.513 223.811 217.541 225.634V230.689H215.824V225.733C215.824 225.248 215.717 224.89 215.505 224.659C215.298 224.423 214.956 224.305 214.48 224.305C213.788 224.305 213.271 224.619 212.932 225.246V230.689H211.214V223.04H212.833ZM224.731 230.689H223.013V223.04H224.731V230.689ZM222.907 221.053C222.907 220.79 222.989 220.57 223.154 220.396C223.324 220.222 223.564 220.134 223.875 220.134C224.187 220.134 224.427 220.222 224.597 220.396C224.766 220.57 224.851 220.79 224.851 221.053C224.851 221.313 224.766 221.529 224.597 221.704C224.427 221.874 224.187 221.958 223.875 221.958C223.564 221.958 223.324 221.874 223.154 221.704C222.989 221.529 222.907 221.313 222.907 221.053ZM230.895 228.611C230.895 228.304 230.768 228.071 230.514 227.911C230.264 227.75 229.847 227.609 229.262 227.487C228.678 227.364 228.19 227.209 227.799 227.02C226.941 226.605 226.512 226.004 226.512 225.217C226.512 224.558 226.79 224.006 227.347 223.563C227.903 223.12 228.61 222.899 229.467 222.899C230.382 222.899 231.119 223.125 231.68 223.577C232.246 224.03 232.528 224.616 232.528 225.337H230.81C230.81 225.008 230.688 224.734 230.443 224.517C230.198 224.296 229.873 224.185 229.467 224.185C229.09 224.185 228.782 224.272 228.541 224.447C228.306 224.621 228.188 224.854 228.188 225.147C228.188 225.411 228.299 225.616 228.52 225.762C228.742 225.908 229.189 226.056 229.863 226.207C230.537 226.353 231.065 226.53 231.447 226.737C231.833 226.94 232.118 227.185 232.302 227.472C232.491 227.76 232.585 228.109 232.585 228.519C232.585 229.207 232.3 229.765 231.729 230.194C231.159 230.618 230.412 230.83 229.489 230.83C228.862 230.83 228.303 230.717 227.813 230.491C227.323 230.265 226.941 229.954 226.668 229.558C226.395 229.162 226.258 228.735 226.258 228.278H227.926C227.95 228.684 228.103 228.997 228.386 229.219C228.668 229.435 229.043 229.544 229.51 229.544C229.962 229.544 230.306 229.459 230.542 229.289C230.777 229.115 230.895 228.889 230.895 228.611ZM108.582 246.459C109.011 246.459 109.367 246.334 109.649 246.084C109.932 245.834 110.083 245.526 110.102 245.158H111.721C111.702 245.634 111.553 246.08 111.275 246.494C110.997 246.904 110.62 247.229 110.144 247.47C109.668 247.71 109.155 247.83 108.603 247.83C107.533 247.83 106.685 247.484 106.058 246.791C105.431 246.098 105.118 245.142 105.118 243.921V243.744C105.118 242.58 105.429 241.649 106.051 240.952C106.673 240.25 107.522 239.899 108.596 239.899C109.506 239.899 110.246 240.165 110.816 240.697C111.391 241.225 111.693 241.92 111.721 242.783H110.102C110.083 242.345 109.932 241.984 109.649 241.701C109.371 241.418 109.016 241.277 108.582 241.277C108.026 241.277 107.597 241.48 107.295 241.885C106.994 242.286 106.841 242.896 106.836 243.716V243.992C106.836 244.821 106.984 245.441 107.281 245.851C107.583 246.256 108.016 246.459 108.582 246.459ZM112.696 243.794C112.696 243.044 112.845 242.37 113.142 241.772C113.439 241.169 113.856 240.707 114.393 240.386C114.93 240.061 115.548 239.899 116.245 239.899C117.277 239.899 118.114 240.231 118.755 240.895C119.4 241.56 119.749 242.441 119.801 243.539L119.808 243.942C119.808 244.696 119.662 245.37 119.37 245.964C119.082 246.558 118.668 247.017 118.126 247.343C117.588 247.668 116.966 247.83 116.259 247.83C115.18 247.83 114.315 247.472 113.665 246.756C113.019 246.035 112.696 245.076 112.696 243.879V243.794ZM114.414 243.942C114.414 244.729 114.577 245.347 114.902 245.794C115.227 246.237 115.68 246.459 116.259 246.459C116.839 246.459 117.289 246.233 117.61 245.78C117.935 245.328 118.097 244.666 118.097 243.794C118.097 243.021 117.93 242.408 117.595 241.956C117.265 241.503 116.815 241.277 116.245 241.277C115.684 241.277 115.239 241.501 114.909 241.949C114.579 242.392 114.414 243.056 114.414 243.942ZM122.855 240.04L122.904 240.924C123.47 240.24 124.212 239.899 125.131 239.899C126.724 239.899 127.535 240.811 127.563 242.634V247.689H125.845V242.733C125.845 242.248 125.739 241.89 125.527 241.659C125.32 241.423 124.978 241.305 124.502 241.305C123.809 241.305 123.293 241.619 122.954 242.246V247.689H121.236V240.04H122.855ZM129.776 247.689V241.312H128.609V240.04H129.776V239.517C129.781 238.918 129.908 238.405 130.158 237.976C130.407 237.547 130.761 237.224 131.218 237.007C131.675 236.79 132.224 236.682 132.865 236.682C133.242 236.682 133.603 236.722 133.947 236.802C134.295 236.882 134.656 236.984 135.028 237.106L134.767 238.527C134.116 238.301 133.523 238.188 132.985 238.188C132.462 238.188 132.083 238.303 131.847 238.534C131.611 238.76 131.494 239.102 131.494 239.559V240.04H132.999V241.312H131.494V247.689H129.776ZM135.841 247.689H134.123V240.04H135.841V247.689ZM141.751 241.609C141.525 241.572 141.292 241.553 141.051 241.553C140.264 241.553 139.734 241.854 139.461 242.458V247.689H137.743V240.04H139.383L139.425 240.895C139.84 240.231 140.415 239.899 141.15 239.899C141.395 239.899 141.598 239.932 141.758 239.998L141.751 241.609ZM144.452 240.04L144.501 240.839C145.038 240.212 145.774 239.899 146.707 239.899C147.73 239.899 148.429 240.29 148.806 241.072C149.363 240.29 150.145 239.899 151.153 239.899C151.997 239.899 152.624 240.132 153.034 240.598C153.449 241.065 153.661 241.753 153.67 242.663V247.689H151.952V242.712C151.952 242.227 151.846 241.871 151.634 241.645C151.422 241.418 151.071 241.305 150.581 241.305C150.19 241.305 149.869 241.411 149.619 241.623C149.374 241.831 149.202 242.104 149.103 242.444L149.11 247.689H147.393V242.656C147.369 241.755 146.909 241.305 146.014 241.305C145.326 241.305 144.838 241.586 144.551 242.147V247.689H142.833V240.04H144.452ZM158.802 247.83C157.714 247.83 156.83 247.489 156.151 246.805C155.477 246.117 155.141 245.203 155.141 244.062V243.85C155.141 243.087 155.287 242.406 155.579 241.807C155.876 241.204 156.29 240.735 156.823 240.401C157.356 240.066 157.949 239.899 158.604 239.899C159.646 239.899 160.45 240.231 161.015 240.895C161.585 241.56 161.871 242.5 161.871 243.716V244.409H156.873C156.924 245.04 157.134 245.54 157.502 245.907C157.874 246.275 158.341 246.459 158.901 246.459C159.688 246.459 160.329 246.141 160.824 245.505L161.75 246.388C161.444 246.845 161.034 247.201 160.52 247.456C160.011 247.705 159.439 247.83 158.802 247.83ZM158.597 241.277C158.126 241.277 157.744 241.442 157.452 241.772C157.165 242.102 156.981 242.561 156.901 243.15H160.174V243.023C160.136 242.448 159.983 242.015 159.714 241.722C159.446 241.426 159.073 241.277 158.597 241.277ZM162.888 243.808C162.888 242.63 163.162 241.685 163.709 240.973C164.255 240.257 164.988 239.899 165.907 239.899C166.718 239.899 167.373 240.181 167.872 240.747V236.83H169.59V247.689H168.035L167.95 246.897C167.436 247.519 166.751 247.83 165.893 247.83C164.998 247.83 164.272 247.47 163.716 246.749C163.164 246.028 162.888 245.047 162.888 243.808ZM164.606 243.956C164.606 244.734 164.755 245.342 165.052 245.78C165.353 246.214 165.78 246.431 166.331 246.431C167.033 246.431 167.547 246.117 167.872 245.49V242.224C167.557 241.612 167.048 241.305 166.345 241.305C165.789 241.305 165.36 241.527 165.059 241.97C164.757 242.408 164.606 243.07 164.606 243.956Z" fill="black"/>
<g filter="url(#filter2_d)">
<rect x="104.56" y="367.898" width="197.262" height="26.5429" rx="3.01624" fill="#49367E"/>
</g>
<path d="M195.248 384.137H194.023V380.992H190.859V384.137H189.629V377.06H190.859V380.006H194.023V377.06H195.248V384.137ZM196.25 381.459C196.25 380.944 196.352 380.48 196.556 380.069C196.76 379.654 197.047 379.337 197.416 379.116C197.785 378.893 198.21 378.781 198.689 378.781C199.399 378.781 199.974 379.009 200.415 379.466C200.859 379.923 201.098 380.529 201.134 381.284L201.139 381.561C201.139 382.079 201.039 382.543 200.838 382.951C200.64 383.359 200.355 383.675 199.982 383.899C199.613 384.122 199.185 384.234 198.699 384.234C197.957 384.234 197.363 383.988 196.915 383.495C196.472 382.999 196.25 382.34 196.25 381.517V381.459ZM197.431 381.561C197.431 382.102 197.542 382.526 197.766 382.834C197.99 383.139 198.301 383.291 198.699 383.291C199.098 383.291 199.407 383.136 199.627 382.824C199.851 382.513 199.963 382.058 199.963 381.459C199.963 380.927 199.848 380.506 199.618 380.195C199.391 379.884 199.081 379.729 198.689 379.729C198.304 379.729 197.998 379.882 197.771 380.19C197.544 380.495 197.431 380.952 197.431 381.561ZM203.128 378.878L203.162 379.427C203.531 378.996 204.036 378.781 204.678 378.781C205.381 378.781 205.862 379.05 206.121 379.588C206.504 379.05 207.042 378.781 207.735 378.781C208.315 378.781 208.746 378.941 209.028 379.262C209.313 379.583 209.459 380.056 209.465 380.681V384.137H208.284V380.715C208.284 380.381 208.211 380.137 208.066 379.981C207.92 379.826 207.678 379.748 207.341 379.748C207.072 379.748 206.852 379.821 206.68 379.967C206.512 380.109 206.394 380.297 206.326 380.53L206.33 384.137H205.149V380.676C205.133 380.057 204.817 379.748 204.202 379.748C203.729 379.748 203.393 379.941 203.196 380.326V384.137H202.015V378.878H203.128ZM212.873 384.234C212.125 384.234 211.517 383.999 211.051 383.529C210.587 383.056 210.356 382.428 210.356 381.643V381.498C210.356 380.973 210.456 380.505 210.657 380.093C210.861 379.678 211.146 379.356 211.512 379.126C211.878 378.896 212.287 378.781 212.737 378.781C213.453 378.781 214.005 379.009 214.394 379.466C214.786 379.923 214.982 380.569 214.982 381.405V381.882H211.546C211.582 382.316 211.726 382.659 211.979 382.912C212.235 383.165 212.556 383.291 212.941 383.291C213.482 383.291 213.923 383.072 214.263 382.635L214.9 383.242C214.689 383.557 214.407 383.801 214.054 383.976C213.704 384.148 213.31 384.234 212.873 384.234ZM212.732 379.729C212.408 379.729 212.146 379.842 211.945 380.069C211.747 380.296 211.621 380.611 211.566 381.016H213.816V380.929C213.79 380.534 213.685 380.236 213.5 380.035C213.315 379.831 213.059 379.729 212.732 379.729Z" fill="white"/>
<path d="M107.449 266.706L109.239 263.261H110.267L107.901 267.564V270.123H106.996V267.564L104.63 263.261H105.667L107.449 266.706ZM110.354 267.526C110.354 267.026 110.451 266.577 110.646 266.178C110.844 265.779 111.117 265.471 111.466 265.254C111.818 265.038 112.218 264.929 112.668 264.929C113.362 264.929 113.923 265.17 114.35 265.65C114.781 266.131 114.996 266.77 114.996 267.568V267.63C114.996 268.126 114.9 268.572 114.708 268.968C114.52 269.361 114.248 269.667 113.893 269.887C113.541 270.107 113.136 270.217 112.677 270.217C111.986 270.217 111.425 269.977 110.995 269.496C110.567 269.015 110.354 268.379 110.354 267.587V267.526ZM111.23 267.63C111.23 268.195 111.361 268.649 111.621 268.992C111.885 269.334 112.237 269.505 112.677 269.505C113.12 269.505 113.472 269.333 113.733 268.987C113.993 268.638 114.124 268.151 114.124 267.526C114.124 266.967 113.99 266.514 113.723 266.169C113.459 265.82 113.107 265.646 112.668 265.646C112.237 265.646 111.89 265.817 111.626 266.159C111.362 266.502 111.23 266.992 111.23 267.63ZM119.117 269.619C118.777 270.018 118.279 270.217 117.623 270.217C117.079 270.217 116.664 270.06 116.379 269.746C116.096 269.428 115.953 268.96 115.95 268.341V265.023H116.822V268.318C116.822 269.091 117.136 269.477 117.764 269.477C118.43 269.477 118.873 269.229 119.093 268.733V265.023H119.965V270.123H119.136L119.117 269.619ZM124.272 265.023L124.3 265.664C124.69 265.174 125.199 264.929 125.827 264.929C126.905 264.929 127.448 265.537 127.458 266.753V270.123H126.586V266.748C126.583 266.381 126.498 266.109 126.331 265.933C126.168 265.757 125.912 265.669 125.563 265.669C125.28 265.669 125.032 265.745 124.818 265.895C124.605 266.046 124.438 266.244 124.319 266.489V270.123H123.447V265.023H124.272ZM128.421 267.526C128.421 267.026 128.518 266.577 128.713 266.178C128.911 265.779 129.184 265.471 129.533 265.254C129.885 265.038 130.286 264.929 130.735 264.929C131.429 264.929 131.99 265.17 132.417 265.65C132.848 266.131 133.063 266.77 133.063 267.568V267.63C133.063 268.126 132.967 268.572 132.776 268.968C132.587 269.361 132.315 269.667 131.96 269.887C131.608 270.107 131.203 270.217 130.744 270.217C130.053 270.217 129.492 269.977 129.062 269.496C128.635 269.015 128.421 268.379 128.421 267.587V267.526ZM129.297 267.63C129.297 268.195 129.428 268.649 129.689 268.992C129.953 269.334 130.304 269.505 130.744 269.505C131.187 269.505 131.539 269.333 131.8 268.987C132.061 268.638 132.191 268.151 132.191 267.526C132.191 266.967 132.058 266.514 131.791 266.169C131.527 265.82 131.175 265.646 130.735 265.646C130.304 265.646 129.957 265.817 129.693 266.159C129.429 266.502 129.297 266.992 129.297 267.63ZM138.551 268.921L139.531 265.023H140.403L138.918 270.123H138.211L136.972 266.258L135.765 270.123H135.058L133.579 265.023H134.446L135.45 268.841L136.637 265.023H137.34L138.551 268.921ZM144.318 265.641C144.705 265.166 145.208 264.929 145.826 264.929C146.904 264.929 147.448 265.537 147.457 266.753V270.123H146.585V266.748C146.582 266.381 146.497 266.109 146.331 265.933C146.167 265.757 145.911 265.669 145.563 265.669C145.28 265.669 145.032 265.745 144.818 265.895C144.604 266.046 144.438 266.244 144.318 266.489V270.123H143.446V262.884H144.318V265.641ZM151.79 270.123C151.74 270.022 151.699 269.843 151.668 269.586C151.262 270.007 150.778 270.217 150.216 270.217C149.713 270.217 149.3 270.076 148.977 269.793C148.656 269.507 148.496 269.146 148.496 268.709C148.496 268.178 148.697 267.766 149.099 267.474C149.504 267.179 150.073 267.031 150.805 267.031H151.653V266.631C151.653 266.326 151.562 266.084 151.38 265.905C151.198 265.723 150.929 265.631 150.574 265.631C150.263 265.631 150.002 265.71 149.792 265.867C149.581 266.024 149.476 266.214 149.476 266.437H148.6C148.6 266.183 148.689 265.938 148.868 265.702C149.05 265.463 149.295 265.275 149.603 265.137C149.914 264.998 150.255 264.929 150.626 264.929C151.214 264.929 151.674 265.077 152.007 265.372C152.34 265.664 152.513 266.068 152.525 266.583V268.93C152.525 269.399 152.585 269.771 152.704 270.047V270.123H151.79ZM150.343 269.458C150.617 269.458 150.876 269.388 151.121 269.246C151.366 269.105 151.543 268.921 151.653 268.695V267.649H150.97C149.902 267.649 149.368 267.961 149.368 268.586C149.368 268.86 149.459 269.073 149.641 269.227C149.823 269.381 150.057 269.458 150.343 269.458ZM155.379 268.94L156.642 265.023H157.532L155.704 270.123H155.039L153.192 265.023H154.082L155.379 268.94ZM160.301 270.217C159.609 270.217 159.047 269.991 158.613 269.538C158.18 269.083 157.963 268.475 157.963 267.715V267.554C157.963 267.048 158.059 266.598 158.251 266.202C158.445 265.803 158.716 265.492 159.061 265.269C159.41 265.042 159.787 264.929 160.192 264.929C160.855 264.929 161.37 265.148 161.738 265.584C162.106 266.021 162.289 266.646 162.289 267.46V267.823H158.835C158.848 268.326 158.994 268.733 159.273 269.044C159.556 269.351 159.914 269.505 160.348 269.505C160.656 269.505 160.916 269.443 161.13 269.317C161.344 269.191 161.531 269.025 161.691 268.817L162.224 269.232C161.796 269.889 161.155 270.217 160.301 270.217ZM160.192 265.646C159.84 265.646 159.545 265.774 159.306 266.032C159.067 266.287 158.92 266.645 158.863 267.107H161.418V267.041C161.392 266.598 161.273 266.255 161.059 266.013C160.846 265.768 160.557 265.646 160.192 265.646ZM168.604 270.123C168.554 270.022 168.513 269.843 168.481 269.586C168.076 270.007 167.592 270.217 167.03 270.217C166.527 270.217 166.114 270.076 165.79 269.793C165.47 269.507 165.309 269.146 165.309 268.709C165.309 268.178 165.511 267.766 165.913 267.474C166.318 267.179 166.887 267.031 167.619 267.031H168.467V266.631C168.467 266.326 168.376 266.084 168.194 265.905C168.012 265.723 167.743 265.631 167.388 265.631C167.077 265.631 166.816 265.71 166.606 265.867C166.395 266.024 166.29 266.214 166.29 266.437H165.413C165.413 266.183 165.503 265.938 165.682 265.702C165.864 265.463 166.109 265.275 166.417 265.137C166.728 264.998 167.069 264.929 167.44 264.929C168.027 264.929 168.488 265.077 168.821 265.372C169.154 265.664 169.326 266.068 169.339 266.583V268.93C169.339 269.399 169.399 269.771 169.518 270.047V270.123H168.604ZM167.157 269.458C167.43 269.458 167.689 269.388 167.935 269.246C168.18 269.105 168.357 268.921 168.467 268.695V267.649H167.784C166.716 267.649 166.181 267.961 166.181 268.586C166.181 268.86 166.272 269.073 166.455 269.227C166.637 269.381 166.871 269.458 167.157 269.458ZM172.63 269.505C172.942 269.505 173.213 269.411 173.446 269.223C173.678 269.034 173.807 268.798 173.832 268.516H174.657C174.641 268.808 174.541 269.086 174.355 269.35C174.17 269.614 173.922 269.824 173.611 269.981C173.303 270.139 172.976 270.217 172.63 270.217C171.936 270.217 171.383 269.986 170.972 269.524C170.563 269.059 170.359 268.425 170.359 267.62V267.474C170.359 266.978 170.45 266.536 170.632 266.15C170.814 265.763 171.075 265.463 171.415 265.25C171.757 265.036 172.161 264.929 172.626 264.929C173.198 264.929 173.672 265.1 174.049 265.443C174.429 265.785 174.632 266.23 174.657 266.777H173.832C173.807 266.447 173.681 266.177 173.455 265.966C173.232 265.752 172.956 265.646 172.626 265.646C172.183 265.646 171.839 265.806 171.594 266.126C171.352 266.444 171.231 266.904 171.231 267.507V267.672C171.231 268.26 171.352 268.712 171.594 269.029C171.836 269.347 172.181 269.505 172.63 269.505ZM177.562 269.505C177.873 269.505 178.145 269.411 178.377 269.223C178.61 269.034 178.739 268.798 178.764 268.516H179.589C179.573 268.808 179.472 269.086 179.287 269.35C179.102 269.614 178.853 269.824 178.542 269.981C178.234 270.139 177.908 270.217 177.562 270.217C176.868 270.217 176.315 269.986 175.903 269.524C175.495 269.059 175.29 268.425 175.29 267.62V267.474C175.29 266.978 175.382 266.536 175.564 266.15C175.746 265.763 176.007 265.463 176.346 265.25C176.689 265.036 177.092 264.929 177.557 264.929C178.129 264.929 178.604 265.1 178.981 265.443C179.361 265.785 179.563 266.23 179.589 266.777H178.764C178.739 266.447 178.613 266.177 178.387 265.966C178.164 265.752 177.887 265.646 177.557 265.646C177.114 265.646 176.77 265.806 176.525 266.126C176.283 266.444 176.162 266.904 176.162 267.507V267.672C176.162 268.26 176.283 268.712 176.525 269.029C176.767 269.347 177.113 269.505 177.562 269.505ZM182.564 270.217C181.873 270.217 181.311 269.991 180.877 269.538C180.443 269.083 180.227 268.475 180.227 267.715V267.554C180.227 267.048 180.323 266.598 180.514 266.202C180.709 265.803 180.979 265.492 181.325 265.269C181.674 265.042 182.051 264.929 182.456 264.929C183.119 264.929 183.634 265.148 184.002 265.584C184.369 266.021 184.553 266.646 184.553 267.46V267.823H181.099C181.111 268.326 181.257 268.733 181.537 269.044C181.82 269.351 182.178 269.505 182.611 269.505C182.919 269.505 183.18 269.443 183.394 269.317C183.607 269.191 183.794 269.025 183.955 268.817L184.487 269.232C184.06 269.889 183.419 270.217 182.564 270.217ZM182.456 265.646C182.104 265.646 181.809 265.774 181.57 266.032C181.331 266.287 181.183 266.645 181.127 267.107H183.681V267.041C183.656 266.598 183.537 266.255 183.323 266.013C183.109 265.768 182.82 265.646 182.456 265.646ZM188.415 268.77C188.415 268.535 188.325 268.352 188.146 268.224C187.97 268.092 187.661 267.978 187.218 267.884C186.778 267.79 186.428 267.677 186.167 267.545C185.909 267.413 185.718 267.256 185.592 267.074C185.469 266.891 185.408 266.675 185.408 266.423C185.408 266.005 185.584 265.652 185.936 265.363C186.291 265.074 186.743 264.929 187.293 264.929C187.871 264.929 188.339 265.078 188.698 265.377C189.059 265.675 189.24 266.057 189.24 266.522H188.363C188.363 266.283 188.261 266.078 188.057 265.905C187.856 265.732 187.601 265.646 187.293 265.646C186.976 265.646 186.728 265.715 186.549 265.853C186.369 265.991 186.28 266.172 186.28 266.395C186.28 266.605 186.363 266.764 186.53 266.871C186.696 266.978 186.996 267.08 187.43 267.177C187.867 267.275 188.22 267.391 188.49 267.526C188.76 267.661 188.96 267.824 189.089 268.016C189.221 268.205 189.287 268.436 189.287 268.709C189.287 269.165 189.105 269.531 188.74 269.807C188.376 270.08 187.903 270.217 187.321 270.217C186.913 270.217 186.552 270.145 186.238 270C185.923 269.856 185.677 269.655 185.498 269.397C185.322 269.136 185.234 268.855 185.234 268.553H186.106C186.121 268.846 186.238 269.078 186.454 269.251C186.674 269.421 186.963 269.505 187.321 269.505C187.651 269.505 187.915 269.439 188.113 269.307C188.314 269.172 188.415 268.993 188.415 268.77ZM193.271 268.77C193.271 268.535 193.181 268.352 193.002 268.224C192.826 268.092 192.517 267.978 192.074 267.884C191.634 267.79 191.284 267.677 191.023 267.545C190.765 267.413 190.574 267.256 190.448 267.074C190.325 266.891 190.264 266.675 190.264 266.423C190.264 266.005 190.44 265.652 190.792 265.363C191.147 265.074 191.599 264.929 192.149 264.929C192.727 264.929 193.196 265.078 193.554 265.377C193.915 265.675 194.096 266.057 194.096 266.522H193.219C193.219 266.283 193.117 266.078 192.913 265.905C192.712 265.732 192.457 265.646 192.149 265.646C191.832 265.646 191.584 265.715 191.405 265.853C191.226 265.991 191.136 266.172 191.136 266.395C191.136 266.605 191.219 266.764 191.386 266.871C191.552 266.978 191.852 267.08 192.286 267.177C192.723 267.275 193.076 267.391 193.346 267.526C193.617 267.661 193.816 267.824 193.945 268.016C194.077 268.205 194.143 268.436 194.143 268.709C194.143 269.165 193.961 269.531 193.596 269.807C193.232 270.08 192.759 270.217 192.178 270.217C191.769 270.217 191.408 270.145 191.094 270C190.779 269.856 190.533 269.655 190.354 269.397C190.178 269.136 190.09 268.855 190.09 268.553H190.962C190.977 268.846 191.094 269.078 191.31 269.251C191.53 269.421 191.819 269.505 192.178 269.505C192.508 269.505 192.771 269.439 192.969 269.307C193.17 269.172 193.271 268.993 193.271 268.77ZM198.614 263.789V265.023H199.566V265.697H198.614V268.86C198.614 269.064 198.657 269.218 198.742 269.322C198.827 269.422 198.971 269.472 199.175 269.472C199.276 269.472 199.414 269.454 199.59 269.416V270.123C199.361 270.186 199.138 270.217 198.921 270.217C198.531 270.217 198.237 270.099 198.039 269.864C197.842 269.628 197.743 269.293 197.743 268.86V265.697H196.814V265.023H197.743V263.789H198.614ZM200.143 267.526C200.143 267.026 200.241 266.577 200.436 266.178C200.633 265.779 200.907 265.471 201.256 265.254C201.607 265.038 202.008 264.929 202.457 264.929C203.152 264.929 203.713 265.17 204.14 265.65C204.57 266.131 204.785 266.77 204.785 267.568V267.63C204.785 268.126 204.69 268.572 204.498 268.968C204.309 269.361 204.038 269.667 203.683 269.887C203.331 270.107 202.925 270.217 202.467 270.217C201.776 270.217 201.215 269.977 200.784 269.496C200.357 269.015 200.143 268.379 200.143 267.587V267.526ZM201.02 267.63C201.02 268.195 201.15 268.649 201.411 268.992C201.675 269.334 202.027 269.505 202.467 269.505C202.91 269.505 203.262 269.333 203.522 268.987C203.783 268.638 203.914 268.151 203.914 267.526C203.914 266.967 203.78 266.514 203.513 266.169C203.249 265.82 202.897 265.646 202.457 265.646C202.027 265.646 201.68 265.817 201.416 266.159C201.152 266.502 201.02 266.992 201.02 267.63ZM211.18 270.123C211.13 270.022 211.089 269.843 211.057 269.586C210.652 270.007 210.168 270.217 209.606 270.217C209.103 270.217 208.69 270.076 208.366 269.793C208.046 269.507 207.886 269.146 207.886 268.709C207.886 268.178 208.087 267.766 208.489 267.474C208.894 267.179 209.463 267.031 210.195 267.031H211.043V266.631C211.043 266.326 210.952 266.084 210.77 265.905C210.588 265.723 210.319 265.631 209.964 265.631C209.653 265.631 209.392 265.71 209.182 265.867C208.971 266.024 208.866 266.214 208.866 266.437H207.989C207.989 266.183 208.079 265.938 208.258 265.702C208.44 265.463 208.685 265.275 208.993 265.137C209.304 264.998 209.645 264.929 210.016 264.929C210.603 264.929 211.064 265.077 211.397 265.372C211.73 265.664 211.903 266.068 211.915 266.583V268.93C211.915 269.399 211.975 269.771 212.094 270.047V270.123H211.18ZM209.733 269.458C210.006 269.458 210.266 269.388 210.511 269.246C210.756 269.105 210.933 268.921 211.043 268.695V267.649H210.36C209.292 267.649 208.758 267.961 208.758 268.586C208.758 268.86 208.849 269.073 209.031 269.227C209.213 269.381 209.447 269.458 209.733 269.458ZM214.109 270.123H213.237V262.884H214.109V270.123ZM216.335 270.123H215.463V262.884H216.335V270.123ZM219.657 267.526C219.657 267.026 219.754 266.577 219.949 266.178C220.147 265.779 220.42 265.471 220.769 265.254C221.121 265.038 221.521 264.929 221.971 264.929C222.665 264.929 223.226 265.17 223.653 265.65C224.083 266.131 224.299 266.77 224.299 267.568V267.63C224.299 268.126 224.203 268.572 224.011 268.968C223.823 269.361 223.551 269.667 223.196 269.887C222.844 270.107 222.439 270.217 221.98 270.217C221.289 270.217 220.728 269.977 220.297 269.496C219.87 269.015 219.657 268.379 219.657 267.587V267.526ZM220.533 267.63C220.533 268.195 220.663 268.649 220.924 268.992C221.188 269.334 221.54 269.505 221.98 269.505C222.423 269.505 222.775 269.333 223.036 268.987C223.296 268.638 223.427 268.151 223.427 267.526C223.427 266.967 223.293 266.514 223.026 266.169C222.762 265.82 222.41 265.646 221.971 265.646C221.54 265.646 221.193 265.817 220.929 266.159C220.665 266.502 220.533 266.992 220.533 267.63ZM228.42 269.619C228.08 270.018 227.582 270.217 226.926 270.217C226.382 270.217 225.967 270.06 225.681 269.746C225.399 269.428 225.256 268.96 225.253 268.341V265.023H226.124V268.318C226.124 269.091 226.439 269.477 227.067 269.477C227.733 269.477 228.176 269.229 228.396 268.733V265.023H229.268V270.123H228.438L228.42 269.619ZM232.941 265.806C232.809 265.784 232.666 265.773 232.512 265.773C231.94 265.773 231.552 266.016 231.348 266.503V270.123H230.476V265.023H231.325L231.339 265.613C231.625 265.157 232.03 264.929 232.555 264.929C232.724 264.929 232.853 264.951 232.941 264.995V265.806ZM240.207 267.63C240.207 268.406 240.03 269.031 239.675 269.505C239.32 269.98 238.839 270.217 238.233 270.217C237.614 270.217 237.127 270.021 236.772 269.628V272.083H235.9V265.023H236.696L236.739 265.589C237.094 265.149 237.587 264.929 238.219 264.929C238.831 264.929 239.315 265.16 239.67 265.622C240.028 266.084 240.207 266.726 240.207 267.55V267.63ZM239.336 267.531C239.336 266.956 239.213 266.502 238.968 266.169C238.723 265.836 238.387 265.669 237.959 265.669C237.432 265.669 237.036 265.903 236.772 266.371V268.808C237.033 269.273 237.432 269.505 237.969 269.505C238.387 269.505 238.718 269.34 238.963 269.011C239.211 268.678 239.336 268.184 239.336 267.531ZM243.664 265.806C243.532 265.784 243.389 265.773 243.235 265.773C242.663 265.773 242.275 266.016 242.071 266.503V270.123H241.199V265.023H242.047L242.062 265.613C242.347 265.157 242.753 264.929 243.277 264.929C243.447 264.929 243.576 264.951 243.664 264.995V265.806ZM246.371 270.217C245.68 270.217 245.117 269.991 244.684 269.538C244.25 269.083 244.033 268.475 244.033 267.715V267.554C244.033 267.048 244.129 266.598 244.321 266.202C244.516 265.803 244.786 265.492 245.131 265.269C245.48 265.042 245.857 264.929 246.263 264.929C246.926 264.929 247.441 265.148 247.808 265.584C248.176 266.021 248.36 266.646 248.36 267.46V267.823H244.905C244.918 268.326 245.064 268.733 245.344 269.044C245.626 269.351 245.985 269.505 246.418 269.505C246.726 269.505 246.987 269.443 247.2 269.317C247.414 269.191 247.601 269.025 247.761 268.817L248.294 269.232C247.867 269.889 247.226 270.217 246.371 270.217ZM246.263 265.646C245.911 265.646 245.615 265.774 245.377 266.032C245.138 266.287 244.99 266.645 244.934 267.107H247.488V267.041C247.463 266.598 247.343 266.255 247.13 266.013C246.916 265.768 246.627 265.646 246.263 265.646ZM250.072 265.023L250.096 265.589C250.47 265.149 250.974 264.929 251.609 264.929C252.322 264.929 252.808 265.203 253.065 265.749C253.235 265.504 253.455 265.306 253.725 265.155C253.998 265.005 254.32 264.929 254.691 264.929C255.81 264.929 256.378 265.521 256.397 266.706V270.123H255.525V266.758C255.525 266.393 255.442 266.122 255.275 265.942C255.109 265.76 254.829 265.669 254.437 265.669C254.113 265.669 253.844 265.767 253.631 265.961C253.417 266.153 253.293 266.412 253.258 266.739V270.123H252.382V266.781C252.382 266.04 252.019 265.669 251.293 265.669C250.721 265.669 250.33 265.913 250.12 266.4V270.123H249.248V265.023H250.072ZM258.543 270.123H257.672V265.023H258.543V270.123ZM257.601 263.671C257.601 263.529 257.643 263.41 257.728 263.313C257.816 263.215 257.945 263.167 258.115 263.167C258.284 263.167 258.413 263.215 258.501 263.313C258.589 263.41 258.633 263.529 258.633 263.671C258.633 263.812 258.589 263.93 258.501 264.024C258.413 264.119 258.284 264.166 258.115 264.166C257.945 264.166 257.816 264.119 257.728 264.024C257.643 263.93 257.601 263.812 257.601 263.671ZM262.971 269.619C262.631 270.018 262.133 270.217 261.477 270.217C260.933 270.217 260.518 270.06 260.232 269.746C259.95 269.428 259.807 268.96 259.804 268.341V265.023H260.676V268.318C260.676 269.091 260.99 269.477 261.618 269.477C262.284 269.477 262.727 269.229 262.947 268.733V265.023H263.819V270.123H262.99L262.971 269.619ZM265.847 265.023L265.871 265.589C266.245 265.149 266.749 264.929 267.384 264.929C268.097 264.929 268.582 265.203 268.84 265.749C269.01 265.504 269.23 265.306 269.5 265.155C269.773 265.005 270.095 264.929 270.466 264.929C271.585 264.929 272.153 265.521 272.172 266.706V270.123H271.3V266.758C271.3 266.393 271.217 266.122 271.05 265.942C270.884 265.76 270.604 265.669 270.212 265.669C269.888 265.669 269.619 265.767 269.406 265.961C269.192 266.153 269.068 266.412 269.033 266.739V270.123H268.157V266.781C268.157 266.04 267.794 265.669 267.068 265.669C266.496 265.669 266.105 265.913 265.895 266.4V270.123H265.023V265.023H265.847ZM108.368 283.123C108.317 283.022 108.276 282.843 108.245 282.586C107.84 283.007 107.356 283.217 106.793 283.217C106.291 283.217 105.878 283.076 105.554 282.793C105.234 282.507 105.073 282.146 105.073 281.709C105.073 281.178 105.274 280.766 105.677 280.474C106.082 280.179 106.651 280.031 107.383 280.031H108.231V279.631C108.231 279.326 108.14 279.084 107.958 278.905C107.775 278.723 107.507 278.631 107.152 278.631C106.841 278.631 106.58 278.71 106.369 278.867C106.159 279.024 106.054 279.214 106.054 279.437H105.177C105.177 279.183 105.267 278.938 105.446 278.702C105.628 278.463 105.873 278.275 106.181 278.137C106.492 277.998 106.833 277.929 107.203 277.929C107.791 277.929 108.251 278.077 108.584 278.372C108.917 278.664 109.09 279.068 109.103 279.583V281.93C109.103 282.399 109.162 282.771 109.282 283.047V283.123H108.368ZM106.921 282.458C107.194 282.458 107.453 282.388 107.698 282.246C107.943 282.105 108.121 281.921 108.231 281.695V280.649H107.548C106.479 280.649 105.945 280.961 105.945 281.586C105.945 281.86 106.036 282.073 106.219 282.227C106.401 282.381 106.635 282.458 106.921 282.458ZM112.814 278.806C112.682 278.784 112.539 278.773 112.385 278.773C111.813 278.773 111.425 279.016 111.221 279.503V283.123H110.349V278.023H111.197L111.211 278.613C111.497 278.157 111.903 277.929 112.427 277.929C112.597 277.929 112.726 277.951 112.814 277.995V278.806ZM114.918 276.789V278.023H115.87V278.697H114.918V281.86C114.918 282.064 114.96 282.218 115.045 282.322C115.13 282.422 115.274 282.472 115.478 282.472C115.579 282.472 115.717 282.454 115.893 282.416V283.123C115.664 283.186 115.441 283.217 115.224 283.217C114.834 283.217 114.541 283.099 114.343 282.864C114.145 282.628 114.046 282.293 114.046 281.86V278.697H113.117V278.023H114.046V276.789H114.918ZM117.719 283.123H116.847V278.023H117.719V283.123ZM116.776 276.671C116.776 276.529 116.819 276.41 116.904 276.313C116.992 276.215 117.12 276.167 117.29 276.167C117.46 276.167 117.588 276.215 117.676 276.313C117.764 276.41 117.808 276.529 117.808 276.671C117.808 276.812 117.764 276.93 117.676 277.024C117.588 277.119 117.46 277.166 117.29 277.166C117.12 277.166 116.992 277.119 116.904 277.024C116.819 276.93 116.776 276.812 116.776 276.671ZM121.043 282.505C121.354 282.505 121.626 282.411 121.859 282.223C122.091 282.034 122.22 281.798 122.245 281.516H123.07C123.054 281.808 122.954 282.086 122.768 282.35C122.583 282.614 122.335 282.824 122.024 282.981C121.716 283.139 121.389 283.217 121.043 283.217C120.349 283.217 119.796 282.986 119.384 282.524C118.976 282.059 118.772 281.425 118.772 280.62V280.474C118.772 279.978 118.863 279.536 119.045 279.15C119.227 278.763 119.488 278.463 119.827 278.25C120.17 278.036 120.574 277.929 121.039 277.929C121.61 277.929 122.085 278.1 122.462 278.443C122.842 278.785 123.045 279.23 123.07 279.777H122.245C122.22 279.447 122.094 279.177 121.868 278.966C121.645 278.752 121.369 278.646 121.039 278.646C120.596 278.646 120.252 278.806 120.006 279.126C119.765 279.444 119.644 279.904 119.644 280.507V280.672C119.644 281.26 119.765 281.712 120.006 282.029C120.248 282.347 120.594 282.505 121.043 282.505ZM124.877 283.123H124.005V275.884H124.877V283.123ZM128.272 283.217C127.581 283.217 127.018 282.991 126.585 282.538C126.151 282.083 125.934 281.475 125.934 280.715V280.554C125.934 280.048 126.03 279.598 126.222 279.202C126.417 278.803 126.687 278.492 127.032 278.269C127.381 278.042 127.758 277.929 128.164 277.929C128.826 277.929 129.342 278.148 129.709 278.584C130.077 279.021 130.261 279.646 130.261 280.46V280.823H126.806C126.819 281.326 126.965 281.733 127.245 282.044C127.527 282.351 127.885 282.505 128.319 282.505C128.627 282.505 128.888 282.443 129.101 282.317C129.315 282.191 129.502 282.025 129.662 281.817L130.195 282.232C129.767 282.889 129.127 283.217 128.272 283.217ZM128.164 278.646C127.812 278.646 127.516 278.774 127.278 279.032C127.039 279.287 126.891 279.645 126.835 280.107H129.389V280.041C129.364 279.598 129.244 279.255 129.031 279.013C128.817 278.768 128.528 278.646 128.164 278.646ZM134.123 281.77C134.123 281.535 134.033 281.352 133.854 281.224C133.678 281.092 133.368 280.978 132.925 280.884C132.486 280.79 132.135 280.677 131.874 280.545C131.617 280.413 131.425 280.256 131.299 280.074C131.177 279.891 131.116 279.675 131.116 279.423C131.116 279.005 131.292 278.652 131.644 278.363C131.999 278.074 132.451 277.929 133.001 277.929C133.579 277.929 134.047 278.078 134.405 278.377C134.767 278.675 134.947 279.057 134.947 279.522H134.071C134.071 279.283 133.969 279.078 133.764 278.905C133.563 278.732 133.309 278.646 133.001 278.646C132.684 278.646 132.435 278.715 132.256 278.853C132.077 278.991 131.988 279.172 131.988 279.395C131.988 279.605 132.071 279.764 132.237 279.871C132.404 279.978 132.704 280.08 133.138 280.177C133.574 280.275 133.928 280.391 134.198 280.526C134.468 280.661 134.668 280.824 134.796 281.016C134.928 281.205 134.994 281.436 134.994 281.709C134.994 282.165 134.812 282.531 134.448 282.807C134.083 283.08 133.61 283.217 133.029 283.217C132.621 283.217 132.259 283.145 131.945 283C131.631 282.856 131.384 282.655 131.205 282.397C131.029 282.136 130.941 281.855 130.941 281.553H131.813C131.829 281.846 131.945 282.078 132.162 282.251C132.382 282.421 132.671 282.505 133.029 282.505C133.359 282.505 133.623 282.439 133.821 282.307C134.022 282.172 134.123 281.993 134.123 281.77ZM136.985 281.186H136.198L136.137 276.261H137.051L136.985 281.186ZM136.104 282.685C136.104 282.543 136.146 282.425 136.231 282.331C136.319 282.234 136.448 282.185 136.618 282.185C136.787 282.185 136.916 282.234 137.004 282.331C137.092 282.425 137.136 282.543 137.136 282.685C137.136 282.826 137.092 282.944 137.004 283.038C136.916 283.129 136.787 283.175 136.618 283.175C136.448 283.175 136.319 283.129 136.231 283.038C136.146 282.944 136.104 282.826 136.104 282.685Z" fill="#444444"/>
<g filter="url(#filter3_b)">
<path fill-rule="evenodd" clip-rule="evenodd" d="M90.0815 63.2574H316.3V119.963H90.0815V63.2574Z" fill="#F9F9F9" fill-opacity="0.94"/>
</g>
<line opacity="0.3" x1="90.0815" y1="120.114" x2="316.3" y2="120.114" stroke="black" stroke-width="0.301624"/>
<mask id="mask0" mask-type="alpha" maskUnits="userSpaceOnUse" x="96" y="92" width="215" height="22">
<path fill-rule="evenodd" clip-rule="evenodd" d="M96.1143 98.2459C96.1143 94.9142 98.8151 92.2134 102.147 92.2134H304.017C307.348 92.2134 310.049 94.9142 310.049 98.2459V107.898C310.049 111.229 307.348 113.93 304.017 113.93H102.147C98.8151 113.93 96.1143 111.229 96.1143 107.898V98.2459Z" fill="white"/>
</mask>
<g mask="url(#mask0)">
<path fill-rule="evenodd" clip-rule="evenodd" d="M96.1143 101.865C96.1143 98.4868 96.1143 96.7976 96.7718 95.5072C97.3501 94.3721 98.273 93.4492 99.4081 92.8709C100.698 92.2134 102.388 92.2134 105.766 92.2134H300.397C303.776 92.2134 305.465 92.2134 306.756 92.8709C307.891 93.4492 308.813 94.3721 309.392 95.5072C310.049 96.7976 310.049 98.4868 310.049 101.865V104.278C310.049 107.657 310.049 109.346 309.392 110.637C308.813 111.772 307.891 112.694 306.756 113.273C305.465 113.93 303.776 113.93 300.397 113.93H105.766C102.388 113.93 100.698 113.93 99.4081 113.273C98.273 112.694 97.3501 111.772 96.7718 110.637C96.1143 109.346 96.1143 107.657 96.1143 104.278V101.865Z" fill="#767680" fill-opacity="0.12"/>
<path d="M107.68 106.723C107.93 106.723 108.056 106.623 108.156 106.347L108.797 104.575H111.751L112.397 106.347C112.492 106.623 112.622 106.723 112.873 106.723C113.143 106.723 113.318 106.562 113.318 106.312C113.318 106.227 113.303 106.152 113.268 106.042L110.915 99.7924C110.8 99.482 110.594 99.3317 110.279 99.3317C109.963 99.3317 109.758 99.482 109.648 99.7874L107.294 106.047C107.254 106.157 107.239 106.232 107.239 106.317C107.239 106.567 107.41 106.723 107.68 106.723ZM109.042 103.808L110.259 100.438H110.289L111.501 103.808H109.042ZM102.642 106.723C102.848 106.723 102.988 106.623 103.073 106.362L103.474 105.205H105.306L105.707 106.362C105.802 106.628 105.942 106.723 106.143 106.723C106.398 106.723 106.573 106.562 106.573 106.327C106.573 106.242 106.553 106.152 106.508 106.027L105.016 102.061C104.911 101.77 104.706 101.585 104.385 101.585C104.08 101.585 103.879 101.77 103.774 102.061L102.277 106.027C102.227 106.152 102.217 106.242 102.217 106.327C102.217 106.562 102.387 106.723 102.642 106.723ZM103.699 104.524L104.36 102.572H104.425L105.086 104.524H103.699Z" fill="black"/>
<path d="M300.199 102.644C300.324 102.644 300.419 102.604 300.489 102.529L302.552 100.456C302.643 100.371 302.678 100.27 302.678 100.155C302.678 100.045 302.633 99.935 302.552 99.8549L300.489 97.7618C300.419 97.6817 300.319 97.6416 300.199 97.6416C299.974 97.6416 299.803 97.8219 299.803 98.0522C299.803 98.1574 299.843 98.2575 299.914 98.3376L301.251 99.6496C300.965 99.5995 300.675 99.5695 300.384 99.5695C297.931 99.5695 295.958 101.537 295.958 103.991C295.958 106.45 297.931 108.423 300.384 108.423C302.838 108.423 304.806 106.45 304.806 103.991C304.806 103.751 304.636 103.575 304.39 103.575C304.155 103.575 304 103.751 304 103.991C304 106.004 302.392 107.616 300.384 107.616C298.376 107.616 296.764 106.004 296.764 103.991C296.764 101.983 298.376 100.376 300.384 100.376C300.765 100.376 301.115 100.406 301.416 100.471L299.919 101.958C299.843 102.038 299.803 102.138 299.803 102.243C299.803 102.474 299.974 102.644 300.199 102.644Z" fill="black"/>
<path d="M176.978 107.827H181.185C181.755 107.827 182.033 107.544 182.033 106.926V103.683C182.033 103.126 181.803 102.839 181.33 102.79V101.677C181.33 100.011 180.239 99.2069 179.082 99.2069C177.924 99.2069 176.833 100.011 176.833 101.677V102.812C176.4 102.878 176.13 103.161 176.13 103.683V106.926C176.13 107.544 176.408 107.827 176.978 107.827ZM177.544 101.584C177.544 100.475 178.255 99.8873 179.082 99.8873C179.908 99.8873 180.619 100.475 180.619 101.584V102.786L177.544 102.79V101.584ZM188.64 106.928C189.361 106.928 189.952 106.613 190.302 106.037H190.382V106.833H191.203V103.137C191.203 102.016 190.467 101.34 189.15 101.34C187.999 101.34 187.147 101.911 187.032 102.777H187.904C188.024 102.351 188.474 102.106 189.12 102.106C189.927 102.106 190.342 102.471 190.342 103.137V103.628L188.785 103.723C187.528 103.798 186.817 104.354 186.817 105.321C186.817 106.307 187.593 106.928 188.64 106.928ZM188.8 106.172C188.174 106.172 187.708 105.851 187.708 105.301C187.708 104.76 188.069 104.474 188.89 104.419L190.342 104.324V104.82C190.342 105.591 189.686 106.172 188.8 106.172ZM196.755 101.435H195.833L194.356 105.881H194.276L192.799 101.435H191.878L193.875 106.833H194.757L196.755 101.435ZM198.11 100.393C198.44 100.393 198.711 100.123 198.711 99.7924C198.711 99.4619 198.44 99.1915 198.11 99.1915C197.779 99.1915 197.509 99.4619 197.509 99.7924C197.509 100.123 197.779 100.393 198.11 100.393ZM197.679 106.833H198.54V101.435H197.679V106.833ZM199.81 102.912C199.81 103.693 200.271 104.129 201.283 104.374L202.209 104.6C202.785 104.74 203.065 104.99 203.065 105.361C203.065 105.856 202.544 106.202 201.818 106.202C201.127 106.202 200.697 105.912 200.551 105.456H199.665C199.76 106.352 200.587 106.928 201.788 106.928C203.015 106.928 203.952 106.262 203.952 105.296C203.952 104.519 203.461 104.079 202.444 103.833L201.613 103.633C200.977 103.478 200.677 103.248 200.677 102.877C200.677 102.396 201.177 102.071 201.818 102.071C202.469 102.071 202.89 102.356 203.005 102.787H203.856C203.741 101.901 202.955 101.34 201.823 101.34C200.677 101.34 199.81 102.016 199.81 102.912ZM208.631 105.436C208.406 105.912 207.935 106.167 207.239 106.167C206.323 106.167 205.727 105.491 205.682 104.424V104.384H209.563V104.054C209.563 102.376 208.677 101.34 207.219 101.34C205.737 101.34 204.786 102.441 204.786 104.139C204.786 105.846 205.722 106.928 207.219 106.928C208.401 106.928 209.242 106.357 209.493 105.436H208.631ZM207.209 102.101C208.066 102.101 208.636 102.732 208.657 103.688H205.682C205.747 102.732 206.348 102.101 207.209 102.101ZM210.668 106.833H211.529V103.638C211.529 102.692 212.085 102.116 212.946 102.116C213.807 102.116 214.218 102.577 214.218 103.548V106.833H215.079V103.338C215.079 102.056 214.403 101.34 213.191 101.34C212.365 101.34 211.839 101.69 211.569 102.286H211.489V101.435H210.668V106.833ZM217.12 106.883C217.481 106.883 217.771 106.588 217.771 106.232C217.771 105.871 217.481 105.581 217.12 105.581C216.765 105.581 216.469 105.871 216.469 106.232C216.469 106.588 216.765 106.883 217.12 106.883ZM219.206 106.833H220.068V103.638C220.068 102.692 220.623 102.116 221.485 102.116C222.346 102.116 222.757 102.577 222.757 103.548V106.833H223.618V103.338C223.618 102.056 222.942 101.34 221.73 101.34C220.904 101.34 220.378 101.69 220.108 102.286H220.028V101.435H219.206V106.833ZM227.166 106.928C228.703 106.928 229.655 105.866 229.655 104.134C229.655 102.396 228.703 101.34 227.166 101.34C225.629 101.34 224.677 102.396 224.677 104.134C224.677 105.866 225.629 106.928 227.166 106.928ZM227.166 106.152C226.145 106.152 225.569 105.411 225.569 104.134C225.569 102.852 226.145 102.116 227.166 102.116C228.188 102.116 228.764 102.852 228.764 104.134C228.764 105.411 228.188 106.152 227.166 106.152Z" fill="black"/>
</g>
<path opacity="0.35" d="M293.075 75.3224C293.075 74.6006 293.66 74.0154 294.382 74.0154H304.436C305.158 74.0154 305.743 74.6006 305.743 75.3224V78.9419C305.743 79.6638 305.158 80.2489 304.436 80.2489H294.382C293.66 80.2489 293.075 79.6638 293.075 78.9419V75.3224Z" stroke="black" stroke-width="0.603248"/>
<path opacity="0.4" d="M306.647 75.9257V78.3387C307.133 78.1343 307.449 77.6589 307.449 77.1322C307.449 76.6054 307.133 76.13 306.647 75.9257Z" fill="black"/>
<path d="M293.979 75.7246C293.979 75.2804 294.34 74.9203 294.784 74.9203H304.034C304.478 74.9203 304.838 75.2804 304.838 75.7246V78.5398C304.838 78.984 304.478 79.3441 304.034 79.3441H294.784C294.34 79.3441 293.979 78.984 293.979 78.5398V75.7246Z" fill="black"/>
<path fill-rule="evenodd" clip-rule="evenodd" d="M285.13 75.086C286.466 75.086 287.752 75.5996 288.721 76.5207C288.794 76.5918 288.91 76.5909 288.982 76.5187L289.68 75.8149C289.716 75.7782 289.736 75.7286 289.736 75.677C289.736 75.6254 289.715 75.576 289.678 75.5398C287.135 73.1029 283.124 73.1029 280.581 75.5398C280.544 75.576 280.523 75.6253 280.523 75.677C280.523 75.7286 280.543 75.7782 280.579 75.8149L281.277 76.5187C281.349 76.591 281.465 76.5919 281.538 76.5207C282.507 75.5996 283.793 75.0859 285.13 75.086ZM285.13 77.3757C285.864 77.3757 286.573 77.6486 287.117 78.1416C287.191 78.2116 287.307 78.2101 287.378 78.1382L288.075 77.4344C288.112 77.3975 288.132 77.3474 288.131 77.2954C288.131 77.2433 288.11 77.1937 288.072 77.1575C286.414 75.6154 283.847 75.6154 282.189 77.1575C282.152 77.1937 282.13 77.2434 282.13 77.2954C282.129 77.3475 282.15 77.3976 282.186 77.4344L282.883 78.1382C282.955 78.2101 283.071 78.2116 283.144 78.1416C283.688 77.649 284.396 77.376 285.13 77.3757ZM286.525 78.9163C286.526 78.9685 286.506 79.0188 286.469 79.0553L285.264 80.2713C285.228 80.307 285.18 80.3271 285.13 80.3271C285.08 80.3271 285.032 80.307 284.996 80.2713L283.791 79.0553C283.754 79.0188 283.733 78.9684 283.735 78.9162C283.736 78.8641 283.758 78.8146 283.797 78.7797C284.566 78.1288 285.693 78.1288 286.463 78.7797C286.502 78.8147 286.524 78.8641 286.525 78.9163Z" fill="black"/>
<path fill-rule="evenodd" clip-rule="evenodd" d="M276.887 73.9148H276.284C275.951 73.9148 275.681 74.1849 275.681 74.518V79.7462C275.681 80.0794 275.951 80.3494 276.284 80.3494H276.887C277.22 80.3494 277.491 80.0794 277.491 79.7462V74.518C277.491 74.1849 277.22 73.9148 276.887 73.9148ZM273.469 75.3224H274.072C274.405 75.3224 274.675 75.5925 274.675 75.9256V79.7462C274.675 80.0794 274.405 80.3495 274.072 80.3495H273.469C273.136 80.3495 272.865 80.0794 272.865 79.7462V75.9256C272.865 75.5925 273.136 75.3224 273.469 75.3224ZM271.257 76.7299H270.654C270.32 76.7299 270.05 77 270.05 77.3332V79.7462C270.05 80.0793 270.32 80.3494 270.654 80.3494H271.257C271.59 80.3494 271.86 80.0793 271.86 79.7462V77.3332C271.86 77 271.59 76.7299 271.257 76.7299ZM268.442 77.9364H267.839C267.505 77.9364 267.235 78.2065 267.235 78.5397V79.7462C267.235 80.0793 267.505 80.3494 267.839 80.3494H268.442C268.775 80.3494 269.045 80.0793 269.045 79.7462V78.5397C269.045 78.2065 268.775 77.9364 268.442 77.9364Z" fill="black"/>
<path d="M108.575 80.0997H109.715V73.7241H108.58L106.914 74.8949V75.9686L108.5 74.8463H108.575V80.0997ZM112.849 77.2543H113.649C114.435 77.2543 114.912 77.6476 114.912 78.2882C114.912 78.9068 114.395 79.3221 113.662 79.3221C112.924 79.3221 112.425 78.9421 112.376 78.3501H111.285C111.338 79.5033 112.288 80.2588 113.675 80.2588C115.054 80.2588 116.079 79.4635 116.079 78.3677C116.079 77.4973 115.535 76.9362 114.669 76.8037V76.7286C115.345 76.5474 115.827 76.0393 115.831 75.2705C115.836 74.3559 115.071 73.565 113.715 73.565C112.332 73.565 111.466 74.3471 111.409 75.4649H112.478C112.526 74.8287 112.959 74.4752 113.653 74.4752C114.329 74.4752 114.731 74.8905 114.731 75.4163C114.731 75.9951 114.28 76.4016 113.627 76.4016H112.849V77.2543ZM117.98 75.973C118.399 75.973 118.687 75.6814 118.687 75.2882C118.687 74.8949 118.399 74.6033 117.98 74.6033C117.564 74.6033 117.273 74.8949 117.273 75.2882C117.273 75.6814 117.564 75.973 117.98 75.973ZM117.98 79.2161C118.399 79.2161 118.687 78.92 118.687 78.5312C118.687 78.138 118.399 77.8464 117.98 77.8464C117.564 77.8464 117.273 78.138 117.273 78.5312C117.273 78.92 117.564 79.2161 117.98 79.2161ZM121.529 80.0997H122.668V73.7241H121.533L119.867 74.8949V75.9686L121.453 74.8463H121.529V80.0997ZM124.273 75.6107H125.343C125.343 74.9391 125.784 74.4796 126.478 74.4796C127.145 74.4796 127.543 74.9259 127.543 75.5047C127.543 75.9907 127.348 76.2956 126.544 77.1085L124.335 79.3309V80.0997H128.762V79.1542H125.882V79.0791L127.251 77.7315C128.347 76.6579 128.67 76.1409 128.67 75.3986C128.67 74.3382 127.808 73.565 126.54 73.565C125.21 73.565 124.273 74.4045 124.273 75.6107Z" fill="black"/>
<g filter="url(#filter4_b)">
<path fill-rule="evenodd" clip-rule="evenodd" d="M90.0815 503.025H316.3V553.095H90.0815V503.025Z" fill="#F9F9F9" fill-opacity="0.94"/>
</g>
<line opacity="0.3" x1="90.0815" y1="502.875" x2="316.3" y2="502.875" stroke="black" stroke-width="0.301624"/>
<path fill-rule="evenodd" clip-rule="evenodd" d="M162.664 546.691C162.664 545.858 163.339 545.183 164.172 545.183H241.991C242.824 545.183 243.499 545.858 243.499 546.691C243.499 547.524 242.824 548.199 241.991 548.199H164.172C163.339 548.199 162.664 547.524 162.664 546.691Z" fill="black"/>
<path d="M292.934 520.157H294.132V521.272C294.132 522.607 294.813 523.281 296.167 523.281H303.088C304.443 523.281 305.123 522.607 305.123 521.272V514.383C305.123 513.055 304.443 512.381 303.088 512.381H301.889V511.331C301.889 509.996 301.202 509.322 299.855 509.322H292.934C291.573 509.322 290.899 509.996 290.899 511.331V518.155C290.899 519.49 291.573 520.157 292.934 520.157ZM292.947 519.114C292.299 519.114 291.942 518.77 291.942 518.096V511.389C291.942 510.715 292.299 510.365 292.947 510.365H299.835C300.477 510.365 300.846 510.715 300.846 511.389V512.381H296.167C294.813 512.381 294.132 513.048 294.132 514.383V519.114H292.947ZM296.187 522.237C295.539 522.237 295.176 521.887 295.176 521.213V514.442C295.176 513.768 295.539 513.424 296.187 513.424H303.075C303.717 513.424 304.08 513.768 304.08 514.442V521.22C304.08 521.887 303.717 522.237 303.075 522.237H296.187Z" fill="#007AFF"/>
<path d="M250.397 511.785C249.905 511.163 248.68 510.612 247.313 510.612C245.518 510.612 244.066 511.538 243.71 512.407V521.46C243.71 521.952 244.027 522.14 244.384 522.14C244.662 522.14 244.831 522.056 245.006 521.92C245.375 521.602 246.12 521.174 247.313 521.174C248.512 521.174 249.348 521.589 249.672 521.881C249.84 522.017 250.041 522.14 250.397 522.14C250.754 522.14 250.955 522.004 251.123 521.881C251.473 521.609 252.29 521.174 253.482 521.174C254.681 521.174 255.426 521.609 255.795 521.92C255.97 522.056 256.132 522.14 256.411 522.14C256.767 522.14 257.091 521.952 257.091 521.46V512.407C256.735 511.538 255.277 510.612 253.482 510.612C252.121 510.612 250.896 511.163 250.397 511.785ZM244.753 512.718C244.902 512.316 245.842 511.59 247.313 511.59C248.79 511.59 249.749 512.322 249.879 512.718V520.915C249.263 520.455 248.324 520.196 247.313 520.196C246.308 520.196 245.369 520.455 244.753 520.941V512.718ZM256.048 512.718V520.941C255.426 520.455 254.493 520.196 253.482 520.196C252.471 520.196 251.538 520.455 250.922 520.915V512.718C251.052 512.322 252.011 511.59 253.482 511.59C254.959 511.59 255.899 512.316 256.048 512.718Z" fill="#007AFF"/>
<path d="M203.395 518.109C203.674 518.109 203.907 517.876 203.907 517.604V510.949L203.869 509.977L204.303 510.437L205.288 511.487C205.378 511.59 205.515 511.642 205.638 511.642C205.903 511.642 206.111 511.448 206.111 511.182C206.111 511.046 206.052 510.942 205.955 510.845L203.765 508.732C203.635 508.603 203.525 508.557 203.395 508.557C203.259 508.557 203.149 508.603 203.02 508.732L200.829 510.845C200.732 510.942 200.674 511.046 200.674 511.182C200.674 511.448 200.868 511.642 201.14 511.642C201.263 511.642 201.406 511.59 201.497 511.487L202.482 510.437L202.916 509.977L202.877 510.949V517.604C202.877 517.876 203.117 518.109 203.395 518.109ZM199.676 523.183H207.109C208.463 523.183 209.143 522.509 209.143 521.174V514.707C209.143 513.372 208.463 512.698 207.109 512.698H205.301V513.742H207.089C207.731 513.742 208.1 514.092 208.1 514.766V521.116C208.1 521.79 207.731 522.14 207.089 522.14H199.689C199.041 522.14 198.684 521.79 198.684 521.116V514.766C198.684 514.092 199.041 513.742 199.689 513.742H201.484V512.698H199.676C198.321 512.698 197.641 513.372 197.641 514.707V521.174C197.641 522.509 198.321 523.183 199.676 523.183Z" fill="#007AFF"/>
<path d="M153.206 521.978C153.374 521.978 153.517 521.913 153.627 521.803L158.766 516.781C158.889 516.658 158.954 516.509 158.954 516.347C158.954 516.178 158.889 516.023 158.766 515.913L153.634 510.897C153.517 510.78 153.374 510.715 153.206 510.715C152.869 510.715 152.616 510.975 152.616 511.312C152.616 511.467 152.681 511.623 152.785 511.733L157.502 516.347L152.785 520.961C152.681 521.071 152.616 521.22 152.616 521.382C152.616 521.719 152.869 521.978 153.206 521.978Z" fill="#CBCBCB"/>
<path d="M110.332 521.797C110.442 521.907 110.585 521.972 110.753 521.972C111.09 521.972 111.343 521.719 111.343 521.382C111.343 521.22 111.278 521.071 111.175 520.961L106.457 516.347L111.175 511.733C111.278 511.623 111.343 511.467 111.343 511.312C111.343 510.975 111.09 510.715 110.753 510.715C110.585 510.715 110.442 510.78 110.332 510.89L105.2 515.913C105.077 516.016 105.005 516.178 105.005 516.347C105.005 516.509 105.07 516.658 105.193 516.781L110.332 521.797Z" fill="#007AFF"/>
</g>
<g filter="url(#filter5_d)">
<rect x="104.56" y="402.283" width="197.262" height="26.5429" rx="3.01624" fill="#49367E"/>
</g>
<path d="M154.847 411.446V416.175C154.847 416.926 154.606 417.522 154.123 417.963C153.643 418.4 153.004 418.619 152.203 418.619C151.393 418.619 150.75 418.404 150.274 417.973C149.797 417.539 149.559 416.938 149.559 416.17V411.446H150.784V416.179C150.784 416.652 150.904 417.014 151.144 417.263C151.383 417.513 151.737 417.637 152.203 417.637C153.149 417.637 153.622 417.138 153.622 416.14V411.446H154.847ZM160.534 415.946C160.534 416.759 160.35 417.409 159.98 417.895C159.611 418.378 159.115 418.619 158.493 418.619C157.916 418.619 157.455 418.43 157.108 418.051V420.544H155.927V413.263H157.016L157.064 413.798C157.411 413.377 157.882 413.166 158.479 413.166C159.12 413.166 159.622 413.406 159.985 413.885C160.351 414.362 160.534 415.024 160.534 415.873V415.946ZM159.358 415.844C159.358 415.319 159.253 414.903 159.042 414.595C158.835 414.287 158.537 414.133 158.148 414.133C157.665 414.133 157.319 414.333 157.108 414.731V417.064C157.322 417.472 157.672 417.676 158.158 417.676C158.534 417.676 158.827 417.526 159.037 417.224C159.251 416.92 159.358 416.46 159.358 415.844ZM161.196 415.854C161.196 415.044 161.384 414.394 161.76 413.905C162.136 413.412 162.64 413.166 163.272 413.166C163.829 413.166 164.279 413.36 164.623 413.749V411.057H165.804V418.522H164.734L164.676 417.978C164.323 418.405 163.852 418.619 163.262 418.619C162.646 418.619 162.147 418.371 161.765 417.876C161.386 417.38 161.196 416.706 161.196 415.854ZM162.377 415.956C162.377 416.49 162.479 416.908 162.683 417.21C162.891 417.508 163.184 417.657 163.563 417.657C164.046 417.657 164.399 417.441 164.623 417.01V414.765C164.406 414.344 164.056 414.133 163.573 414.133C163.191 414.133 162.896 414.286 162.688 414.59C162.481 414.891 162.377 415.347 162.377 415.956ZM170.057 418.522C170.005 418.422 169.96 418.258 169.921 418.031C169.545 418.423 169.085 418.619 168.541 418.619C168.013 418.619 167.582 418.469 167.248 418.167C166.914 417.866 166.747 417.493 166.747 417.049C166.747 416.489 166.955 416.059 167.369 415.761C167.787 415.46 168.384 415.309 169.158 415.309H169.882V414.964C169.882 414.692 169.806 414.475 169.654 414.313C169.501 414.148 169.27 414.065 168.959 414.065C168.69 414.065 168.47 414.133 168.298 414.269C168.126 414.402 168.04 414.572 168.04 414.78H166.859C166.859 414.491 166.955 414.222 167.146 413.973C167.337 413.72 167.596 413.522 167.924 413.38C168.254 413.237 168.622 413.166 169.027 413.166C169.642 413.166 170.133 413.322 170.499 413.633C170.866 413.94 171.053 414.375 171.063 414.935V417.307C171.063 417.78 171.13 418.157 171.262 418.439V418.522H170.057ZM168.759 417.671C168.993 417.671 169.211 417.615 169.416 417.501C169.623 417.388 169.779 417.236 169.882 417.044V416.053H169.246C168.808 416.053 168.479 416.129 168.259 416.281C168.039 416.434 167.928 416.649 167.928 416.928C167.928 417.155 168.003 417.336 168.152 417.472C168.304 417.605 168.507 417.671 168.759 417.671ZM173.659 411.985V413.263H174.588V414.138H173.659V417.074C173.659 417.275 173.698 417.42 173.776 417.511C173.857 417.599 174 417.642 174.204 417.642C174.34 417.642 174.478 417.626 174.617 417.594V418.507C174.348 418.582 174.089 418.619 173.839 418.619C172.932 418.619 172.478 418.119 172.478 417.117V414.138H171.613V413.263H172.478V411.985H173.659ZM177.689 418.619C176.941 418.619 176.333 418.384 175.867 417.914C175.403 417.441 175.172 416.813 175.172 416.029V415.883C175.172 415.358 175.272 414.89 175.473 414.478C175.677 414.064 175.962 413.741 176.328 413.511C176.695 413.281 177.103 413.166 177.553 413.166C178.269 413.166 178.822 413.395 179.211 413.851C179.603 414.308 179.799 414.955 179.799 415.791V416.267H176.362C176.398 416.701 176.542 417.044 176.795 417.297C177.051 417.55 177.372 417.676 177.757 417.676C178.298 417.676 178.739 417.458 179.079 417.02L179.716 417.628C179.505 417.942 179.223 418.187 178.87 418.362C178.52 418.533 178.127 418.619 177.689 418.619ZM177.548 414.114C177.224 414.114 176.962 414.227 176.761 414.454C176.563 414.681 176.437 414.997 176.382 415.402H178.632V415.314C178.606 414.919 178.501 414.621 178.316 414.42C178.132 414.216 177.876 414.114 177.548 414.114ZM187.562 415.946C187.562 416.759 187.377 417.409 187.008 417.895C186.639 418.378 186.143 418.619 185.521 418.619C184.944 418.619 184.482 418.43 184.136 418.051V420.544H182.955V413.263H184.043L184.092 413.798C184.439 413.377 184.91 413.166 185.506 413.166C186.148 413.166 186.65 413.406 187.013 413.885C187.379 414.362 187.562 415.024 187.562 415.873V415.946ZM186.386 415.844C186.386 415.319 186.281 414.903 186.07 414.595C185.863 414.287 185.564 414.133 185.176 414.133C184.693 414.133 184.346 414.333 184.136 414.731V417.064C184.349 417.472 184.699 417.676 185.185 417.676C185.561 417.676 185.854 417.526 186.065 417.224C186.279 416.92 186.386 416.46 186.386 415.844ZM191.587 418.522C191.535 418.422 191.49 418.258 191.451 418.031C191.075 418.423 190.615 418.619 190.071 418.619C189.543 418.619 189.112 418.469 188.778 418.167C188.444 417.866 188.277 417.493 188.277 417.049C188.277 416.489 188.485 416.059 188.899 415.761C189.317 415.46 189.914 415.309 190.688 415.309H191.412V414.964C191.412 414.692 191.336 414.475 191.184 414.313C191.031 414.148 190.8 414.065 190.489 414.065C190.22 414.065 189.999 414.133 189.828 414.269C189.656 414.402 189.57 414.572 189.57 414.78H188.389C188.389 414.491 188.485 414.222 188.676 413.973C188.867 413.72 189.126 413.522 189.453 413.38C189.784 413.237 190.152 413.166 190.557 413.166C191.172 413.166 191.663 413.322 192.029 413.633C192.395 413.94 192.583 414.375 192.593 414.935V417.307C192.593 417.78 192.66 418.157 192.792 418.439V418.522H191.587ZM190.289 417.671C190.523 417.671 190.741 417.615 190.946 417.501C191.153 417.388 191.308 417.236 191.412 417.044V416.053H190.775C190.338 416.053 190.009 416.129 189.789 416.281C189.568 416.434 189.458 416.649 189.458 416.928C189.458 417.155 189.533 417.336 189.682 417.472C189.834 417.605 190.037 417.671 190.289 417.671ZM195.471 416.831L196.54 413.263H197.799L195.709 419.319C195.389 420.204 194.844 420.646 194.076 420.646C193.905 420.646 193.715 420.617 193.508 420.558V419.645L193.731 419.659C194.029 419.659 194.253 419.604 194.402 419.494C194.554 419.387 194.674 419.206 194.762 418.95L194.932 418.498L193.085 413.263H194.358L195.471 416.831ZM199.472 413.263L199.506 413.812C199.875 413.382 200.381 413.166 201.022 413.166C201.725 413.166 202.207 413.435 202.466 413.973C202.848 413.435 203.386 413.166 204.079 413.166C204.659 413.166 205.09 413.326 205.372 413.647C205.657 413.968 205.803 414.441 205.81 415.066V418.522H204.629V415.1C204.629 414.767 204.556 414.522 204.41 414.367C204.264 414.211 204.023 414.133 203.686 414.133C203.417 414.133 203.196 414.206 203.025 414.352C202.856 414.495 202.738 414.682 202.67 414.916L202.675 418.522H201.494V415.062C201.478 414.443 201.162 414.133 200.546 414.133C200.073 414.133 199.738 414.326 199.54 414.712V418.522H198.359V413.263H199.472ZM209.217 418.619C208.469 418.619 207.861 418.384 207.395 417.914C206.931 417.441 206.7 416.813 206.7 416.029V415.883C206.7 415.358 206.8 414.89 207.001 414.478C207.205 414.064 207.49 413.741 207.857 413.511C208.223 413.281 208.631 413.166 209.081 413.166C209.797 413.166 210.35 413.395 210.739 413.851C211.131 414.308 211.327 414.955 211.327 415.791V416.267H207.891C207.926 416.701 208.07 417.044 208.323 417.297C208.579 417.55 208.9 417.676 209.285 417.676C209.827 417.676 210.267 417.458 210.607 417.02L211.244 417.628C211.033 417.942 210.752 418.187 210.398 418.362C210.048 418.533 209.655 418.619 209.217 418.619ZM209.076 414.114C208.752 414.114 208.49 414.227 208.289 414.454C208.091 414.681 207.965 414.997 207.91 415.402H210.16V415.314C210.134 414.919 210.029 414.621 209.844 414.42C209.66 414.216 209.404 414.114 209.076 414.114ZM213.223 413.263L213.257 413.871C213.646 413.401 214.156 413.166 214.788 413.166C215.883 413.166 216.44 413.793 216.46 415.047V418.522H215.279V415.115C215.279 414.781 215.206 414.535 215.06 414.376C214.918 414.214 214.683 414.133 214.355 414.133C213.879 414.133 213.524 414.349 213.291 414.78V418.522H212.11V413.263H213.223ZM219.027 411.985V413.263H219.955V414.138H219.027V417.074C219.027 417.275 219.066 417.42 219.144 417.511C219.225 417.599 219.367 417.642 219.571 417.642C219.707 417.642 219.845 417.626 219.984 417.594V418.507C219.715 418.582 219.456 418.619 219.207 418.619C218.299 418.619 217.846 418.119 217.846 417.117V414.138H216.981V413.263H217.846V411.985H219.027ZM222.878 415.844C222.878 415.329 222.98 414.866 223.184 414.454C223.388 414.039 223.675 413.722 224.044 413.501C224.414 413.278 224.838 413.166 225.318 413.166C226.027 413.166 226.602 413.395 227.043 413.851C227.487 414.308 227.727 414.914 227.762 415.669L227.767 415.946C227.767 416.465 227.667 416.928 227.466 417.336C227.268 417.744 226.983 418.06 226.61 418.284C226.241 418.507 225.813 418.619 225.327 418.619C224.585 418.619 223.991 418.373 223.544 417.88C223.1 417.385 222.878 416.725 222.878 415.902V415.844ZM224.059 415.946C224.059 416.487 224.171 416.912 224.394 417.219C224.618 417.524 224.929 417.676 225.327 417.676C225.726 417.676 226.035 417.521 226.256 417.21C226.479 416.899 226.591 416.443 226.591 415.844C226.591 415.313 226.476 414.891 226.246 414.58C226.019 414.269 225.71 414.114 225.318 414.114C224.932 414.114 224.626 414.268 224.399 414.576C224.172 414.88 224.059 415.337 224.059 415.946ZM233.25 415.946C233.25 416.759 233.066 417.409 232.696 417.895C232.327 418.378 231.831 418.619 231.209 418.619C230.632 418.619 230.171 418.43 229.824 418.051V420.544H228.643V413.263H229.732L229.78 413.798C230.127 413.377 230.598 413.166 231.194 413.166C231.836 413.166 232.338 413.406 232.701 413.885C233.067 414.362 233.25 415.024 233.25 415.873V415.946ZM232.074 415.844C232.074 415.319 231.969 414.903 231.758 414.595C231.551 414.287 231.253 414.133 230.864 414.133C230.381 414.133 230.034 414.333 229.824 414.731V417.064C230.038 417.472 230.388 417.676 230.874 417.676C231.249 417.676 231.543 417.526 231.753 417.224C231.967 416.92 232.074 416.46 232.074 415.844ZM235.613 411.985V413.263H236.541V414.138H235.613V417.074C235.613 417.275 235.652 417.42 235.73 417.511C235.811 417.599 235.953 417.642 236.157 417.642C236.294 417.642 236.431 417.626 236.571 417.594V418.507C236.302 418.582 236.042 418.619 235.793 418.619C234.886 418.619 234.432 418.119 234.432 417.117V414.138H233.567V413.263H234.432V411.985H235.613ZM238.584 418.522H237.403V413.263H238.584V418.522ZM237.33 411.898C237.33 411.716 237.386 411.565 237.5 411.446C237.616 411.326 237.782 411.266 237.995 411.266C238.209 411.266 238.375 411.326 238.491 411.446C238.608 411.565 238.666 411.716 238.666 411.898C238.666 412.076 238.608 412.225 238.491 412.345C238.375 412.461 238.209 412.52 237.995 412.52C237.782 412.52 237.616 412.461 237.5 412.345C237.386 412.225 237.33 412.076 237.33 411.898ZM239.532 415.844C239.532 415.329 239.634 414.866 239.838 414.454C240.042 414.039 240.329 413.722 240.699 413.501C241.068 413.278 241.492 413.166 241.972 413.166C242.682 413.166 243.257 413.395 243.697 413.851C244.141 414.308 244.381 414.914 244.417 415.669L244.421 415.946C244.421 416.465 244.321 416.928 244.12 417.336C243.922 417.744 243.637 418.06 243.265 418.284C242.895 418.507 242.468 418.619 241.982 418.619C241.24 418.619 240.645 418.373 240.198 417.88C239.754 417.385 239.532 416.725 239.532 415.902V415.844ZM240.713 415.946C240.713 416.487 240.825 416.912 241.049 417.219C241.272 417.524 241.583 417.676 241.982 417.676C242.38 417.676 242.69 417.521 242.91 417.21C243.134 416.899 243.245 416.443 243.245 415.844C243.245 415.313 243.13 414.891 242.9 414.58C242.673 414.269 242.364 414.114 241.972 414.114C241.586 414.114 241.28 414.268 241.053 414.576C240.827 414.88 240.713 415.337 240.713 415.946ZM246.396 413.263L246.43 413.871C246.818 413.401 247.329 413.166 247.96 413.166C249.056 413.166 249.613 413.793 249.632 415.047V418.522H248.451V415.115C248.451 414.781 248.378 414.535 248.233 414.376C248.09 414.214 247.855 414.133 247.528 414.133C247.052 414.133 246.697 414.349 246.464 414.78V418.522H245.283V413.263H246.396ZM253.667 417.093C253.667 416.882 253.58 416.722 253.405 416.612C253.233 416.502 252.946 416.405 252.544 416.32C252.143 416.236 251.807 416.129 251.538 416C250.949 415.714 250.654 415.301 250.654 414.76C250.654 414.307 250.845 413.928 251.227 413.623C251.61 413.318 252.096 413.166 252.685 413.166C253.314 413.166 253.821 413.322 254.207 413.633C254.595 413.944 254.79 414.347 254.79 414.843H253.609C253.609 414.616 253.525 414.428 253.356 414.279C253.188 414.127 252.964 414.051 252.685 414.051C252.426 414.051 252.214 414.111 252.049 414.23C251.887 414.35 251.806 414.511 251.806 414.712C251.806 414.893 251.882 415.034 252.034 415.134C252.186 415.235 252.494 415.337 252.958 415.441C253.421 415.541 253.784 415.663 254.046 415.805C254.312 415.944 254.508 416.113 254.634 416.311C254.764 416.508 254.829 416.748 254.829 417.03C254.829 417.503 254.633 417.887 254.241 418.182C253.849 418.473 253.335 418.619 252.7 418.619C252.269 418.619 251.885 418.541 251.548 418.386C251.211 418.23 250.949 418.017 250.761 417.744C250.573 417.472 250.479 417.179 250.479 416.865H251.626C251.642 417.143 251.747 417.359 251.942 417.511C252.136 417.66 252.394 417.735 252.715 417.735C253.026 417.735 253.262 417.676 253.424 417.56C253.586 417.44 253.667 417.284 253.667 417.093Z" fill="white"/>
</g>
<path fill-rule="evenodd" clip-rule="evenodd" d="M90.0815 94.5298C90.0815 83.3541 90.0815 77.7663 92.3253 73.5285C94.136 70.1087 96.9328 67.3119 100.353 65.5012C104.59 63.2574 110.178 63.2574 121.354 63.2574H90.0815V94.5298ZM90.0815 521.823V553.095H121.354C110.178 553.095 104.59 553.095 100.353 550.851C96.9328 549.04 94.136 546.244 92.3253 542.824C90.0815 538.586 90.0815 532.998 90.0815 521.823ZM285.027 553.095H316.3V521.823C316.3 532.998 316.3 538.586 314.056 542.824C312.245 546.244 309.448 549.04 306.029 550.851C301.791 553.095 296.203 553.095 285.027 553.095ZM316.3 94.5298V63.2574H285.027C296.203 63.2574 301.791 63.2574 306.029 65.5012C309.448 67.3119 312.245 70.1087 314.056 73.5285C316.3 77.7663 316.3 83.3541 316.3 94.5298ZM269.85 63.2574H265.627H140.754H136.532C138.864 63.2574 140.754 64.4639 140.754 66.2737V63.2574C140.754 67.7469 140.754 69.9916 141.292 71.8224C142.564 76.1559 145.953 79.5449 150.287 80.8173C152.118 81.3549 154.362 81.3549 158.852 81.3549H247.529C252.019 81.3549 254.263 81.3549 256.094 80.8173C260.428 79.5449 263.817 76.1559 265.089 71.8224C265.627 69.9916 265.627 67.7469 265.627 63.2574V66.2737C265.627 64.4639 267.517 63.2574 269.85 63.2574Z" fill="white"/>
<rect x="173" y="64.6934" width="42.4774" height="5.46138" rx="2.73069" fill="#F0F3F5"/>
<path d="M228.524 71.6718C230.87 71.6718 232.772 69.77 232.772 67.424C232.772 65.078 230.87 63.1763 228.524 63.1763C226.178 63.1763 224.276 65.078 224.276 67.424C224.276 69.77 226.178 71.6718 228.524 71.6718Z" fill="#F0F3F5"/>
<defs>
<filter id="filter0_di" x="72.587" y="42.1796" width="264.79" height="529.616" filterUnits="userSpaceOnUse" color-interpolation-filters="sRGB">
<feFlood flood-opacity="0" result="BackgroundImageFix"/>
<feColorMatrix in="SourceAlpha" type="matrix" values="0 0 0 0 0 0 0 0 0 0 0 0 0 0 0 0 0 0 127 0"/>
<feOffset dy="1.2065"/>
<feGaussianBlur stdDeviation="1.2065"/>
<feColorMatrix type="matrix" values="0 0 0 0 0 0 0 0 0 0 0 0 0 0 0 0 0 0 0.25 0"/>
<feBlend mode="normal" in2="BackgroundImageFix" result="effect1_dropShadow"/>
<feBlend mode="normal" in="SourceGraphic" in2="effect1_dropShadow" result="shape"/>
<feColorMatrix in="SourceAlpha" type="matrix" values="0 0 0 0 0 0 0 0 0 0 0 0 0 0 0 0 0 0 127 0" result="hardAlpha"/>
<feOffset dx="10.2799" dy="-8.85216"/>
<feGaussianBlur stdDeviation="2.99831"/>
<feComposite in2="hardAlpha" operator="arithmetic" k2="-1" k3="1"/>
<feColorMatrix type="matrix" values="0 0 0 0 1 0 0 0 0 1 0 0 0 0 1 0 0 0 0.05 0"/>
<feBlend mode="normal" in2="shape" result="effect2_innerShadow"/>
</filter>
<filter id="filter1_dd" x="87.6686" y="118.153" width="231.044" height="49.4664" filterUnits="userSpaceOnUse" color-interpolation-filters="sRGB">
<feFlood flood-opacity="0" result="BackgroundImageFix"/>
<feColorMatrix in="SourceAlpha" type="matrix" values="0 0 0 0 0 0 0 0 0 0 0 0 0 0 0 0 0 0 127 0"/>
<feOffset dy="0.603248"/>
<feGaussianBlur stdDeviation="1.2065"/>
<feColorMatrix type="matrix" values="0 0 0 0 0.0862745 0 0 0 0 0.0705882 0 0 0 0 0.145098 0 0 0 0.17 0"/>
<feBlend mode="normal" in2="BackgroundImageFix" result="effect1_dropShadow"/>
<feColorMatrix in="SourceAlpha" type="matrix" values="0 0 0 0 0 0 0 0 0 0 0 0 0 0 0 0 0 0 127 0"/>
<feOffset dy="0.603248"/>
<feGaussianBlur stdDeviation="0.301624"/>
<feColorMatrix type="matrix" values="0 0 0 0 0.0862745 0 0 0 0 0.0705882 0 0 0 0 0.145098 0 0 0 0.0498188 0"/>
<feBlend mode="normal" in2="effect1_dropShadow" result="effect2_dropShadow"/>
<feBlend mode="normal" in="SourceGraphic" in2="effect2_dropShadow" result="shape"/>
</filter>
<filter id="filter2_d" x="103.353" y="367.294" width="199.675" height="28.9559" filterUnits="userSpaceOnUse" color-interpolation-filters="sRGB">
<feFlood flood-opacity="0" result="BackgroundImageFix"/>
<feColorMatrix in="SourceAlpha" type="matrix" values="0 0 0 0 0 0 0 0 0 0 0 0 0 0 0 0 0 0 127 0"/>
<feOffset dy="0.603248"/>
<feGaussianBlur stdDeviation="0.603248"/>
<feColorMatrix type="matrix" values="0 0 0 0 0.0862745 0 0 0 0 0.0705882 0 0 0 0 0.145098 0 0 0 0.07 0"/>
<feBlend mode="normal" in2="BackgroundImageFix" result="effect1_dropShadow"/>
<feBlend mode="normal" in="SourceGraphic" in2="effect1_dropShadow" result="shape"/>
</filter>
<filter id="filter3_b" x="78.0166" y="51.1925" width="250.348" height="80.8353" filterUnits="userSpaceOnUse" color-interpolation-filters="sRGB">
<feFlood flood-opacity="0" result="BackgroundImageFix"/>
<feGaussianBlur in="BackgroundImage" stdDeviation="6.03248"/>
<feComposite in2="SourceAlpha" operator="in" result="effect1_backgroundBlur"/>
<feBlend mode="normal" in="SourceGraphic" in2="effect1_backgroundBlur" result="shape"/>
</filter>
<filter id="filter4_b" x="78.0166" y="490.96" width="250.348" height="74.1995" filterUnits="userSpaceOnUse" color-interpolation-filters="sRGB">
<feFlood flood-opacity="0" result="BackgroundImageFix"/>
<feGaussianBlur in="BackgroundImage" stdDeviation="6.03248"/>
<feComposite in2="SourceAlpha" operator="in" result="effect1_backgroundBlur"/>
<feBlend mode="normal" in="SourceGraphic" in2="effect1_backgroundBlur" result="shape"/>
</filter>
<filter id="filter5_d" x="103.353" y="401.68" width="199.675" height="28.9559" filterUnits="userSpaceOnUse" color-interpolation-filters="sRGB">
<feFlood flood-opacity="0" result="BackgroundImageFix"/>
<feColorMatrix in="SourceAlpha" type="matrix" values="0 0 0 0 0 0 0 0 0 0 0 0 0 0 0 0 0 0 127 0"/>
<feOffset dy="0.603248"/>
<feGaussianBlur stdDeviation="0.603248"/>
<feColorMatrix type="matrix" values="0 0 0 0 0.0862745 0 0 0 0 0.0705882 0 0 0 0 0.145098 0 0 0 0.07 0"/>
<feBlend mode="normal" in2="BackgroundImageFix" result="effect1_dropShadow"/>
<feBlend mode="normal" in="SourceGraphic" in2="effect1_dropShadow" result="shape"/>
</filter>
<clipPath id="clip0">
<rect x="90.0815" y="63.2574" width="226.218" height="489.838" fill="white"/>
</clipPath>
<clipPath id="clip1">
<rect x="90.0815" y="63.2574" width="226.218" height="489.838" fill="white"/>
</clipPath>
</defs>
</svg>
