<svg width="846" height="417" viewBox="0 0 846 417" fill="none" xmlns="http://www.w3.org/2000/svg">
<rect width="845.498" height="416.551" rx="1" fill="#FFF4EC"/>
<path d="M210.202 375.889C211.564 375.889 212.575 375.131 212.788 373.955H211.976C211.772 374.696 211.094 375.153 210.202 375.153C208.969 375.153 208.197 374.146 208.197 372.54C208.197 370.934 208.969 369.923 210.198 369.923C211.08 369.923 211.763 370.442 211.976 371.267H212.788C212.597 370.034 211.546 369.187 210.198 369.187C208.459 369.187 207.377 370.473 207.377 372.54C207.377 374.603 208.463 375.889 210.202 375.889ZM215.361 375.823C216 375.823 216.523 375.543 216.834 375.033H216.905V375.738H217.632V372.465C217.632 371.471 216.98 370.872 215.813 370.872C214.793 370.872 214.039 371.378 213.937 372.145H214.709C214.815 371.768 215.215 371.551 215.787 371.551C216.501 371.551 216.869 371.875 216.869 372.465V372.899L215.49 372.984C214.376 373.05 213.746 373.543 213.746 374.399C213.746 375.273 214.434 375.823 215.361 375.823ZM215.503 375.153C214.948 375.153 214.536 374.869 214.536 374.381C214.536 373.902 214.855 373.649 215.583 373.6L216.869 373.516V373.955C216.869 374.638 216.288 375.153 215.503 375.153ZM219.043 375.738H219.806V372.908C219.806 372.07 220.298 371.56 221.061 371.56C221.824 371.56 222.188 371.968 222.188 372.828V375.738H222.95V372.642C222.95 371.507 222.352 370.872 221.278 370.872C220.546 370.872 220.081 371.183 219.841 371.711H219.77V370.957H219.043V375.738ZM228.304 372.42C228.171 371.569 227.462 370.872 226.299 370.872C224.96 370.872 224.108 371.839 224.108 373.33C224.108 374.851 224.964 375.823 226.304 375.823C227.453 375.823 228.167 375.175 228.304 374.297H227.533C227.391 374.838 226.943 375.135 226.299 375.135C225.448 375.135 224.898 374.434 224.898 373.33C224.898 372.247 225.439 371.56 226.299 371.56C226.987 371.56 227.408 371.946 227.533 372.42H228.304ZM232.598 374.501C232.399 374.922 231.982 375.148 231.365 375.148C230.553 375.148 230.026 374.549 229.986 373.605V373.569H233.423V373.276C233.423 371.79 232.638 370.872 231.347 370.872C230.034 370.872 229.192 371.848 229.192 373.352C229.192 374.864 230.021 375.823 231.347 375.823C232.394 375.823 233.139 375.317 233.361 374.501H232.598ZM231.339 371.546C232.097 371.546 232.603 372.105 232.62 372.953H229.986C230.043 372.105 230.576 371.546 231.339 371.546ZM234.665 375.738H235.428V369.058H234.665V375.738Z" fill="#706B8B"/>
<g filter="url(#filter0_dd)">
<rect x="75" y="58" width="292" height="292" rx="12.9778" fill="white"/>
</g>
<g filter="url(#filter1_d)">
<path fill-rule="evenodd" clip-rule="evenodd" d="M189.204 249.422C189.204 240.821 196.177 233.849 204.777 233.849H237.871C246.472 233.849 253.444 240.821 253.444 249.422C253.444 258.023 246.472 264.996 237.871 264.996H204.777C196.177 264.996 189.204 258.023 189.204 249.422Z" fill="#FF5B24"/>
</g>
<path d="M210.755 253.849V248.18H210.852L214.89 253.849H216.162V245.619H214.748V251.288H214.651L210.613 245.619H209.335V253.849H210.755ZM221.954 252.144C221.749 252.611 221.264 252.874 220.562 252.874C219.633 252.874 219.034 252.212 219 251.157V251.083H223.357V250.632C223.357 248.676 222.29 247.496 220.511 247.496C218.703 247.496 217.58 248.756 217.58 250.758C217.58 252.754 218.686 253.974 220.522 253.974C221.994 253.974 223.037 253.267 223.294 252.144H221.954ZM220.505 248.596C221.355 248.596 221.914 249.195 221.942 250.142H219.005C219.068 249.207 219.661 248.596 220.505 248.596ZM226.788 251.693L228.065 253.86H229.662L227.626 250.706L229.639 247.627H228.082L226.85 249.788H226.753L225.516 247.627H223.873L225.909 250.769L223.89 253.86H225.419L226.691 251.693H226.788ZM231.199 246.087V247.655H230.213V248.756H231.199V252.195C231.199 253.398 231.77 253.877 233.201 253.877C233.475 253.877 233.737 253.855 233.942 253.815V252.731C233.771 252.748 233.663 252.76 233.463 252.76C232.87 252.76 232.608 252.48 232.608 251.858V248.756H233.942V247.655H232.608V246.087H231.199Z" fill="white"/>
<rect x="120.422" y="189.724" width="201.156" height="31.1467" rx="3.89333" fill="#F6F6F9"/>
<path d="M166.032 210.975C168.716 210.975 170.252 208.816 170.252 205.044C170.252 201.31 168.488 199.493 166.123 199.493C163.872 199.493 162.276 201.067 162.276 203.272C162.276 205.402 163.789 206.945 165.88 206.945C167.188 206.945 168.26 206.322 168.8 205.257H168.922C168.846 208.177 167.834 209.759 166.047 209.759C164.967 209.759 164.131 209.158 163.842 208.169H162.435C162.777 209.896 164.169 210.975 166.032 210.975ZM166.123 205.759C164.671 205.759 163.66 204.725 163.66 203.227C163.66 201.79 164.732 200.695 166.138 200.695C167.545 200.695 168.617 201.805 168.617 203.272C168.617 204.725 167.576 205.759 166.123 205.759ZM174.113 205.668H175.474C177.018 205.668 177.968 206.458 177.968 207.728C177.968 208.96 176.941 209.789 175.497 209.789C174.082 209.789 173.094 209.052 172.972 207.896H171.649C171.748 209.759 173.284 210.983 175.512 210.983C177.694 210.983 179.375 209.607 179.375 207.766C179.375 206.238 178.432 205.272 177.01 205.044V204.922C178.135 204.595 178.957 203.721 178.964 202.398C178.972 200.862 177.725 199.493 175.558 199.493C173.337 199.493 171.976 200.809 171.839 202.596H173.17C173.284 201.364 174.143 200.687 175.466 200.687C176.789 200.687 177.573 201.523 177.573 202.55C177.573 203.691 176.675 204.497 175.413 204.497H174.113V205.668ZM185.935 210.724H187.273V208.451H188.832V207.227H187.273V199.752H185.288C183.752 202.04 182.072 204.717 180.589 207.204V208.451H185.935V210.724ZM181.988 207.143C183.182 205.128 184.619 202.862 185.851 201.022H185.942V207.234H181.988V207.143ZM193.975 202.847H195.298C195.298 201.546 196.172 200.687 197.488 200.687C198.781 200.687 199.564 201.554 199.564 202.717C199.564 203.683 199.153 204.253 197.754 205.767L194.043 209.782V210.724H201.146V209.493H195.944V209.371L198.438 206.793C200.416 204.748 200.963 203.835 200.963 202.573C200.963 200.793 199.495 199.493 197.579 199.493C195.48 199.493 193.975 200.892 193.975 202.847ZM207.591 210.724H208.93V208.451H210.489V207.227H208.93V199.752H206.945C205.409 202.04 203.728 204.717 202.246 207.204V208.451H207.591V210.724ZM203.645 207.143C204.839 205.128 206.276 202.862 207.508 201.022H207.599V207.234H203.645V207.143ZM216.156 210.724H217.593L222.475 201.022V199.752H215.213V200.976H221.084V201.082L216.156 210.724ZM223.864 202.847H225.187C225.187 201.546 226.062 200.687 227.377 200.687C228.67 200.687 229.453 201.554 229.453 202.717C229.453 203.683 229.043 204.253 227.644 205.767L223.933 209.782V210.724H231.035V209.493H225.834V209.371L228.328 206.793C230.305 204.748 230.852 203.835 230.852 202.573C230.852 200.793 229.385 199.493 227.469 199.493C225.37 199.493 223.864 200.892 223.864 202.847ZM236.348 210.983C238.591 210.983 240.119 209.432 240.119 207.173C240.119 204.998 238.599 203.554 236.758 203.554C235.663 203.554 234.85 203.888 234.317 204.55H234.196L234.538 200.976H239.557V199.752H233.466L232.835 206.025H234.12C234.553 205.211 235.374 204.732 236.416 204.732C237.8 204.732 238.751 205.728 238.751 207.211C238.751 208.747 237.8 209.782 236.363 209.782C235.07 209.782 234.127 208.998 234.006 207.827H232.66C232.781 209.705 234.272 210.983 236.348 210.983Z" fill="black"/>
<path d="M133.699 206.846H136.809V205.903H133.699V202.603H132.756V205.903H129.654V206.846H132.756V210.147H133.699V206.846ZM144.031 210.724H145.042V208.245H146.685V207.31H145.042V199.736H143.552C141.156 203.067 139.841 205.12 138.518 207.295V208.245H144.031V210.724ZM139.605 207.249C140.708 205.432 141.803 203.729 143.962 200.733H144.031V207.318H139.605V207.249ZM148.766 210.724H149.876L154.902 200.725V199.752H147.754V200.687H153.838V200.771L148.766 210.724Z" fill="#706B8B"/>
<rect opacity="0.9" x="241.637" y="196.213" width="1.29778" height="17.52" rx="0.648889" fill="#FF5B24"/>
<path d="M169.383 144.738H170.59L167.948 137.423H166.727L164.086 144.738H165.252L165.926 142.761H168.714L169.383 144.738ZM167.279 138.716H167.365L168.425 141.849H166.215L167.279 138.716ZM175.517 139.233H174.362L172.993 143.623H172.907L171.533 139.233H170.367L172.359 144.738H173.53L175.517 139.233ZM176.978 138.249C177.358 138.249 177.667 137.94 177.667 137.565C177.667 137.185 177.358 136.876 176.978 136.876C176.597 136.876 176.288 137.185 176.288 137.565C176.288 137.94 176.597 138.249 176.978 138.249ZM176.435 144.738H177.52V139.233H176.435V144.738ZM178.788 140.774C178.788 141.59 179.274 142.057 180.324 142.3L181.287 142.528C181.839 142.66 182.098 142.883 182.098 143.228C182.098 143.679 181.616 143.993 180.937 143.993C180.278 143.993 179.872 143.724 179.736 143.293H178.646C178.742 144.252 179.599 144.845 180.912 144.845C182.23 144.845 183.198 144.15 183.198 143.126C183.198 142.325 182.706 141.874 181.657 141.631L180.739 141.418C180.141 141.276 179.862 141.063 179.862 140.723C179.862 140.277 180.324 139.978 180.932 139.978C181.55 139.978 181.946 140.247 182.047 140.657H183.092C182.985 139.704 182.174 139.126 180.932 139.126C179.685 139.126 178.788 139.816 178.788 140.774ZM187.923 143.263C187.72 143.709 187.269 143.953 186.61 143.953C185.738 143.953 185.175 143.324 185.14 142.325V142.275H189.038V141.899C189.038 140.176 188.11 139.126 186.574 139.126C185.018 139.126 184.03 140.247 184.03 141.996C184.03 143.755 184.998 144.845 186.579 144.845C187.842 144.845 188.734 144.236 188.972 143.263H187.923ZM186.569 140.014C187.375 140.014 187.903 140.597 187.928 141.489H185.14C185.201 140.602 185.763 140.014 186.569 140.014ZM190.138 144.738H191.228V141.509C191.228 140.622 191.74 140.074 192.546 140.074C193.352 140.074 193.738 140.521 193.738 141.433V144.738H194.828V141.174C194.828 139.861 194.148 139.126 192.916 139.126C192.085 139.126 191.538 139.496 191.269 140.105H191.188V139.233H190.138V144.738ZM203.649 144.738H204.855L202.214 137.423H200.993L198.351 144.738H199.517L200.192 142.761H202.98L203.649 144.738ZM201.545 138.716H201.631L202.691 141.849H200.481L201.545 138.716ZM205.581 142.787C205.662 144.084 206.752 144.916 208.374 144.916C210.108 144.916 211.192 144.044 211.192 142.66C211.192 141.565 210.574 140.962 209.073 140.602L208.267 140.404C207.314 140.171 206.929 139.867 206.929 139.334C206.929 138.65 207.527 138.209 208.425 138.209C209.276 138.209 209.864 138.635 209.971 139.329H211.076C211.01 138.107 209.925 137.246 208.44 137.246C206.843 137.246 205.778 138.107 205.778 139.395C205.778 140.46 206.382 141.088 207.705 141.408L208.648 141.636C209.616 141.869 210.042 142.224 210.042 142.797C210.042 143.466 209.373 143.947 208.46 143.947C207.482 143.947 206.802 143.496 206.706 142.787H205.581ZM213.2 141.007C213.631 141.007 213.945 140.688 213.945 140.277C213.945 139.867 213.631 139.547 213.2 139.547C212.774 139.547 212.455 139.867 212.455 140.277C212.455 140.688 212.774 141.007 213.2 141.007ZM213.2 144.814C213.631 144.814 213.945 144.495 213.945 144.084C213.945 143.674 213.631 143.354 213.2 143.354C212.774 143.354 212.455 143.674 212.455 144.084C212.455 144.495 212.774 144.814 213.2 144.814ZM217.834 142.787C217.915 144.084 219.005 144.916 220.627 144.916C222.361 144.916 223.446 144.044 223.446 142.66C223.446 141.565 222.827 140.962 221.327 140.602L220.521 140.404C219.568 140.171 219.183 139.867 219.183 139.334C219.183 138.65 219.781 138.209 220.678 138.209C221.53 138.209 222.118 138.635 222.224 139.329H223.329C223.263 138.107 222.179 137.246 220.693 137.246C219.096 137.246 218.032 138.107 218.032 139.395C218.032 140.46 218.635 141.088 219.958 141.408L220.901 141.636C221.869 141.869 222.295 142.224 222.295 142.797C222.295 143.466 221.626 143.947 220.713 143.947C219.735 143.947 219.056 143.496 218.959 142.787H217.834ZM229.261 139.233H228.171V142.462C228.171 143.349 227.689 143.887 226.807 143.887C226.006 143.887 225.646 143.451 225.646 142.538V139.233H224.556V142.807C224.556 144.1 225.236 144.845 226.457 144.845C227.294 144.845 227.857 144.49 228.125 143.866H228.211V144.738H229.261V139.233ZM233.56 144.83C234.954 144.83 235.841 143.719 235.841 141.986C235.841 140.237 234.959 139.137 233.56 139.137C232.805 139.137 232.156 139.507 231.862 140.105H231.775V137.073H230.685V144.738H231.735V143.866H231.816C232.145 144.475 232.789 144.83 233.56 144.83ZM233.246 140.069C234.168 140.069 234.721 140.794 234.721 141.986C234.721 143.177 234.168 143.897 233.246 143.897C232.328 143.897 231.76 143.167 231.755 141.986C231.76 140.804 232.333 140.069 233.246 140.069ZM236.82 140.774C236.82 141.59 237.306 142.057 238.356 142.3L239.319 142.528C239.872 142.66 240.13 142.883 240.13 143.228C240.13 143.679 239.648 143.993 238.969 143.993C238.31 143.993 237.905 143.724 237.768 143.293H236.678C236.774 144.252 237.631 144.845 238.944 144.845C240.262 144.845 241.23 144.15 241.23 143.126C241.23 142.325 240.738 141.874 239.689 141.631L238.771 141.418C238.173 141.276 237.894 141.063 237.894 140.723C237.894 140.277 238.356 139.978 238.964 139.978C239.583 139.978 239.978 140.247 240.079 140.657H241.124C241.017 139.704 240.206 139.126 238.964 139.126C237.717 139.126 236.82 139.816 236.82 140.774ZM247.009 141.002C246.868 139.932 246.031 139.126 244.647 139.126C243.04 139.126 242.062 140.216 242.062 141.965C242.062 143.75 243.045 144.845 244.652 144.845C246.016 144.845 246.868 144.079 247.009 142.994H245.95C245.808 143.593 245.337 143.917 244.647 143.917C243.74 143.917 243.177 143.182 243.177 141.965C243.177 140.774 243.735 140.054 244.647 140.054C245.377 140.054 245.823 140.465 245.95 141.002H247.009ZM248.049 144.738H249.139V141.448C249.139 140.673 249.722 140.14 250.548 140.14C250.741 140.14 251.065 140.176 251.157 140.201V139.177C251.04 139.152 250.832 139.137 250.67 139.137C249.95 139.137 249.337 139.527 249.179 140.069H249.098V139.233H248.049V144.738ZM252.561 138.249C252.941 138.249 253.25 137.94 253.25 137.565C253.25 137.185 252.941 136.876 252.561 136.876C252.181 136.876 251.871 137.185 251.871 137.565C251.871 137.94 252.181 138.249 252.561 138.249ZM252.019 144.738H253.103V139.233H252.019V144.738ZM257.362 139.137C256.612 139.137 255.963 139.517 255.628 140.145H255.547V139.233H254.498V146.573H255.588V143.907H255.674C255.963 144.49 256.586 144.83 257.372 144.83C258.766 144.83 259.653 143.724 259.653 141.986C259.653 140.237 258.766 139.137 257.362 139.137ZM257.053 143.897C256.14 143.897 255.567 143.162 255.567 141.986C255.567 140.804 256.14 140.069 257.058 140.069C257.98 140.069 258.533 140.789 258.533 141.986C258.533 143.182 257.98 143.897 257.053 143.897ZM261.144 137.844V139.248H260.267V140.12H261.144V143.288C261.144 144.348 261.626 144.774 262.837 144.774C263.05 144.774 263.253 144.748 263.43 144.718V143.851C263.278 143.866 263.182 143.876 263.015 143.876C262.472 143.876 262.234 143.618 262.234 143.025V140.12H263.43V139.248H262.234V137.844H261.144ZM265.068 138.249C265.448 138.249 265.757 137.94 265.757 137.565C265.757 137.185 265.448 136.876 265.068 136.876C264.688 136.876 264.378 137.185 264.378 137.565C264.378 137.94 264.688 138.249 265.068 138.249ZM264.525 144.738H265.61V139.233H264.525V144.738ZM269.337 144.845C270.949 144.845 271.937 143.765 271.937 141.986C271.937 140.206 270.944 139.126 269.337 139.126C267.724 139.126 266.731 140.211 266.731 141.986C266.731 143.765 267.719 144.845 269.337 144.845ZM269.337 143.917C268.389 143.917 267.856 143.212 267.856 141.986C267.856 140.759 268.389 140.049 269.337 140.049C270.279 140.049 270.817 140.759 270.817 141.986C270.817 143.207 270.279 143.917 269.337 143.917ZM273.042 144.738H274.132V141.509C274.132 140.622 274.644 140.074 275.45 140.074C276.257 140.074 276.642 140.521 276.642 141.433V144.738H277.732V141.174C277.732 139.861 277.052 139.126 275.821 139.126C274.989 139.126 274.442 139.496 274.173 140.105H274.092V139.233H273.042V144.738Z" fill="#706B8B"/>
<path d="M155.772 121.609H157.894L160.053 125.738H162.289L159.894 121.313C161.202 120.841 161.962 119.632 161.962 118.18C161.962 116.081 160.54 114.765 158.168 114.765H153.81V125.738H155.772V121.609ZM155.772 116.355H157.947C159.187 116.355 159.955 117.07 159.955 118.225C159.955 119.412 159.232 120.104 157.985 120.104H155.772V116.355ZM168.906 123.328C168.7 123.997 168.031 124.438 167.149 124.438C165.91 124.438 165.119 123.571 165.119 122.278V122.164H170.754V121.548C170.754 119.1 169.324 117.511 167.035 117.511C164.708 117.511 163.233 119.191 163.233 121.738C163.233 124.309 164.693 125.898 167.111 125.898C169.02 125.898 170.434 124.849 170.678 123.328H168.906ZM167.043 118.978C168.13 118.978 168.86 119.777 168.898 120.917H165.134C165.21 119.792 165.978 118.978 167.043 118.978ZM179.34 120.552C179.21 118.857 177.895 117.511 175.766 117.511C173.424 117.511 171.903 119.13 171.903 121.708C171.903 124.324 173.424 125.898 175.781 125.898C177.804 125.898 179.195 124.712 179.347 122.91H177.56C177.385 123.822 176.762 124.37 175.804 124.37C174.602 124.37 173.827 123.396 173.827 121.708C173.827 120.05 174.595 119.047 175.789 119.047C176.8 119.047 177.401 119.693 177.553 120.552H179.34ZM187.888 117.678H185.994V122.339C185.994 123.51 185.318 124.286 184.223 124.286C183.158 124.286 182.595 123.662 182.595 122.507V117.678H180.702V122.887C180.702 124.75 181.812 125.883 183.561 125.883C184.785 125.883 185.599 125.32 186.025 124.339H186.063V125.738H187.888V117.678ZM189.699 125.738H191.592V121.047C191.592 119.913 192.238 119.222 193.311 119.222C193.63 119.222 193.919 119.267 194.079 119.328V117.617C193.942 117.587 193.729 117.541 193.485 117.541C192.535 117.541 191.828 118.104 191.554 119.085H191.516V117.678H189.699V125.738ZM195.311 125.738H197.205V121.047C197.205 119.913 197.851 119.222 198.923 119.222C199.243 119.222 199.532 119.267 199.691 119.328V117.617C199.555 117.587 199.342 117.541 199.098 117.541C198.148 117.541 197.441 118.104 197.167 119.085H197.129V117.678H195.311V125.738ZM201.913 116.461C202.491 116.461 202.947 115.997 202.947 115.435C202.947 114.864 202.491 114.408 201.913 114.408C201.335 114.408 200.871 114.864 200.871 115.435C200.871 115.997 201.335 116.461 201.913 116.461ZM200.97 125.738H202.863V117.678H200.97V125.738ZM204.712 125.738H206.606V121.069C206.606 119.913 207.298 119.13 208.385 119.13C209.465 119.13 209.997 119.769 209.997 120.91V125.738H211.891V120.529C211.891 118.666 210.879 117.526 209.1 117.526C207.86 117.526 207.001 118.104 206.568 119.062H206.53V117.678H204.712V125.738ZM217.222 128.78C219.572 128.78 221.115 127.533 221.115 125.609V117.678H219.26V119.062H219.23C218.766 118.134 217.838 117.541 216.69 117.541C214.629 117.541 213.336 119.13 213.336 121.678C213.336 124.187 214.659 125.746 216.652 125.746C217.808 125.746 218.758 125.168 219.176 124.301H219.222V125.662C219.222 126.689 218.515 127.381 217.283 127.381C216.386 127.381 215.694 126.963 215.488 126.347H213.61C213.8 127.761 215.23 128.78 217.222 128.78ZM217.23 124.24C216.036 124.24 215.275 123.282 215.275 121.685C215.275 120.104 216.036 119.1 217.23 119.1C218.439 119.1 219.222 120.119 219.222 121.685C219.222 123.259 218.439 124.24 217.23 124.24ZM230.722 117.541C229.55 117.541 228.638 118.134 228.182 119.069H228.144V117.678H226.296V128.392H228.189V124.4H228.227C228.668 125.305 229.581 125.868 230.752 125.868C232.775 125.868 234.067 124.278 234.067 121.708C234.067 119.13 232.767 117.541 230.722 117.541ZM230.144 124.316C228.965 124.316 228.182 123.29 228.174 121.708C228.182 120.142 228.965 119.1 230.144 119.1C231.368 119.1 232.128 120.119 232.128 121.708C232.128 123.305 231.368 124.316 230.144 124.316ZM237.916 125.868C238.95 125.868 239.962 125.328 240.425 124.453H240.463V125.738H242.288V120.187C242.288 118.568 240.988 117.511 238.988 117.511C236.935 117.511 235.65 118.59 235.566 120.096H237.323C237.445 119.427 238.015 118.993 238.912 118.993C239.848 118.993 240.418 119.48 240.418 120.324V120.902L238.289 121.024C236.327 121.145 235.224 122.005 235.224 123.434C235.224 124.887 236.357 125.868 237.916 125.868ZM238.486 124.438C237.665 124.438 237.118 124.02 237.118 123.358C237.118 122.719 237.642 122.309 238.555 122.248L240.418 122.134V122.75C240.418 123.723 239.559 124.438 238.486 124.438ZM244.951 128.734C246.791 128.734 247.681 128.058 248.365 126.058L251.285 117.678H249.293L247.392 124.126H247.354L245.46 117.678H243.392L246.259 125.746C246.266 125.769 246.145 126.172 246.145 126.195C245.939 126.94 245.536 127.236 244.753 127.236C244.639 127.236 244.305 127.229 244.206 127.206V128.704C244.305 128.727 244.837 128.734 244.951 128.734ZM252.442 125.738H254.335V120.803C254.335 119.83 254.974 119.123 255.887 119.123C256.769 119.123 257.316 119.678 257.316 120.575V125.738H259.157V120.758C259.157 119.792 259.78 119.123 260.693 119.123C261.62 119.123 262.137 119.685 262.137 120.674V125.738H264.031V120.21C264.031 118.598 262.989 117.526 261.4 117.526C260.236 117.526 259.278 118.149 258.89 119.145H258.845C258.548 118.111 257.735 117.526 256.594 117.526C255.499 117.526 254.647 118.142 254.297 119.077H254.259V117.678H252.442V125.738ZM271.149 123.328C270.944 123.997 270.275 124.438 269.393 124.438C268.153 124.438 267.362 123.571 267.362 122.278V122.164H272.997V121.548C272.997 119.1 271.568 117.511 269.279 117.511C266.952 117.511 265.477 119.191 265.477 121.738C265.477 124.309 266.937 125.898 269.355 125.898C271.263 125.898 272.678 124.849 272.921 123.328H271.149ZM269.286 118.978C270.374 118.978 271.104 119.777 271.142 120.917H267.378C267.454 119.792 268.222 118.978 269.286 118.978ZM274.481 125.738H276.374V121.069C276.374 119.913 277.066 119.13 278.154 119.13C279.234 119.13 279.766 119.769 279.766 120.91V125.738H281.659V120.529C281.659 118.666 280.648 117.526 278.869 117.526C277.629 117.526 276.77 118.104 276.336 119.062H276.298V117.678H274.481V125.738ZM283.964 115.792V117.678H282.809V119.138H283.964V123.594C283.964 125.16 284.649 125.776 286.39 125.776C286.793 125.776 287.166 125.746 287.371 125.7V124.255C287.249 124.278 287.006 124.293 286.831 124.293C286.162 124.293 285.858 123.989 285.858 123.328V119.138H287.379V117.678H285.858V115.792H283.964Z" fill="#161225"/>
<path fill-rule="evenodd" clip-rule="evenodd" d="M241.764 86.4462C241.297 84.6633 240.162 83.9556 238.614 83.9556C237.359 83.9556 235.784 84.6633 235.784 86.3676C235.784 87.4686 236.545 88.334 237.786 88.5569L238.961 88.7665C239.762 88.9107 239.989 89.2123 239.989 89.6187C239.989 90.0775 239.495 90.3396 238.761 90.3396C237.8 90.3396 237.199 89.9988 237.105 89.0417L235.41 89.304C235.677 91.1523 237.332 91.9128 238.827 91.9128C240.242 91.9128 241.751 91.0999 241.751 89.4613C241.751 88.3469 241.07 87.5344 239.802 87.2981L238.507 87.0624C237.786 86.9313 237.546 86.5773 237.546 86.2365C237.546 85.8038 238.013 85.5288 238.654 85.5288C239.468 85.5288 240.042 85.8038 240.069 86.7084L241.764 86.4462ZM204.08 89.2508L205.842 84.1515H207.911L204.84 91.7153H203.306L200.235 84.1517H202.304L204.08 89.2508ZM214.906 86.3152C214.906 86.9181 214.425 87.3376 213.864 87.3376C213.304 87.3376 212.823 86.9181 212.823 86.3152C212.823 85.7121 213.304 85.2928 213.864 85.2928C214.425 85.2928 214.906 85.7121 214.906 86.3152H214.906ZM215.226 88.9895C214.532 89.8806 213.798 90.4968 212.503 90.4968C211.182 90.4968 210.154 89.7103 209.353 88.5568C209.032 88.0848 208.538 87.98 208.178 88.2291C207.844 88.4651 207.764 88.9632 208.071 89.3959C209.179 91.0607 210.714 92.0306 212.503 92.0306C214.145 92.0306 215.426 91.2442 216.427 89.9332C216.801 89.4483 216.788 88.9501 216.427 88.6748C216.094 88.4124 215.6 88.5045 215.226 88.9895ZM219.832 87.9144C219.832 89.4614 220.74 90.2742 221.754 90.2742C222.715 90.2742 223.703 89.5138 223.703 87.9144C223.703 86.3412 222.715 85.5811 221.768 85.5811C220.74 85.5811 219.832 86.302 219.832 87.9144ZM219.832 85.201V84.1651H217.95V94.3378H219.832V90.7196C220.459 91.5587 221.273 91.9128 222.194 91.9128C223.916 91.9128 225.598 90.5756 225.598 87.8228C225.598 85.1877 223.849 83.9557 222.354 83.9557C221.166 83.9557 220.352 84.493 219.832 85.201ZM228.869 87.9144C228.869 89.4614 229.777 90.2742 230.792 90.2742C231.753 90.2742 232.74 89.5138 232.74 87.9144C232.74 86.3412 231.753 85.5811 230.805 85.5811C229.777 85.5811 228.869 86.302 228.869 87.9144H228.869ZM228.869 85.201V84.1651H228.869H226.987V94.3378H228.869V90.7196C229.497 91.5587 230.311 91.9128 231.232 91.9128C232.954 91.9128 234.636 90.5756 234.636 87.8228C234.636 85.1877 232.887 83.9557 231.392 83.9557C230.204 83.9557 229.39 84.493 228.869 85.201Z" fill="#FF5B24"/>
<path d="M463.772 209.047C464.198 208.621 464.198 207.93 463.772 207.504L456.827 200.559C456.401 200.133 455.71 200.133 455.284 200.559C454.858 200.985 454.858 201.676 455.284 202.103L461.457 208.276L455.284 214.449C454.858 214.875 454.858 215.566 455.284 215.992C455.71 216.418 456.401 216.418 456.827 215.992L463.772 209.047ZM383 209.367L463 209.367L463 207.184L383 207.184L383 209.367Z" fill="#161225"/>
<path d="M613.222 374.889C614.581 374.889 615.591 374.132 615.803 372.958H614.993C614.789 373.698 614.112 374.154 613.222 374.154C611.991 374.154 611.22 373.149 611.22 371.546C611.22 369.943 611.991 368.933 613.217 368.933C614.098 368.933 614.78 369.451 614.993 370.275H615.803C615.613 369.044 614.563 368.198 613.217 368.198C611.481 368.198 610.401 369.482 610.401 371.546C610.401 373.605 611.486 374.889 613.222 374.889ZM618.371 374.822C619.009 374.822 619.532 374.543 619.842 374.034H619.912V374.738H620.639V371.47C620.639 370.478 619.988 369.881 618.823 369.881C617.805 369.881 617.052 370.385 616.95 371.151H617.721C617.827 370.775 618.225 370.558 618.797 370.558C619.509 370.558 619.877 370.881 619.877 371.47V371.904L618.5 371.988C617.388 372.055 616.76 372.546 616.76 373.401C616.76 374.273 617.446 374.822 618.371 374.822ZM618.513 374.154C617.96 374.154 617.548 373.87 617.548 373.383C617.548 372.905 617.867 372.653 618.593 372.604L619.877 372.52V372.958C619.877 373.64 619.297 374.154 618.513 374.154ZM622.047 374.738H622.808V371.913C622.808 371.076 623.3 370.567 624.062 370.567C624.823 370.567 625.186 370.974 625.186 371.833V374.738H625.948V371.647C625.948 370.514 625.35 369.881 624.279 369.881C623.548 369.881 623.083 370.191 622.844 370.718H622.773V369.965H622.047V374.738ZM631.293 371.426C631.16 370.576 630.451 369.881 629.291 369.881C627.954 369.881 627.104 370.846 627.104 372.334C627.104 373.853 627.958 374.822 629.296 374.822C630.443 374.822 631.155 374.176 631.293 373.299H630.522C630.381 373.839 629.933 374.136 629.291 374.136C628.441 374.136 627.892 373.436 627.892 372.334C627.892 371.253 628.432 370.567 629.291 370.567C629.978 370.567 630.398 370.952 630.522 371.426H631.293ZM635.579 373.503C635.38 373.924 634.964 374.149 634.348 374.149C633.538 374.149 633.011 373.552 632.971 372.608V372.573H636.403V372.281C636.403 370.797 635.619 369.881 634.33 369.881C633.02 369.881 632.178 370.855 632.178 372.356C632.178 373.866 633.006 374.822 634.33 374.822C635.376 374.822 636.119 374.318 636.341 373.503H635.579ZM634.322 370.554C635.079 370.554 635.584 371.112 635.601 371.957H632.971C633.029 371.112 633.56 370.554 634.322 370.554ZM637.643 374.738H638.404V368.07H637.643V374.738Z" fill="#706B8B"/>
<g filter="url(#filter2_dd)">
<rect x="479" y="58" width="291.498" height="291.498" rx="12.9555" fill="white"/>
</g>
<path d="M518.208 294.073V290.93L520.799 286.77H519.762L517.793 290.014H517.712L515.744 286.77H514.706L517.297 290.93V294.073H518.208ZM523.148 294.169C524.701 294.169 525.663 293.096 525.663 291.345C525.663 289.589 524.701 288.521 523.148 288.521C521.594 288.521 520.633 289.589 520.633 291.345C520.633 293.096 521.594 294.169 523.148 294.169ZM523.148 293.385C522.115 293.385 521.533 292.636 521.533 291.345C521.533 290.05 522.115 289.306 523.148 289.306C524.18 289.306 524.762 290.05 524.762 291.345C524.762 292.636 524.18 293.385 523.148 293.385ZM531.235 288.617H530.365V291.846C530.365 292.803 529.838 293.374 528.877 293.374C528.006 293.374 527.642 292.919 527.642 291.937V288.617H526.772V292.15C526.772 293.44 527.409 294.169 528.634 294.169C529.469 294.169 530.051 293.825 530.324 293.218H530.405V294.073H531.235V288.617ZM535.436 294.073H536.306V290.844C536.306 289.923 536.843 289.306 537.82 289.306C538.644 289.306 539.08 289.786 539.08 290.753V294.073H539.95V290.54C539.95 289.26 539.221 288.521 538.067 288.521C537.232 288.521 536.661 288.876 536.387 289.478H536.306V286.451H535.436V294.073ZM542.85 294.169C543.579 294.169 544.176 293.85 544.53 293.268H544.611V294.073H545.441V290.338C545.441 289.204 544.697 288.521 543.366 288.521C542.202 288.521 541.342 289.098 541.226 289.974H542.106C542.228 289.544 542.683 289.296 543.336 289.296C544.151 289.296 544.571 289.665 544.571 290.338V290.834L542.997 290.93C541.727 291.006 541.008 291.568 541.008 292.545C541.008 293.541 541.792 294.169 542.85 294.169ZM543.012 293.405C542.379 293.405 541.909 293.081 541.909 292.524C541.909 291.978 542.273 291.689 543.103 291.634L544.571 291.537V292.038C544.571 292.818 543.908 293.405 543.012 293.405ZM551.094 288.617H550.163L548.67 293.111H548.589L547.096 288.617H546.165L548.184 294.073H549.075L551.094 288.617ZM555.462 292.661C555.234 293.142 554.758 293.4 554.055 293.4C553.129 293.4 552.527 292.717 552.481 291.639V291.598H556.403V291.264C556.403 289.569 555.507 288.521 554.035 288.521C552.537 288.521 551.575 289.635 551.575 291.35C551.575 293.076 552.522 294.169 554.035 294.169C555.229 294.169 556.079 293.592 556.332 292.661H555.462ZM554.025 289.29C554.89 289.29 555.467 289.928 555.487 290.895H552.481C552.547 289.928 553.154 289.29 554.025 289.29ZM560.28 294.073H561.15V290.692C561.15 289.923 561.753 289.366 562.583 289.366C562.755 289.366 563.069 289.397 563.139 289.417V288.547C563.028 288.531 562.846 288.521 562.704 288.521C561.98 288.521 561.353 288.896 561.191 289.427H561.11V288.617H560.28V294.073ZM567.482 292.661C567.254 293.142 566.778 293.4 566.075 293.4C565.149 293.4 564.546 292.717 564.501 291.639V291.598H568.423V291.264C568.423 289.569 567.527 288.521 566.055 288.521C564.557 288.521 563.595 289.635 563.595 291.35C563.595 293.076 564.541 294.169 566.055 294.169C567.249 294.169 568.099 293.592 568.352 292.661H567.482ZM566.044 289.29C566.91 289.29 567.487 289.928 567.507 290.895H564.501C564.567 289.928 565.174 289.29 566.044 289.29ZM574.096 290.287C573.944 289.316 573.135 288.521 571.809 288.521C570.28 288.521 569.309 289.624 569.309 291.325C569.309 293.061 570.286 294.169 571.814 294.169C573.125 294.169 573.939 293.43 574.096 292.428H573.216C573.054 293.046 572.543 293.385 571.809 293.385C570.837 293.385 570.21 292.585 570.21 291.325C570.21 290.09 570.827 289.306 571.809 289.306C572.593 289.306 573.074 289.746 573.216 290.287H574.096ZM578.788 292.661C578.56 293.142 578.084 293.4 577.381 293.4C576.455 293.4 575.853 292.717 575.807 291.639V291.598H579.729V291.264C579.729 289.569 578.833 288.521 577.361 288.521C575.863 288.521 574.901 289.635 574.901 291.35C574.901 293.076 575.847 294.169 577.361 294.169C578.555 294.169 579.405 293.592 579.658 292.661H578.788ZM577.35 289.29C578.216 289.29 578.793 289.928 578.813 290.895H575.807C575.873 289.928 576.48 289.29 577.35 289.29ZM581.344 287.565C581.678 287.565 581.951 287.291 581.951 286.957C581.951 286.623 581.678 286.35 581.344 286.35C581.01 286.35 580.736 286.623 580.736 286.957C580.736 287.291 581.01 287.565 581.344 287.565ZM580.908 294.073H581.779V288.617H580.908V294.073ZM587.685 288.617H586.754L585.261 293.111H585.18L583.687 288.617H582.756L584.775 294.073H585.666L587.685 288.617ZM592.053 292.661C591.825 293.142 591.349 293.4 590.646 293.4C589.72 293.4 589.117 292.717 589.072 291.639V291.598H592.994V291.264C592.994 289.569 592.098 288.521 590.625 288.521C589.127 288.521 588.166 289.635 588.166 291.35C588.166 293.076 589.112 294.169 590.625 294.169C591.82 294.169 592.67 293.592 592.923 292.661H592.053ZM590.615 289.29C591.481 289.29 592.058 289.928 592.078 290.895H589.072C589.138 289.928 589.745 289.29 590.615 289.29ZM596.172 294.169C596.926 294.169 597.574 293.81 597.918 293.202H597.999V294.073H598.829V286.451H597.959V289.478H597.883C597.574 288.881 596.931 288.521 596.172 288.521C594.786 288.521 593.88 289.635 593.88 291.345C593.88 293.061 594.775 294.169 596.172 294.169ZM596.375 289.306C597.361 289.306 597.979 290.095 597.979 291.345C597.979 292.605 597.366 293.385 596.375 293.385C595.378 293.385 594.78 292.62 594.78 291.345C594.78 290.075 595.383 289.306 596.375 289.306ZM604.548 294.169C605.277 294.169 605.874 293.85 606.228 293.268H606.309V294.073H607.139V290.338C607.139 289.204 606.395 288.521 605.064 288.521C603.9 288.521 603.04 289.098 602.924 289.974H603.804C603.926 289.544 604.381 289.296 605.034 289.296C605.849 289.296 606.269 289.665 606.269 290.338V290.834L604.695 290.93C603.425 291.006 602.706 291.568 602.706 292.545C602.706 293.541 603.49 294.169 604.548 294.169ZM604.71 293.405C604.077 293.405 603.607 293.081 603.607 292.524C603.607 291.978 603.971 291.689 604.801 291.634L606.269 291.537V292.038C606.269 292.818 605.606 293.405 604.71 293.405ZM611.259 294.073H612.129V290.844C612.129 289.888 612.691 289.306 613.562 289.306C614.432 289.306 614.847 289.771 614.847 290.753V294.073H615.717V290.54C615.717 289.245 615.034 288.521 613.81 288.521C612.975 288.521 612.443 288.876 612.17 289.478H612.089V288.617H611.259V294.073ZM619.346 294.169C620.9 294.169 621.861 293.096 621.861 291.345C621.861 289.589 620.9 288.521 619.346 288.521C617.793 288.521 616.831 289.589 616.831 291.345C616.831 293.096 617.793 294.169 619.346 294.169ZM619.346 293.385C618.314 293.385 617.732 292.636 617.732 291.345C617.732 290.05 618.314 289.306 619.346 289.306C620.379 289.306 620.961 290.05 620.961 291.345C620.961 292.636 620.379 293.385 619.346 293.385ZM623.385 287.205V288.617H622.504V289.346H623.385V292.656C623.385 293.698 623.835 294.113 624.959 294.113C625.131 294.113 625.298 294.093 625.47 294.063V293.329C625.308 293.344 625.222 293.349 625.065 293.349C624.498 293.349 624.255 293.076 624.255 292.433V289.346H625.47V288.617H624.255V287.205H623.385ZM627.034 287.565C627.368 287.565 627.641 287.291 627.641 286.957C627.641 286.623 627.368 286.35 627.034 286.35C626.7 286.35 626.427 286.623 626.427 286.957C626.427 287.291 626.7 287.565 627.034 287.565ZM626.599 294.073H627.469V288.617H626.599V294.073ZM629.286 294.073H630.157V289.346H631.407V288.617H630.157V288.035C630.157 287.438 630.42 287.135 631.047 287.135C631.204 287.135 631.351 287.14 631.457 287.16V286.451C631.275 286.416 631.083 286.401 630.87 286.401C629.833 286.401 629.286 286.922 629.286 288.01V288.617H628.38V289.346H629.286V294.073ZM632.925 287.565C633.259 287.565 633.532 287.291 633.532 286.957C633.532 286.623 633.259 286.35 632.925 286.35C632.591 286.35 632.318 286.623 632.318 286.957C632.318 287.291 632.591 287.565 632.925 287.565ZM632.49 294.073H633.36V288.617H632.49V294.073ZM639.327 290.287C639.175 289.316 638.365 288.521 637.04 288.521C635.511 288.521 634.54 289.624 634.54 291.325C634.54 293.061 635.516 294.169 637.045 294.169C638.355 294.169 639.17 293.43 639.327 292.428H638.446C638.285 293.046 637.773 293.385 637.04 293.385C636.068 293.385 635.44 292.585 635.44 291.325C635.44 290.09 636.058 289.306 637.04 289.306C637.824 289.306 638.305 289.746 638.446 290.287H639.327ZM641.923 294.169C642.652 294.169 643.249 293.85 643.604 293.268H643.685V294.073H644.514V290.338C644.514 289.204 643.771 288.521 642.44 288.521C641.276 288.521 640.415 289.098 640.299 289.974H641.179C641.301 289.544 641.756 289.296 642.409 289.296C643.224 289.296 643.644 289.665 643.644 290.338V290.834L642.07 290.93C640.8 291.006 640.081 291.568 640.081 292.545C640.081 293.541 640.866 294.169 641.923 294.169ZM642.085 293.405C641.453 293.405 640.982 293.081 640.982 292.524C640.982 291.978 641.346 291.689 642.176 291.634L643.644 291.537V292.038C643.644 292.818 642.981 293.405 642.085 293.405ZM646.281 287.205V288.617H645.4V289.346H646.281V292.656C646.281 293.698 646.731 294.113 647.855 294.113C648.027 294.113 648.194 294.093 648.366 294.063V293.329C648.204 293.344 648.118 293.349 647.961 293.349C647.394 293.349 647.151 293.076 647.151 292.433V289.346H648.366V288.617H647.151V287.205H646.281ZM649.93 287.565C650.264 287.565 650.537 287.291 650.537 286.957C650.537 286.623 650.264 286.35 649.93 286.35C649.596 286.35 649.323 286.623 649.323 286.957C649.323 287.291 649.596 287.565 649.93 287.565ZM649.495 294.073H650.365V288.617H649.495V294.073ZM654.06 294.169C655.613 294.169 656.575 293.096 656.575 291.345C656.575 289.589 655.613 288.521 654.06 288.521C652.506 288.521 651.544 289.589 651.544 291.345C651.544 293.096 652.506 294.169 654.06 294.169ZM654.06 293.385C653.027 293.385 652.445 292.636 652.445 291.345C652.445 290.05 653.027 289.306 654.06 289.306C655.092 289.306 655.674 290.05 655.674 291.345C655.674 292.636 655.092 293.385 654.06 293.385ZM657.734 294.073H658.604V290.844C658.604 289.888 659.166 289.306 660.037 289.306C660.907 289.306 661.322 289.771 661.322 290.753V294.073H662.192V290.54C662.192 289.245 661.509 288.521 660.285 288.521C659.449 288.521 658.918 288.876 658.645 289.478H658.564V288.617H657.734V294.073ZM668.539 294.169C670.093 294.169 671.054 293.096 671.054 291.345C671.054 289.589 670.093 288.521 668.539 288.521C666.985 288.521 666.024 289.589 666.024 291.345C666.024 293.096 666.985 294.169 668.539 294.169ZM668.539 293.385C667.507 293.385 666.925 292.636 666.925 291.345C666.925 290.05 667.507 289.306 668.539 289.306C669.571 289.306 670.153 290.05 670.153 291.345C670.153 292.636 669.571 293.385 668.539 293.385ZM672.213 294.073H673.084V290.844C673.084 289.888 673.645 289.306 674.516 289.306C675.386 289.306 675.801 289.771 675.801 290.753V294.073H676.672V290.54C676.672 289.245 675.989 288.521 674.764 288.521C673.929 288.521 673.397 288.876 673.124 289.478H673.043V288.617H672.213V294.073ZM681.242 296.047C682.209 296.047 682.644 295.672 683.109 294.407L685.24 288.617H684.314L682.821 293.106H682.74L681.242 288.617H680.301L682.32 294.078L682.219 294.402C681.991 295.06 681.718 295.298 681.217 295.298C681.095 295.298 680.959 295.293 680.852 295.272V296.016C680.974 296.036 681.126 296.047 681.242 296.047ZM688.236 294.169C689.79 294.169 690.751 293.096 690.751 291.345C690.751 289.589 689.79 288.521 688.236 288.521C686.682 288.521 685.721 289.589 685.721 291.345C685.721 293.096 686.682 294.169 688.236 294.169ZM688.236 293.385C687.204 293.385 686.622 292.636 686.622 291.345C686.622 290.05 687.204 289.306 688.236 289.306C689.269 289.306 689.85 290.05 689.85 291.345C689.85 292.636 689.269 293.385 688.236 293.385ZM696.323 288.617H695.453V291.846C695.453 292.803 694.927 293.374 693.965 293.374C693.095 293.374 692.73 292.919 692.73 291.937V288.617H691.86V292.15C691.86 293.44 692.497 294.169 693.722 294.169C694.557 294.169 695.139 293.825 695.412 293.218H695.493V294.073H696.323V288.617ZM697.756 294.073H698.626V290.692C698.626 289.923 699.228 289.366 700.058 289.366C700.23 289.366 700.544 289.397 700.615 289.417V288.547C700.504 288.531 700.322 288.521 700.18 288.521C699.456 288.521 698.829 288.896 698.667 289.427H698.586V288.617H697.756V294.073ZM706.871 288.521C706.127 288.521 705.474 288.901 705.125 289.528H705.044V288.617H704.214V295.895H705.084V293.253H705.165C705.464 293.83 706.091 294.169 706.871 294.169C708.257 294.169 709.163 293.051 709.163 291.345C709.163 289.63 708.262 288.521 706.871 288.521ZM706.663 293.385C705.681 293.385 705.059 292.595 705.059 291.345C705.059 290.09 705.681 289.306 706.668 289.306C707.665 289.306 708.262 290.07 708.262 291.345C708.262 292.62 707.665 293.385 706.663 293.385ZM710.373 294.073H711.243V290.844C711.243 289.923 711.78 289.306 712.756 289.306C713.581 289.306 714.016 289.786 714.016 290.753V294.073H714.887V290.54C714.887 289.26 714.158 288.521 713.004 288.521C712.169 288.521 711.597 288.876 711.324 289.478H711.243V286.451H710.373V294.073ZM718.511 294.169C720.064 294.169 721.026 293.096 721.026 291.345C721.026 289.589 720.064 288.521 718.511 288.521C716.957 288.521 715.995 289.589 715.995 291.345C715.995 293.096 716.957 294.169 718.511 294.169ZM718.511 293.385C717.478 293.385 716.896 292.636 716.896 291.345C716.896 290.05 717.478 289.306 718.511 289.306C719.543 289.306 720.125 290.05 720.125 291.345C720.125 292.636 719.543 293.385 718.511 293.385ZM722.185 294.073H723.055V290.844C723.055 289.888 723.617 289.306 724.488 289.306C725.358 289.306 725.773 289.771 725.773 290.753V294.073H726.643V290.54C726.643 289.245 725.96 288.521 724.736 288.521C723.901 288.521 723.369 288.876 723.096 289.478H723.015V288.617H722.185V294.073ZM731.644 292.661C731.416 293.142 730.94 293.4 730.237 293.4C729.311 293.4 728.708 292.717 728.663 291.639V291.598H732.585V291.264C732.585 289.569 731.689 288.521 730.216 288.521C728.719 288.521 727.757 289.635 727.757 291.35C727.757 293.076 728.703 294.169 730.216 294.169C731.411 294.169 732.261 293.592 732.514 292.661H731.644ZM730.206 289.29C731.072 289.29 731.649 289.928 731.669 290.895H728.663C728.729 289.928 729.336 289.29 730.206 289.29ZM734.463 294.123C734.827 294.123 735.121 293.825 735.121 293.466C735.121 293.101 734.827 292.808 734.463 292.808C734.103 292.808 733.805 293.101 733.805 293.466C733.805 293.825 734.103 294.123 734.463 294.123ZM537.146 299.598C535.082 299.598 533.796 301.071 533.796 303.419C533.796 305.757 535.051 307.245 537.146 307.245C539.231 307.245 540.497 305.752 540.497 303.419C540.497 301.076 539.221 299.598 537.146 299.598ZM537.146 300.438C538.639 300.438 539.56 301.592 539.56 303.419C539.56 305.231 538.644 306.405 537.146 306.405C535.628 306.405 534.732 305.231 534.732 303.419C534.732 301.592 535.659 300.438 537.146 300.438ZM544.414 301.521C543.67 301.521 543.017 301.901 542.668 302.528H542.587V301.617H541.757V308.895H542.627V306.253H542.708C543.007 306.83 543.634 307.169 544.414 307.169C545.8 307.169 546.706 306.051 546.706 304.345C546.706 302.63 545.806 301.521 544.414 301.521ZM544.206 306.385C543.225 306.385 542.602 305.595 542.602 304.345C542.602 303.09 543.225 302.306 544.211 302.306C545.208 302.306 545.806 303.07 545.806 304.345C545.806 305.62 545.208 306.385 544.206 306.385ZM551.479 305.661C551.251 306.142 550.775 306.4 550.072 306.4C549.146 306.4 548.544 305.717 548.498 304.639V304.598H552.42V304.264C552.42 302.569 551.524 301.521 550.052 301.521C548.554 301.521 547.592 302.635 547.592 304.35C547.592 306.076 548.539 307.169 550.052 307.169C551.246 307.169 552.096 306.592 552.349 305.661H551.479ZM550.042 302.29C550.907 302.29 551.484 302.928 551.504 303.895H548.498C548.564 302.928 549.171 302.29 550.042 302.29ZM553.579 307.073H554.45V303.844C554.45 302.888 555.011 302.306 555.882 302.306C556.752 302.306 557.167 302.771 557.167 303.753V307.073H558.038V303.54C558.038 302.245 557.355 301.521 556.13 301.521C555.295 301.521 554.763 301.876 554.49 302.478H554.409V301.617H553.579V307.073ZM565.265 307.073L567.957 299.77H567.001L564.855 305.894H564.774L562.628 299.77H561.672L564.364 307.073H565.265ZM569.374 300.565C569.708 300.565 569.982 300.291 569.982 299.957C569.982 299.623 569.708 299.35 569.374 299.35C569.04 299.35 568.767 299.623 568.767 299.957C568.767 300.291 569.04 300.565 569.374 300.565ZM568.939 307.073H569.81V301.617H568.939V307.073ZM573.919 301.521C573.175 301.521 572.522 301.901 572.173 302.528H572.092V301.617H571.262V308.895H572.133V306.253H572.214C572.512 306.83 573.14 307.169 573.919 307.169C575.306 307.169 576.212 306.051 576.212 304.345C576.212 302.63 575.311 301.521 573.919 301.521ZM573.712 306.385C572.73 306.385 572.107 305.595 572.107 304.345C572.107 303.09 572.73 302.306 573.717 302.306C574.714 302.306 575.311 303.07 575.311 304.345C575.311 305.62 574.714 306.385 573.712 306.385ZM580.028 301.521C579.284 301.521 578.631 301.901 578.282 302.528H578.201V301.617H577.371V308.895H578.241V306.253H578.322C578.621 306.83 579.248 307.169 580.028 307.169C581.414 307.169 582.32 306.051 582.32 304.345C582.32 302.63 581.419 301.521 580.028 301.521ZM579.82 306.385C578.838 306.385 578.216 305.595 578.216 304.345C578.216 303.09 578.838 302.306 579.825 302.306C580.822 302.306 581.419 303.07 581.419 304.345C581.419 305.62 580.822 306.385 579.82 306.385ZM583.353 303.11C583.353 303.9 583.818 304.34 584.841 304.588L585.777 304.816C586.359 304.957 586.642 305.211 586.642 305.585C586.642 306.086 586.116 306.435 585.382 306.435C584.684 306.435 584.248 306.142 584.102 305.681H583.206C583.302 306.587 584.137 307.169 585.352 307.169C586.592 307.169 587.538 306.496 587.538 305.519C587.538 304.735 587.042 304.289 586.015 304.041L585.175 303.839C584.532 303.682 584.228 303.449 584.228 303.075C584.228 302.589 584.734 302.26 585.382 302.26C586.04 302.26 586.465 302.549 586.581 302.984H587.442C587.325 302.088 586.531 301.521 585.387 301.521C584.228 301.521 583.353 302.204 583.353 303.11ZM592.933 307.169C593.662 307.169 594.259 306.85 594.613 306.268H594.694V307.073H595.524V303.338C595.524 302.204 594.78 301.521 593.449 301.521C592.285 301.521 591.425 302.098 591.309 302.974H592.189C592.311 302.544 592.766 302.296 593.419 302.296C594.234 302.296 594.654 302.665 594.654 303.338V303.834L593.08 303.93C591.81 304.006 591.091 304.568 591.091 305.545C591.091 306.541 591.875 307.169 592.933 307.169ZM593.095 306.405C592.462 306.405 591.992 306.081 591.992 305.524C591.992 304.978 592.356 304.689 593.186 304.634L594.654 304.537V305.038C594.654 305.818 593.991 306.405 593.095 306.405ZM596.926 307.073H597.797V303.844C597.797 302.888 598.358 302.306 599.229 302.306C600.099 302.306 600.514 302.771 600.514 303.753V307.073H601.385V303.54C601.385 302.245 600.701 301.521 599.477 301.521C598.642 301.521 598.11 301.876 597.837 302.478H597.756V301.617H596.926V307.073ZM604.791 307.169C605.545 307.169 606.193 306.81 606.537 306.202H606.618V307.073H607.448V299.451H606.577V302.478H606.501C606.193 301.881 605.55 301.521 604.791 301.521C603.404 301.521 602.498 302.635 602.498 304.345C602.498 306.061 603.394 307.169 604.791 307.169ZM604.993 302.306C605.98 302.306 606.597 303.095 606.597 304.345C606.597 305.605 605.985 306.385 604.993 306.385C603.996 306.385 603.399 305.62 603.399 304.345C603.399 303.075 604.001 302.306 604.993 302.306ZM612.013 307.073H612.883V302.346H614.133V301.617H612.883V301.035C612.883 300.438 613.146 300.135 613.774 300.135C613.931 300.135 614.078 300.14 614.184 300.16V299.451C614.002 299.416 613.809 299.401 613.597 299.401C612.559 299.401 612.013 299.922 612.013 301.01V301.617H611.107V302.346H612.013V307.073ZM617.205 307.169C618.759 307.169 619.721 306.096 619.721 304.345C619.721 302.589 618.759 301.521 617.205 301.521C615.652 301.521 614.69 302.589 614.69 304.345C614.69 306.096 615.652 307.169 617.205 307.169ZM617.205 306.385C616.173 306.385 615.591 305.636 615.591 304.345C615.591 303.05 616.173 302.306 617.205 302.306C618.238 302.306 618.82 303.05 618.82 304.345C618.82 305.636 618.238 306.385 617.205 306.385ZM620.93 307.073H621.801V299.451H620.93V307.073ZM623.334 307.073H624.205V299.451H623.334V307.073ZM627.93 307.169C629.483 307.169 630.445 306.096 630.445 304.345C630.445 302.589 629.483 301.521 627.93 301.521C626.376 301.521 625.414 302.589 625.414 304.345C625.414 306.096 626.376 307.169 627.93 307.169ZM627.93 306.385C626.897 306.385 626.315 305.636 626.315 304.345C626.315 303.05 626.897 302.306 627.93 302.306C628.962 302.306 629.544 303.05 629.544 304.345C629.544 305.636 628.962 306.385 627.93 306.385ZM638.264 301.617H637.388L636.315 305.98H636.234L635.015 301.617H634.18L632.96 305.98H632.879L631.806 301.617H630.926L632.454 307.073H633.335L634.549 302.852H634.63L635.85 307.073H636.736L638.264 301.617ZM642.303 300.205V301.617H641.422V302.346H642.303V305.656C642.303 306.698 642.753 307.113 643.877 307.113C644.049 307.113 644.216 307.093 644.388 307.063V306.329C644.226 306.344 644.14 306.349 643.983 306.349C643.416 306.349 643.173 306.076 643.173 305.433V302.346H644.388V301.617H643.173V300.205H642.303ZM645.547 307.073H646.417V303.844C646.417 302.923 646.954 302.306 647.93 302.306C648.755 302.306 649.191 302.786 649.191 303.753V307.073H650.061V303.54C650.061 302.26 649.332 301.521 648.178 301.521C647.343 301.521 646.772 301.876 646.498 302.478H646.417V299.451H645.547V307.073ZM655.056 305.661C654.828 306.142 654.353 306.4 653.649 306.4C652.723 306.4 652.121 305.717 652.075 304.639V304.598H655.997V304.264C655.997 302.569 655.102 301.521 653.629 301.521C652.131 301.521 651.17 302.635 651.17 304.35C651.17 306.076 652.116 307.169 653.629 307.169C654.823 307.169 655.674 306.592 655.927 305.661H655.056ZM653.619 302.29C654.484 302.29 655.061 302.928 655.081 303.895H652.075C652.141 302.928 652.748 302.29 653.619 302.29ZM660.33 300.565C660.664 300.565 660.937 300.291 660.937 299.957C660.937 299.623 660.664 299.35 660.33 299.35C659.996 299.35 659.723 299.623 659.723 299.957C659.723 300.291 659.996 300.565 660.33 300.565ZM659.895 307.073H660.765V301.617H659.895V307.073ZM662.218 307.073H663.088V303.844C663.088 302.888 663.65 302.306 664.52 302.306C665.391 302.306 665.806 302.771 665.806 303.753V307.073H666.676V303.54C666.676 302.245 665.993 301.521 664.768 301.521C663.933 301.521 663.402 301.876 663.129 302.478H663.048V301.617H662.218V307.073ZM667.937 303.11C667.937 303.9 668.402 304.34 669.424 304.588L670.361 304.816C670.943 304.957 671.226 305.211 671.226 305.585C671.226 306.086 670.7 306.435 669.966 306.435C669.267 306.435 668.832 306.142 668.686 305.681H667.79C667.886 306.587 668.721 307.169 669.936 307.169C671.175 307.169 672.122 306.496 672.122 305.519C672.122 304.735 671.626 304.289 670.598 304.041L669.758 303.839C669.116 303.682 668.812 303.449 668.812 303.075C668.812 302.589 669.318 302.26 669.966 302.26C670.624 302.26 671.049 302.549 671.165 302.984H672.026C671.909 302.088 671.115 301.521 669.971 301.521C668.812 301.521 667.937 302.204 667.937 303.11ZM673.595 300.205V301.617H672.714V302.346H673.595V305.656C673.595 306.698 674.045 307.113 675.168 307.113C675.341 307.113 675.508 307.093 675.68 307.063V306.329C675.518 306.344 675.432 306.349 675.275 306.349C674.708 306.349 674.465 306.076 674.465 305.433V302.346H675.68V301.617H674.465V300.205H673.595ZM676.788 307.073H677.659V303.692C677.659 302.923 678.261 302.366 679.091 302.366C679.263 302.366 679.577 302.397 679.647 302.417V301.547C679.536 301.531 679.354 301.521 679.212 301.521C678.489 301.521 677.861 301.896 677.699 302.427H677.618V301.617H676.788V307.073ZM684.941 301.617H684.071V304.846C684.071 305.803 683.544 306.374 682.583 306.374C681.712 306.374 681.348 305.919 681.348 304.937V301.617H680.478V305.15C680.478 306.44 681.115 307.169 682.34 307.169C683.175 307.169 683.757 306.825 684.03 306.218H684.111V307.073H684.941V301.617ZM690.888 303.287C690.736 302.316 689.926 301.521 688.6 301.521C687.072 301.521 686.1 302.624 686.1 304.325C686.1 306.061 687.077 307.169 688.605 307.169C689.916 307.169 690.731 306.43 690.888 305.428H690.007C689.845 306.046 689.334 306.385 688.6 306.385C687.629 306.385 687.001 305.585 687.001 304.325C687.001 303.09 687.619 302.306 688.6 302.306C689.385 302.306 689.865 302.746 690.007 303.287H690.888ZM692.431 300.205V301.617H691.551V302.346H692.431V305.656C692.431 306.698 692.882 307.113 694.005 307.113C694.177 307.113 694.344 307.093 694.516 307.063V306.329C694.355 306.344 694.269 306.349 694.112 306.349C693.545 306.349 693.302 306.076 693.302 305.433V302.346H694.516V301.617H693.302V300.205H692.431ZM696.08 300.565C696.414 300.565 696.688 300.291 696.688 299.957C696.688 299.623 696.414 299.35 696.08 299.35C695.746 299.35 695.473 299.623 695.473 299.957C695.473 300.291 695.746 300.565 696.08 300.565ZM695.645 307.073H696.516V301.617H695.645V307.073ZM700.21 307.169C701.764 307.169 702.725 306.096 702.725 304.345C702.725 302.589 701.764 301.521 700.21 301.521C698.657 301.521 697.695 302.589 697.695 304.345C697.695 306.096 698.657 307.169 700.21 307.169ZM700.21 306.385C699.178 306.385 698.596 305.636 698.596 304.345C698.596 303.05 699.178 302.306 700.21 302.306C701.243 302.306 701.825 303.05 701.825 304.345C701.825 305.636 701.243 306.385 700.21 306.385ZM703.885 307.073H704.755V303.844C704.755 302.888 705.317 302.306 706.187 302.306C707.058 302.306 707.473 302.771 707.473 303.753V307.073H708.343V303.54C708.343 302.245 707.66 301.521 706.435 301.521C705.6 301.521 705.069 301.876 704.795 302.478H704.714V301.617H703.885V307.073ZM709.603 303.11C709.603 303.9 710.069 304.34 711.091 304.588L712.027 304.816C712.609 304.957 712.893 305.211 712.893 305.585C712.893 306.086 712.366 306.435 711.633 306.435C710.934 306.435 710.499 306.142 710.352 305.681H709.457C709.553 306.587 710.388 307.169 711.602 307.169C712.842 307.169 713.789 306.496 713.789 305.519C713.789 304.735 713.293 304.289 712.265 304.041L711.425 303.839C710.782 303.682 710.479 303.449 710.479 303.075C710.479 302.589 710.985 302.26 711.633 302.26C712.291 302.26 712.716 302.549 712.832 302.984H713.692C713.576 302.088 712.781 301.521 711.638 301.521C710.479 301.521 709.603 302.204 709.603 303.11ZM715.666 307.123C716.031 307.123 716.324 306.825 716.324 306.466C716.324 306.101 716.031 305.808 715.666 305.808C715.307 305.808 715.008 306.101 715.008 306.466C715.008 306.825 715.307 307.123 715.666 307.123Z" fill="#161225"/>
<path fill-rule="evenodd" clip-rule="evenodd" d="M607.907 168.769C604.329 168.769 601.429 171.669 601.429 175.247V256.866C601.429 260.444 604.329 263.344 607.907 263.344H641.591C645.169 263.344 648.069 260.444 648.069 256.866V175.247C648.069 171.669 645.169 168.769 641.591 168.769H607.907ZM644.83 180.429H604.668V251.684H644.83V180.429Z" fill="#706B8B"/>
<path fill-rule="evenodd" clip-rule="evenodd" d="M628.278 204.478C630.62 204.478 631.79 204.478 633.05 204.876C634.426 205.377 635.51 206.461 636.01 207.836C636.409 209.096 636.409 210.267 636.409 212.608V219.667C636.409 222.008 636.409 223.179 636.01 224.439C635.51 225.815 634.426 226.898 633.05 227.399C631.79 227.798 630.62 227.798 628.278 227.798H621.219C618.878 227.798 617.708 227.798 616.448 227.399C615.072 226.898 613.988 225.815 613.487 224.439C613.089 223.179 613.089 222.008 613.089 219.667V212.608C613.089 210.267 613.089 209.096 613.487 207.836C613.988 206.461 615.072 205.377 616.448 204.876C617.708 204.478 618.878 204.478 621.219 204.478H628.278Z" fill="#FF5B24"/>
<path fill-rule="evenodd" clip-rule="evenodd" d="M627.124 214.072C627.97 214.072 628.71 213.436 628.71 212.481C628.71 211.58 627.97 210.891 627.124 210.891C626.278 210.891 625.538 211.527 625.538 212.481C625.538 213.436 626.278 214.072 627.124 214.072ZM629.186 216.671C628.129 218.049 627.018 219.004 625.062 219.004C623.053 219.004 621.467 217.784 620.304 216.034C619.828 215.292 619.035 215.133 618.506 215.504C617.978 215.875 617.872 216.618 618.348 217.307C619.987 219.905 622.366 221.39 625.062 221.39C627.547 221.39 629.503 220.17 631.036 218.155C631.618 217.413 631.565 216.618 631.036 216.193C630.508 215.769 629.767 215.928 629.186 216.671Z" fill="white"/>
<path d="M573.472 145H574.676L572.04 137.697H570.82L568.183 145H569.347L570.02 143.026H572.804L573.472 145ZM571.372 138.988H571.458L572.515 142.115H570.309L571.372 138.988ZM579.596 139.504H578.442L577.075 143.887H576.989L575.618 139.504H574.454L576.443 145H577.612L579.596 139.504ZM581.053 138.522C581.433 138.522 581.741 138.214 581.741 137.839C581.741 137.46 581.433 137.151 581.053 137.151C580.674 137.151 580.365 137.46 580.365 137.839C580.365 138.214 580.674 138.522 581.053 138.522ZM580.512 145H581.595V139.504H580.512V145ZM582.86 141.043C582.86 141.857 583.346 142.323 584.394 142.566L585.355 142.794C585.907 142.925 586.165 143.148 586.165 143.492C586.165 143.942 585.684 144.256 585.006 144.256C584.348 144.256 583.943 143.988 583.806 143.558H582.718C582.815 144.514 583.67 145.106 584.981 145.106C586.296 145.106 587.263 144.413 587.263 143.391C587.263 142.591 586.772 142.141 585.724 141.898L584.809 141.685C584.211 141.544 583.933 141.331 583.933 140.992C583.933 140.547 584.394 140.248 585.001 140.248C585.618 140.248 586.013 140.516 586.114 140.926H587.157C587.05 139.975 586.241 139.398 585.001 139.398C583.756 139.398 582.86 140.086 582.86 141.043ZM591.98 143.527C591.777 143.973 591.327 144.216 590.669 144.216C589.799 144.216 589.237 143.588 589.201 142.591V142.54H593.093V142.166C593.093 140.445 592.167 139.398 590.634 139.398C589.08 139.398 588.093 140.516 588.093 142.262C588.093 144.018 589.06 145.106 590.639 145.106C591.899 145.106 592.789 144.499 593.027 143.527H591.98ZM590.629 140.283C591.433 140.283 591.96 140.865 591.985 141.756H589.201C589.262 140.87 589.824 140.283 590.629 140.283ZM594.191 145H595.28V141.776C595.28 140.891 595.791 140.344 596.595 140.344C597.4 140.344 597.785 140.789 597.785 141.7V145H598.873V141.442C598.873 140.132 598.195 139.398 596.965 139.398C596.135 139.398 595.588 139.767 595.32 140.374H595.239V139.504H594.191V145ZM607.679 145H608.883L606.247 137.697H605.027L602.39 145H603.554L604.227 143.026H607.011L607.679 145ZM605.579 138.988H605.665L606.722 142.115H604.516L605.579 138.988ZM609.607 143.052C609.688 144.347 610.776 145.177 612.396 145.177C614.126 145.177 615.209 144.307 615.209 142.925C615.209 141.832 614.592 141.23 613.094 140.87L612.289 140.673C611.338 140.44 610.953 140.137 610.953 139.605C610.953 138.922 611.55 138.482 612.446 138.482C613.296 138.482 613.883 138.907 613.99 139.6H615.093C615.027 138.381 613.944 137.52 612.461 137.52C610.867 137.52 609.804 138.381 609.804 139.666C609.804 140.729 610.407 141.356 611.728 141.675L612.669 141.903C613.635 142.136 614.061 142.49 614.061 143.062C614.061 143.73 613.393 144.211 612.482 144.211C611.505 144.211 610.827 143.76 610.731 143.052H609.607ZM617.214 141.275C617.644 141.275 617.957 140.956 617.957 140.547C617.957 140.137 617.644 139.818 617.214 139.818C616.788 139.818 616.47 140.137 616.47 140.547C616.47 140.956 616.788 141.275 617.214 141.275ZM617.214 145.076C617.644 145.076 617.957 144.757 617.957 144.347C617.957 143.937 617.644 143.618 617.214 143.618C616.788 143.618 616.47 143.937 616.47 144.347C616.47 144.757 616.788 145.076 617.214 145.076ZM621.839 143.052C621.92 144.347 623.009 145.177 624.628 145.177C626.359 145.177 627.442 144.307 627.442 142.925C627.442 141.832 626.824 141.23 625.326 140.87L624.522 140.673C623.57 140.44 623.186 140.137 623.186 139.605C623.186 138.922 623.783 138.482 624.679 138.482C625.529 138.482 626.116 138.907 626.222 139.6H627.325C627.26 138.381 626.177 137.52 624.694 137.52C623.1 137.52 622.037 138.381 622.037 139.666C622.037 140.729 622.639 141.356 623.96 141.675L624.901 141.903C625.868 142.136 626.293 142.49 626.293 143.062C626.293 143.73 625.625 144.211 624.714 144.211C623.737 144.211 623.059 143.76 622.963 143.052H621.839ZM633.247 139.504H632.159V142.728C632.159 143.613 631.678 144.15 630.797 144.15C629.998 144.15 629.638 143.715 629.638 142.804V139.504H628.55V143.072C628.55 144.362 629.228 145.106 630.448 145.106C631.283 145.106 631.845 144.752 632.113 144.13H632.199V145H633.247V139.504ZM637.538 145.091C638.93 145.091 639.816 143.983 639.816 142.252C639.816 140.506 638.935 139.408 637.538 139.408C636.784 139.408 636.136 139.777 635.843 140.374H635.757V137.348H634.669V145H635.716V144.13H635.797C636.126 144.737 636.769 145.091 637.538 145.091ZM637.224 140.339C638.146 140.339 638.697 141.063 638.697 142.252C638.697 143.441 638.146 144.16 637.224 144.16C636.309 144.16 635.742 143.431 635.737 142.252C635.742 141.073 636.314 140.339 637.224 140.339ZM640.793 141.043C640.793 141.857 641.278 142.323 642.326 142.566L643.287 142.794C643.839 142.925 644.097 143.148 644.097 143.492C644.097 143.942 643.616 144.256 642.938 144.256C642.28 144.256 641.876 143.988 641.739 143.558H640.651C640.747 144.514 641.602 145.106 642.913 145.106C644.229 145.106 645.195 144.413 645.195 143.391C645.195 142.591 644.704 142.141 643.657 141.898L642.741 141.685C642.144 141.544 641.865 141.331 641.865 140.992C641.865 140.547 642.326 140.248 642.933 140.248C643.551 140.248 643.945 140.516 644.047 140.926H645.089C644.983 139.975 644.173 139.398 642.933 139.398C641.688 139.398 640.793 140.086 640.793 141.043ZM650.965 141.27C650.823 140.202 649.988 139.398 648.606 139.398C647.002 139.398 646.026 140.486 646.026 142.232C646.026 144.013 647.007 145.106 648.612 145.106C649.973 145.106 650.823 144.342 650.965 143.259H649.907C649.765 143.856 649.295 144.18 648.606 144.18C647.701 144.18 647.139 143.446 647.139 142.232C647.139 141.043 647.696 140.324 648.606 140.324C649.335 140.324 649.781 140.734 649.907 141.27H650.965ZM652.002 145H653.09V141.716C653.09 140.941 653.672 140.41 654.497 140.41C654.69 140.41 655.014 140.445 655.105 140.471V139.448C654.988 139.423 654.781 139.408 654.619 139.408C653.9 139.408 653.288 139.798 653.131 140.339H653.05V139.504H652.002V145ZM656.507 138.522C656.886 138.522 657.195 138.214 657.195 137.839C657.195 137.46 656.886 137.151 656.507 137.151C656.127 137.151 655.818 137.46 655.818 137.839C655.818 138.214 656.127 138.522 656.507 138.522ZM655.965 145H657.048V139.504H655.965V145ZM661.299 139.408C660.55 139.408 659.903 139.787 659.569 140.415H659.488V139.504H658.44V146.832H659.528V144.17H659.614C659.903 144.752 660.525 145.091 661.31 145.091C662.701 145.091 663.587 143.988 663.587 142.252C663.587 140.506 662.701 139.408 661.299 139.408ZM660.991 144.16C660.08 144.16 659.508 143.426 659.508 142.252C659.508 141.073 660.08 140.339 660.996 140.339C661.917 140.339 662.468 141.058 662.468 142.252C662.468 143.446 661.917 144.16 660.991 144.16ZM665.075 138.117V139.519H664.199V140.39H665.075V143.553C665.075 144.61 665.556 145.035 666.765 145.035C666.978 145.035 667.18 145.01 667.357 144.98V144.114C667.205 144.13 667.109 144.14 666.942 144.14C666.401 144.14 666.163 143.882 666.163 143.289V140.39H667.357V139.519H666.163V138.117H665.075ZM668.992 138.522C669.372 138.522 669.68 138.214 669.68 137.839C669.68 137.46 669.372 137.151 668.992 137.151C668.613 137.151 668.304 137.46 668.304 137.839C668.304 138.214 668.613 138.522 668.992 138.522ZM668.451 145H669.534V139.504H668.451V145ZM673.253 145.106C674.863 145.106 675.85 144.028 675.85 142.252C675.85 140.476 674.858 139.398 673.253 139.398C671.644 139.398 670.652 140.481 670.652 142.252C670.652 144.028 671.639 145.106 673.253 145.106ZM673.253 144.18C672.307 144.18 671.776 143.477 671.776 142.252C671.776 141.027 672.307 140.319 673.253 140.319C674.195 140.319 674.731 141.027 674.731 142.252C674.731 143.472 674.195 144.18 673.253 144.18ZM676.953 145H678.041V141.776C678.041 140.891 678.552 140.344 679.357 140.344C680.162 140.344 680.546 140.789 680.546 141.7V145H681.634V141.442C681.634 140.132 680.956 139.398 679.726 139.398C678.896 139.398 678.35 139.767 678.082 140.374H678.001V139.504H676.953V145Z" fill="#706B8B"/>
<path d="M565.883 126.3C568.471 126.3 570.263 124.88 570.604 122.534H568.684C568.38 123.855 567.34 124.637 565.89 124.637C563.993 124.637 562.793 123.096 562.793 120.637C562.793 118.192 564 116.644 565.883 116.644C567.302 116.644 568.418 117.547 568.676 118.921H570.604C570.362 116.568 568.426 114.981 565.883 114.981C562.77 114.981 560.789 117.145 560.789 120.637C560.789 124.151 562.755 126.3 565.883 126.3ZM575.722 126.277C578.083 126.277 579.616 124.705 579.616 122.094C579.616 119.49 578.068 117.904 575.722 117.904C573.376 117.904 571.828 119.498 571.828 122.094C571.828 124.705 573.361 126.277 575.722 126.277ZM575.722 124.781C574.522 124.781 573.748 123.81 573.748 122.094C573.748 120.386 574.53 119.407 575.722 119.407C576.921 119.407 577.696 120.386 577.696 122.094C577.696 123.81 576.921 124.781 575.722 124.781ZM581.09 126.117H582.98V121.191C582.98 120.219 583.618 119.513 584.529 119.513C585.409 119.513 585.956 120.067 585.956 120.963V126.117H587.793V121.145C587.793 120.181 588.415 119.513 589.326 119.513C590.252 119.513 590.768 120.075 590.768 121.062V126.117H592.659V120.599C592.659 118.989 591.619 117.919 590.032 117.919C588.871 117.919 587.914 118.541 587.527 119.536H587.481C587.185 118.504 586.373 117.919 585.235 117.919C584.141 117.919 583.291 118.534 582.942 119.468H582.904V118.071H581.09V126.117ZM598.854 117.934C597.685 117.934 596.774 118.526 596.319 119.46H596.281V118.071H594.436V128.767H596.326V124.781H596.364C596.804 125.685 597.715 126.246 598.884 126.246C600.904 126.246 602.194 124.66 602.194 122.094C602.194 119.521 600.896 117.934 598.854 117.934ZM598.277 124.698C597.1 124.698 596.319 123.673 596.311 122.094C596.319 120.53 597.1 119.49 598.277 119.49C599.499 119.49 600.258 120.508 600.258 122.094C600.258 123.688 599.499 124.698 598.277 124.698ZM603.721 126.117H605.611V115.163H603.721V126.117ZM612.808 123.711C612.603 124.379 611.935 124.819 611.055 124.819C609.818 124.819 609.028 123.954 609.028 122.663V122.55H614.653V121.935C614.653 119.49 613.226 117.904 610.941 117.904C608.618 117.904 607.145 119.581 607.145 122.124C607.145 124.69 608.603 126.277 611.017 126.277C612.922 126.277 614.334 125.229 614.577 123.711H612.808ZM610.949 119.369C612.034 119.369 612.763 120.166 612.801 121.305H609.043C609.119 120.181 609.886 119.369 610.949 119.369ZM616.658 116.188V118.071H615.504V119.528H616.658V123.977C616.658 125.54 617.341 126.155 619.08 126.155C619.482 126.155 619.854 126.125 620.059 126.079V124.637C619.937 124.66 619.695 124.675 619.52 124.675C618.852 124.675 618.548 124.371 618.548 123.711V119.528H620.067V118.071H618.548V116.188H616.658ZM626.793 123.711C626.588 124.379 625.92 124.819 625.04 124.819C623.802 124.819 623.013 123.954 623.013 122.663V122.55H628.638V121.935C628.638 119.49 627.211 117.904 624.926 117.904C622.603 117.904 621.13 119.581 621.13 122.124C621.13 124.69 622.588 126.277 625.002 126.277C626.907 126.277 628.319 125.229 628.562 123.711H626.793ZM624.933 119.369C626.019 119.369 626.748 120.166 626.786 121.305H623.028C623.104 120.181 623.871 119.369 624.933 119.369ZM634.477 116.856C635.054 116.856 635.51 116.393 635.51 115.831C635.51 115.262 635.054 114.807 634.477 114.807C633.901 114.807 633.437 115.262 633.437 115.831C633.437 116.393 633.901 116.856 634.477 116.856ZM633.536 126.117H635.426V118.071H633.536V126.117ZM637.272 126.117H639.162V121.456C639.162 120.303 639.853 119.521 640.938 119.521C642.016 119.521 642.548 120.158 642.548 121.297V126.117H644.438V120.918C644.438 119.058 643.428 117.919 641.652 117.919C640.415 117.919 639.557 118.496 639.124 119.452H639.086V118.071H637.272V126.117ZM655.075 126.117L658.886 115.163H656.776L653.997 124.015H653.952L651.173 115.163H649.017L652.828 126.117H655.075ZM660.959 116.856C661.536 116.856 661.992 116.393 661.992 115.831C661.992 115.262 661.536 114.807 660.959 114.807C660.382 114.807 659.919 115.262 659.919 115.831C659.919 116.393 660.382 116.856 660.959 116.856ZM660.018 126.117H661.908V118.071H660.018V126.117ZM668.172 117.934C667.003 117.934 666.092 118.526 665.636 119.46H665.598V118.071H663.754V128.767H665.644V124.781H665.682C666.122 125.685 667.033 126.246 668.202 126.246C670.221 126.246 671.512 124.66 671.512 122.094C671.512 119.521 670.214 117.934 668.172 117.934ZM667.595 124.698C666.418 124.698 665.636 123.673 665.629 122.094C665.636 120.53 666.418 119.49 667.595 119.49C668.817 119.49 669.576 120.508 669.576 122.094C669.576 123.688 668.817 124.698 667.595 124.698ZM677.404 117.934C676.235 117.934 675.324 118.526 674.868 119.46H674.83V118.071H672.986V128.767H674.876V124.781H674.914C675.354 125.685 676.265 126.246 677.434 126.246C679.453 126.246 680.744 124.66 680.744 122.094C680.744 119.521 679.446 117.934 677.404 117.934ZM676.827 124.698C675.65 124.698 674.868 123.673 674.861 122.094C674.868 120.53 675.65 119.49 676.827 119.49C678.049 119.49 678.808 120.508 678.808 122.094C678.808 123.688 678.049 124.698 676.827 124.698ZM682.073 120.379C682.073 121.57 682.847 122.329 684.388 122.671L685.724 122.967C686.567 123.157 686.855 123.43 686.855 123.916C686.855 124.516 686.286 124.895 685.368 124.895C684.411 124.895 683.872 124.501 683.728 123.719H681.868C682.02 125.275 683.265 126.277 685.368 126.277C687.341 126.277 688.738 125.252 688.738 123.734C688.738 122.565 688.093 121.92 686.423 121.548L685.087 121.252C684.244 121.062 683.91 120.743 683.91 120.28C683.91 119.688 684.464 119.293 685.299 119.293C686.172 119.293 686.711 119.756 686.787 120.485H688.548C688.503 118.959 687.258 117.904 685.299 117.904C683.356 117.904 682.073 118.906 682.073 120.379Z" fill="#161225"/>
<path fill-rule="evenodd" clip-rule="evenodd" d="M645.478 86.3973C645.011 84.6174 643.879 83.9109 642.333 83.9109C641.08 83.9109 639.508 84.6174 639.508 86.3188C639.508 87.418 640.268 88.2818 641.507 88.5044L642.679 88.7136C643.479 88.8575 643.706 89.1586 643.706 89.5643C643.706 90.0223 643.212 90.284 642.48 90.284C641.52 90.284 640.921 89.9438 640.827 88.9884L639.135 89.2502C639.401 91.0953 641.054 91.8545 642.546 91.8545C643.959 91.8545 645.464 91.043 645.464 89.4073C645.464 88.2947 644.785 87.4836 643.519 87.2477L642.226 87.0124C641.507 86.8816 641.267 86.5282 641.267 86.188C641.267 85.756 641.733 85.4815 642.373 85.4815C643.186 85.4815 643.759 85.756 643.785 86.659L645.478 86.3973ZM607.859 89.1976L609.617 84.1071H611.683L608.618 91.6579H607.085L604.021 84.1073H606.086L607.859 89.1976ZM618.666 86.2665C618.666 86.8684 618.186 87.2871 617.626 87.2871C617.067 87.2871 616.587 86.8684 616.587 86.2665C616.587 85.6645 617.067 85.2459 617.626 85.2459C618.186 85.2459 618.666 85.6645 618.666 86.2665H618.666ZM618.985 88.9362C618.292 89.8258 617.559 90.4409 616.267 90.4409C614.948 90.4409 613.922 89.6558 613.122 88.5043C612.802 88.0331 612.309 87.9284 611.949 88.1771C611.616 88.4127 611.536 88.91 611.843 89.3419C612.949 91.0039 614.481 91.972 616.267 91.972C617.906 91.972 619.185 91.187 620.184 89.8783C620.557 89.3942 620.544 88.8969 620.184 88.6221C619.851 88.3601 619.358 88.4521 618.985 88.9362ZM623.583 87.863C623.583 89.4073 624.49 90.2187 625.502 90.2187C626.462 90.2187 627.448 89.4596 627.448 87.863C627.448 86.2924 626.462 85.5336 625.516 85.5336C624.49 85.5336 623.583 86.2533 623.583 87.863ZM623.583 85.1543V84.1202H621.705V94.2753H623.583V90.6634C624.21 91.501 625.023 91.8545 625.942 91.8545C627.661 91.8545 629.34 90.5196 629.34 87.7715C629.34 85.141 627.594 83.9111 626.102 83.9111C624.916 83.9111 624.103 84.4475 623.583 85.1543ZM632.605 87.863C632.605 89.4073 633.511 90.2187 634.524 90.2187C635.483 90.2187 636.469 89.4596 636.469 87.863C636.469 86.2924 635.483 85.5336 634.537 85.5336C633.511 85.5336 632.605 86.2533 632.605 87.863H632.605ZM632.605 85.1543V84.1202H632.605H630.726V94.2753H632.605V90.6634C633.231 91.501 634.044 91.8545 634.964 91.8545C636.683 91.8545 638.362 90.5196 638.362 87.7715C638.362 85.141 636.616 83.9111 635.124 83.9111C633.938 83.9111 633.125 84.4475 632.605 85.1543Z" fill="#FF5B24"/>
<defs>
<filter id="filter0_dd" x="72.4044" y="56.0533" width="297.191" height="297.191" filterUnits="userSpaceOnUse" color-interpolation-filters="sRGB">
<feFlood flood-opacity="0" result="BackgroundImageFix"/>
<feColorMatrix in="SourceAlpha" type="matrix" values="0 0 0 0 0 0 0 0 0 0 0 0 0 0 0 0 0 0 127 0"/>
<feOffset dy="0.648889"/>
<feGaussianBlur stdDeviation="1.29778"/>
<feColorMatrix type="matrix" values="0 0 0 0 0.0862745 0 0 0 0 0.0705882 0 0 0 0 0.145098 0 0 0 0.17 0"/>
<feBlend mode="normal" in2="BackgroundImageFix" result="effect1_dropShadow"/>
<feColorMatrix in="SourceAlpha" type="matrix" values="0 0 0 0 0 0 0 0 0 0 0 0 0 0 0 0 0 0 127 0"/>
<feOffset dy="0.648889"/>
<feGaussianBlur stdDeviation="0.324444"/>
<feColorMatrix type="matrix" values="0 0 0 0 0.0862745 0 0 0 0 0.0705882 0 0 0 0 0.145098 0 0 0 0.0498188 0"/>
<feBlend mode="normal" in2="effect1_dropShadow" result="effect2_dropShadow"/>
<feBlend mode="normal" in="SourceGraphic" in2="effect2_dropShadow" result="shape"/>
</filter>
<filter id="filter1_d" x="187.906" y="233.2" width="66.8356" height="33.7422" filterUnits="userSpaceOnUse" color-interpolation-filters="sRGB">
<feFlood flood-opacity="0" result="BackgroundImageFix"/>
<feColorMatrix in="SourceAlpha" type="matrix" values="0 0 0 0 0 0 0 0 0 0 0 0 0 0 0 0 0 0 127 0"/>
<feOffset dy="0.648889"/>
<feGaussianBlur stdDeviation="0.648889"/>
<feColorMatrix type="matrix" values="0 0 0 0 0.0862745 0 0 0 0 0.0705882 0 0 0 0 0.145098 0 0 0 0.07 0"/>
<feBlend mode="normal" in2="BackgroundImageFix" result="effect1_dropShadow"/>
<feBlend mode="normal" in="SourceGraphic" in2="effect1_dropShadow" result="shape"/>
</filter>
<filter id="filter2_dd" x="476.409" y="56.0567" width="296.68" height="296.68" filterUnits="userSpaceOnUse" color-interpolation-filters="sRGB">
<feFlood flood-opacity="0" result="BackgroundImageFix"/>
<feColorMatrix in="SourceAlpha" type="matrix" values="0 0 0 0 0 0 0 0 0 0 0 0 0 0 0 0 0 0 127 0"/>
<feOffset dy="0.647773"/>
<feGaussianBlur stdDeviation="1.29555"/>
<feColorMatrix type="matrix" values="0 0 0 0 0.0862745 0 0 0 0 0.0705882 0 0 0 0 0.145098 0 0 0 0.17 0"/>
<feBlend mode="normal" in2="BackgroundImageFix" result="effect1_dropShadow"/>
<feColorMatrix in="SourceAlpha" type="matrix" values="0 0 0 0 0 0 0 0 0 0 0 0 0 0 0 0 0 0 127 0"/>
<feOffset dy="0.647773"/>
<feGaussianBlur stdDeviation="0.323887"/>
<feColorMatrix type="matrix" values="0 0 0 0 0.0862745 0 0 0 0 0.0705882 0 0 0 0 0.145098 0 0 0 0.0498188 0"/>
<feBlend mode="normal" in2="effect1_dropShadow" result="effect2_dropShadow"/>
<feBlend mode="normal" in="SourceGraphic" in2="effect2_dropShadow" result="shape"/>
</filter>
</defs>
</svg>
